M48
; DRILL file {KiCad (5.1.6)-1} date 07/05/20 00:12:09
; FORMAT={-:-/ absolute / inch / decimal}
; #@! TF.CreationDate,2020-07-05T00:12:09+01:00
; #@! TF.GenerationSoftware,Kicad,Pcbnew,(5.1.6)-1
; #@! TF.FileFunction,Plated,1,2,PTH
FMAT,2
INCH
T1C0.0157
T2C0.0300
T3C0.0315
T4C0.0394
T5C0.0400
T6C0.0433
T7C0.0512
T8C0.0787
T9C0.0866
%
G90
G05
T1
X0.1969Y0.6299
X0.1969Y0.4528
X0.2953Y1.122
X0.4331Y2.0472
X0.4724Y0.8858
X0.4724Y0.4528
X0.5118Y1.1024
X0.5315Y1.4173
X0.6299Y2.0472
X0.7618Y0.6299
X0.8268Y1.2008
X1.0433Y1.6339
X1.1024Y1.4173
X1.3386Y1.6317
X1.378Y0.4724
X1.3976Y1.6317
X1.4173Y0.5106
X1.4185Y0.55
X1.4567Y1.9291
X1.4764Y0.5846
X1.7717Y1.1811
X1.7717Y0.7874
X1.7717Y0.3937
X1.8898Y1.7717
X2.0256Y1.3425
X2.0669Y1.3189
X2.126Y1.7717
X2.1457Y1.3189
X2.1457Y1.2598
X2.1654Y0.7874
X2.1654Y0.3937
X2.4016Y1.752
X2.4213Y1.3189
X2.5394Y1.2008
X2.5591Y0.7874
X2.5591Y0.3937
X2.5669Y1.8406
X2.5787Y1.4567
X2.6102Y1.8051
X2.6417Y1.8523
X2.6969Y1.8504
X2.7165Y1.1024
X2.9465Y1.1024
X3.0315Y1.752
X3.0315Y0.8268
X3.0315Y0.5906
X3.1299Y1.9488
X3.1693Y1.2008
X3.189Y0.2559
X3.248Y1.9094
X3.248Y1.6535
X3.3268Y0.5512
X3.3465Y0.0787
X3.563Y0.0787
X3.7402Y1.9685
X3.7402Y1.8701
X3.7598Y0.2953
T2
X1.65Y2.15
X1.75Y2.15
X1.85Y2.15
X1.95Y2.15
X2.05Y2.15
X2.15Y2.15
X2.25Y2.15
X2.35Y2.15
T3
X0.9Y1.975
X0.9Y1.675
X0.75Y1.975
X0.75Y1.675
X1.2Y1.675
X1.2Y1.375
X0.3Y1.975
X0.3Y1.675
X3.75Y0.75
X3.75Y0.45
X0.15Y1.975
X0.15Y1.675
X3.75Y1.2
X3.75Y0.9
T4
X0.124Y0.8425
X0.124Y0.2913
X1.0217Y0.8425
X1.0217Y0.7047
X1.0217Y0.4291
X1.0217Y0.2913
X0.8Y1.0
X1.0Y1.0
X1.1Y1.85
X1.2Y1.85
T5
X2.8732Y2.148
X2.8732Y2.048
X2.8732Y1.948
X2.8732Y1.848
X2.8732Y1.748
X2.8732Y1.648
X2.8732Y1.548
X2.8732Y1.448
X2.8732Y1.348
X2.8732Y1.248
X2.8732Y1.148
X2.8732Y1.048
X2.8732Y0.948
X2.8732Y0.848
X2.8732Y0.748
X2.8732Y0.648
X2.8732Y0.548
X2.8732Y0.448
X2.8732Y0.348
X2.8732Y0.248
X3.1236Y0.398
X3.2236Y0.398
X3.4732Y2.148
X3.4732Y2.048
X3.4732Y1.948
X3.4732Y1.848
X3.4732Y1.748
X3.4732Y1.648
X3.4732Y1.548
X3.4732Y1.448
X3.4732Y1.348
X3.4732Y1.248
X3.4732Y1.148
X3.4732Y1.048
X3.4732Y0.948
X3.4732Y0.848
X3.4732Y0.748
X3.4732Y0.648
X3.4732Y0.548
X3.4732Y0.448
X3.4732Y0.348
X3.4732Y0.246
T6
X0.7295Y1.5591
X0.7295Y1.3031
X0.9067Y1.5591
X0.9067Y1.3031
X3.6232Y1.6996
X3.6232Y1.4437
X3.8004Y1.6996
X3.8004Y1.4437
X0.4382Y1.8504
X0.4382Y1.5945
X0.6154Y1.8504
X0.6154Y1.5945
X0.4382Y1.2638
X0.4382Y1.0079
X0.6154Y1.2638
X0.6154Y1.0079
X0.1469Y1.5591
X0.1469Y1.3031
X0.324Y1.5591
X0.324Y1.3031
X3.1461Y1.5996
X3.1461Y1.3437
X3.3232Y1.5996
X3.3232Y1.3437
T7
X1.2Y1.2
X1.2Y1.0
T8
X1.3898Y2.15
X1.3898Y0.1421
X2.6102Y2.15
X2.6102Y0.1421
T9
X0.0984Y2.2047
X0.0984Y0.0984
X3.7992Y2.2047
X3.7992Y0.0984
T0
M30
