%TF.GenerationSoftware,KiCad,Pcbnew,(5.1.6)-1*%
%TF.CreationDate,2020-07-05T00:12:07+01:00*%
%TF.ProjectId,tetris,74657472-6973-42e6-9b69-6361645f7063,rev?*%
%TF.SameCoordinates,PX26c1e00PY65bcec0*%
%TF.FileFunction,Copper,L1,Top*%
%TF.FilePolarity,Positive*%
%FSLAX46Y46*%
G04 Gerber Fmt 4.6, Leading zero omitted, Abs format (unit mm)*
G04 Created by KiCad (PCBNEW (5.1.6)-1) date 2020-07-05 00:12:07*
%MOMM*%
%LPD*%
G01*
G04 APERTURE LIST*
%TA.AperFunction,SMDPad,CuDef*%
%ADD10R,1.000000X0.800000*%
%TD*%
%TA.AperFunction,SMDPad,CuDef*%
%ADD11R,0.700000X1.500000*%
%TD*%
%TA.AperFunction,ComponentPad*%
%ADD12C,3.000000*%
%TD*%
%TA.AperFunction,ComponentPad*%
%ADD13C,1.524000*%
%TD*%
%TA.AperFunction,ComponentPad*%
%ADD14C,4.400000*%
%TD*%
%TA.AperFunction,ComponentPad*%
%ADD15C,2.000000*%
%TD*%
%TA.AperFunction,ComponentPad*%
%ADD16O,1.600000X1.600000*%
%TD*%
%TA.AperFunction,ComponentPad*%
%ADD17C,1.600000*%
%TD*%
%TA.AperFunction,ComponentPad*%
%ADD18C,2.600000*%
%TD*%
%TA.AperFunction,ComponentPad*%
%ADD19O,1.700000X1.700000*%
%TD*%
%TA.AperFunction,ComponentPad*%
%ADD20R,1.700000X1.700000*%
%TD*%
%TA.AperFunction,ComponentPad*%
%ADD21O,2.000000X2.000000*%
%TD*%
%TA.AperFunction,ComponentPad*%
%ADD22R,2.000000X2.000000*%
%TD*%
%TA.AperFunction,SMDPad,CuDef*%
%ADD23R,4.200000X2.000000*%
%TD*%
%TA.AperFunction,ComponentPad*%
%ADD24O,1.727200X1.727200*%
%TD*%
%TA.AperFunction,ComponentPad*%
%ADD25O,2.250000X1.727200*%
%TD*%
%TA.AperFunction,ComponentPad*%
%ADD26R,2.250000X1.727200*%
%TD*%
%TA.AperFunction,ViaPad*%
%ADD27C,0.800000*%
%TD*%
%TA.AperFunction,Conductor*%
%ADD28C,1.000000*%
%TD*%
%TA.AperFunction,Conductor*%
%ADD29C,0.200000*%
%TD*%
%TA.AperFunction,Conductor*%
%ADD30C,0.250000*%
%TD*%
%TA.AperFunction,Conductor*%
%ADD31C,0.254000*%
%TD*%
G04 APERTURE END LIST*
D10*
%TO.P,SW7,*%
%TO.N,*%
X13350000Y3030000D03*
X20650000Y3030000D03*
X20650000Y820000D03*
X13350000Y820000D03*
D11*
%TO.P,SW7,3*%
%TO.N,+BATT*%
X19250000Y3680000D03*
%TO.P,SW7,2*%
%TO.N,Net-(D1-Pad1)*%
X17750000Y3680000D03*
%TO.P,SW7,1*%
%TO.N,Net-(SW7-Pad1)*%
X14750000Y3680000D03*
%TD*%
D12*
%TO.P,U2,MOUNT*%
%TO.N,N/C*%
X35300000Y3610000D03*
X66300000Y3610000D03*
X35300000Y54610000D03*
X66300000Y54610000D03*
D13*
%TO.P,U2,1*%
%TO.N,+3V3*%
X41910000Y54610000D03*
%TO.P,U2,2*%
%TO.N,GND*%
X44450000Y54610000D03*
%TO.P,U2,3*%
%TO.N,/tft_sck*%
X46990000Y54610000D03*
%TO.P,U2,4*%
%TO.N,/tft_sda*%
X49530000Y54610000D03*
%TO.P,U2,5*%
%TO.N,/tft_reset*%
X52070000Y54610000D03*
%TO.P,U2,6*%
%TO.N,/tft_a0*%
X54610000Y54610000D03*
%TO.P,U2,7*%
%TO.N,/tft_cs*%
X57150000Y54610000D03*
%TO.P,U2,8*%
%TO.N,/tft_led*%
X59690000Y54610000D03*
%TD*%
D14*
%TO.P, ,1*%
%TO.N,N/C*%
X2500000Y56000000D03*
%TD*%
%TO.P, ,1*%
%TO.N,N/C*%
X96500000Y56000000D03*
%TD*%
%TO.P, ,1*%
%TO.N,N/C*%
X96500000Y2500000D03*
%TD*%
%TO.P, ,1*%
%TO.N,N/C*%
X2500000Y2500000D03*
%TD*%
D15*
%TO.P,U3,4*%
%TO.N,Net-(D1-Pad2)*%
X25950000Y17900000D03*
%TO.P,U3,3*%
X25950000Y21400000D03*
%TO.P,U3,5*%
%TO.N,Net-(J3-Pad2)*%
X25950000Y10900000D03*
%TO.P,U3,6*%
%TO.N,GND*%
X25950000Y7400000D03*
%TO.P,U3,1*%
%TO.N,Net-(D1-Pad1)*%
X3150000Y21400000D03*
%TO.P,U3,2*%
%TO.N,GND*%
X3150000Y7400000D03*
%TD*%
D16*
%TO.P,R7,2*%
%TO.N,+3V3*%
X30480000Y42545000D03*
D17*
%TO.P,R7,1*%
%TO.N,/SD_MISO*%
X30480000Y34925000D03*
%TD*%
D18*
%TO.P,J3,2*%
%TO.N,Net-(J3-Pad2)*%
X30480000Y25400000D03*
%TO.P,J3,1*%
%TO.N,Net-(D1-Pad2)*%
%TA.AperFunction,ComponentPad*%
G36*
G01*
X29830000Y31780000D02*
X31130000Y31780000D01*
G75*
G02*
X31780000Y31130000I0J-650000D01*
G01*
X31780000Y29830000D01*
G75*
G02*
X31130000Y29180000I-650000J0D01*
G01*
X29830000Y29180000D01*
G75*
G02*
X29180000Y29830000I0J650000D01*
G01*
X29180000Y31130000D01*
G75*
G02*
X29830000Y31780000I650000J0D01*
G01*
G37*
%TD.AperFunction*%
%TD*%
D19*
%TO.P,J2,2*%
%TO.N,Net-(J2-Pad2)*%
X30480000Y46990000D03*
D20*
%TO.P,J2,1*%
%TO.N,Net-(J2-Pad1)*%
X27940000Y46990000D03*
%TD*%
D21*
%TO.P,D1,2*%
%TO.N,Net-(D1-Pad2)*%
X25400000Y25400000D03*
D22*
%TO.P,D1,1*%
%TO.N,Net-(D1-Pad1)*%
X20320000Y25400000D03*
%TD*%
D23*
%TO.P,BZ1,2*%
%TO.N,GND*%
X81000000Y13780000D03*
%TO.P,BZ1,1*%
%TO.N,Net-(BZ1-Pad1)*%
X81000000Y21780000D03*
%TD*%
D24*
%TO.P,U1,42*%
%TO.N,Net-(U1-Pad42)*%
X79340000Y10109200D03*
%TO.P,U1,41*%
%TO.N,Net-(U1-Pad41)*%
X81880000Y10109200D03*
D25*
%TO.P,U1,40*%
%TO.N,+3V3*%
X88220000Y6248400D03*
%TO.P,U1,39*%
%TO.N,GND*%
X88220000Y8839200D03*
%TO.P,U1,38*%
%TO.N,+BATT*%
X88220000Y11379200D03*
%TO.P,U1,37*%
%TO.N,Net-(U1-Pad37)*%
X88220000Y13919200D03*
%TO.P,U1,36*%
%TO.N,Net-(U1-Pad36)*%
X88220000Y16459200D03*
%TO.P,U1,35*%
%TO.N,Net-(J2-Pad1)*%
X88220000Y18999200D03*
%TO.P,U1,34*%
%TO.N,Net-(J2-Pad2)*%
X88220000Y21539200D03*
%TO.P,U1,33*%
%TO.N,Net-(U1-Pad33)*%
X88220000Y24079200D03*
%TO.P,U1,32*%
%TO.N,Net-(U1-Pad32)*%
X88220000Y26619200D03*
%TO.P,U1,31*%
%TO.N,Net-(U1-Pad31)*%
X88220000Y29159200D03*
%TO.P,U1,30*%
%TO.N,Net-(U1-Pad30)*%
X88220000Y31699200D03*
%TO.P,U1,29*%
%TO.N,Net-(U1-Pad29)*%
X88220000Y34239200D03*
%TO.P,U1,28*%
%TO.N,Net-(U1-Pad28)*%
X88220000Y36779200D03*
%TO.P,U1,27*%
%TO.N,Net-(U1-Pad27)*%
X88220000Y39319200D03*
%TO.P,U1,26*%
%TO.N,Net-(U1-Pad26)*%
X88220000Y41859200D03*
%TO.P,U1,25*%
%TO.N,Net-(BZ1-Pad1)*%
X88220000Y44399200D03*
%TO.P,U1,24*%
%TO.N,/SD_MOSI*%
X88220000Y46939200D03*
%TO.P,U1,23*%
%TO.N,/SD_MISO*%
X88220000Y49479200D03*
%TO.P,U1,22*%
%TO.N,/SD_CLK*%
X88220000Y52019200D03*
%TO.P,U1,21*%
%TO.N,/SD_CS*%
X88220000Y54559200D03*
%TO.P,U1,20*%
%TO.N,GND*%
X72980000Y54559200D03*
%TO.P,U1,19*%
X72980000Y52019200D03*
%TO.P,U1,18*%
%TO.N,+3V3*%
X72980000Y49479200D03*
%TO.P,U1,17*%
%TO.N,Net-(U1-Pad17)*%
X72980000Y46939200D03*
%TO.P,U1,16*%
%TO.N,/tft_led*%
X72980000Y44399200D03*
%TO.P,U1,15*%
%TO.N,/tft_cs*%
X72980000Y41859200D03*
%TO.P,U1,14*%
%TO.N,/tft_reset*%
X72980000Y39319200D03*
%TO.P,U1,13*%
%TO.N,/tft_a0*%
X72980000Y36779200D03*
%TO.P,U1,12*%
%TO.N,/tft_sda*%
X72980000Y34239200D03*
%TO.P,U1,11*%
%TO.N,/sw_right*%
X72980000Y31699200D03*
%TO.P,U1,10*%
%TO.N,/tft_sck*%
X72980000Y29159200D03*
%TO.P,U1,9*%
%TO.N,/sw_up*%
X72980000Y26619200D03*
%TO.P,U1,8*%
%TO.N,/sw_left*%
X72980000Y24079200D03*
%TO.P,U1,7*%
%TO.N,/sw_down*%
X72980000Y21539200D03*
%TO.P,U1,6*%
%TO.N,/sw_b*%
X72980000Y18999200D03*
%TO.P,U1,5*%
%TO.N,/sw_a*%
X72980000Y16459200D03*
%TO.P,U1,4*%
%TO.N,Net-(U1-Pad4)*%
X72980000Y13919200D03*
%TO.P,U1,3*%
%TO.N,Net-(U1-Pad3)*%
X72980000Y11379200D03*
%TO.P,U1,2*%
%TO.N,Net-(U1-Pad2)*%
X72980000Y8839200D03*
D26*
%TO.P,U1,1*%
%TO.N,Net-(U1-Pad1)*%
X72980000Y6299200D03*
%TD*%
D17*
%TO.P,R6,1*%
%TO.N,/sw_b*%
X95250000Y30480000D03*
D16*
%TO.P,R6,2*%
%TO.N,GND*%
X95250000Y22860000D03*
%TD*%
D17*
%TO.P,R5,1*%
%TO.N,/sw_a*%
X95250000Y19050000D03*
D16*
%TO.P,R5,2*%
%TO.N,GND*%
X95250000Y11430000D03*
%TD*%
D15*
%TO.P,SW6,1*%
%TO.N,+3V3*%
X92030000Y43170000D03*
%TO.P,SW6,2*%
%TO.N,/sw_a*%
X96530000Y43170000D03*
%TO.P,SW6,1*%
%TO.N,+3V3*%
X92030000Y36670000D03*
%TO.P,SW6,2*%
%TO.N,/sw_a*%
X96530000Y36670000D03*
%TD*%
%TO.P,SW5,1*%
%TO.N,+3V3*%
X79910000Y40630000D03*
%TO.P,SW5,2*%
%TO.N,/sw_b*%
X84410000Y40630000D03*
%TO.P,SW5,1*%
%TO.N,+3V3*%
X79910000Y34130000D03*
%TO.P,SW5,2*%
%TO.N,/sw_b*%
X84410000Y34130000D03*
%TD*%
%TO.P,SW4,2*%
%TO.N,/sw_right*%
X23030000Y33100000D03*
%TO.P,SW4,1*%
%TO.N,+3V3*%
X18530000Y33100000D03*
%TO.P,SW4,2*%
%TO.N,/sw_right*%
X23030000Y39600000D03*
%TO.P,SW4,1*%
%TO.N,+3V3*%
X18530000Y39600000D03*
%TD*%
%TO.P,SW3,2*%
%TO.N,/sw_up*%
X15630000Y40500000D03*
%TO.P,SW3,1*%
%TO.N,+3V3*%
X11130000Y40500000D03*
%TO.P,SW3,2*%
%TO.N,/sw_up*%
X15630000Y47000000D03*
%TO.P,SW3,1*%
%TO.N,+3V3*%
X11130000Y47000000D03*
%TD*%
%TO.P,SW2,2*%
%TO.N,/sw_down*%
X15630000Y25600000D03*
%TO.P,SW2,1*%
%TO.N,+3V3*%
X11130000Y25600000D03*
%TO.P,SW2,2*%
%TO.N,/sw_down*%
X15630000Y32100000D03*
%TO.P,SW2,1*%
%TO.N,+3V3*%
X11130000Y32100000D03*
%TD*%
%TO.P,SW1,2*%
%TO.N,/sw_left*%
X8230000Y33100000D03*
%TO.P,SW1,1*%
%TO.N,+3V3*%
X3730000Y33100000D03*
%TO.P,SW1,2*%
%TO.N,/sw_left*%
X8230000Y39600000D03*
%TO.P,SW1,1*%
%TO.N,+3V3*%
X3730000Y39600000D03*
%TD*%
D17*
%TO.P,R4,1*%
%TO.N,/sw_up*%
X19050000Y50165000D03*
D16*
%TO.P,R4,2*%
%TO.N,GND*%
X19050000Y42545000D03*
%TD*%
D17*
%TO.P,R3,1*%
%TO.N,/sw_right*%
X22860000Y42545000D03*
D16*
%TO.P,R3,2*%
%TO.N,GND*%
X22860000Y50165000D03*
%TD*%
%TO.P,R2,2*%
%TO.N,GND*%
X3810000Y50165000D03*
D17*
%TO.P,R2,1*%
%TO.N,/sw_down*%
X3810000Y42545000D03*
%TD*%
%TO.P,R1,1*%
%TO.N,/sw_left*%
X7620000Y42545000D03*
D16*
%TO.P,R1,2*%
%TO.N,GND*%
X7620000Y50165000D03*
%TD*%
D27*
%TO.N,GND*%
X84500000Y14000000D03*
X19350000Y16000000D03*
X85000000Y2000000D03*
X90500000Y2000000D03*
X95500000Y7500000D03*
X77000000Y44500000D03*
X82500000Y48500000D03*
X95000000Y50000000D03*
X95000000Y47500000D03*
X45000000Y10000000D03*
X65000000Y10000000D03*
X48000000Y45000000D03*
X54000000Y45000000D03*
X65500000Y37000000D03*
X37000000Y49000000D03*
X11000000Y52000000D03*
X16000000Y52000000D03*
X5000000Y16000000D03*
X5000000Y11500000D03*
X12000000Y11500000D03*
X55000000Y10000000D03*
X65000000Y20000000D03*
X55000000Y20000000D03*
X45000000Y20000000D03*
X45000000Y30000000D03*
X61500000Y33500000D03*
X64500000Y30500000D03*
X80500000Y30500000D03*
X13000000Y28000000D03*
X21000000Y30500000D03*
X13500000Y36000000D03*
X26500000Y41500000D03*
X7500000Y28500000D03*
%TO.N,+3V3*%
X61000000Y44500000D03*
X79500000Y49500000D03*
X77000000Y21000000D03*
X77000000Y15000000D03*
X81000000Y6500000D03*
X28000000Y36000000D03*
X12000000Y22500000D03*
%TO.N,Net-(BZ1-Pad1)*%
X82500000Y42000000D03*
%TO.N,/SD_MISO*%
X67099180Y47048420D03*
X54500000Y33500000D03*
X35000000Y12000000D03*
%TO.N,/SD_CLK*%
X52500000Y33500000D03*
X35999087Y12970476D03*
X66300000Y45850000D03*
%TO.N,/SD_MOSI*%
X68500000Y47000000D03*
X54500000Y32000000D03*
X36030000Y13970000D03*
%TO.N,Net-(J2-Pad2)*%
X35500000Y41445000D03*
X74842140Y28000000D03*
%TO.N,Net-(J2-Pad1)*%
X34000000Y41445000D03*
X69000000Y28000000D03*
%TO.N,/SD_CS*%
X37500000Y14850000D03*
X51450000Y34100000D03*
X65200000Y46750000D03*
%TD*%
D28*
%TO.N,GND*%
X81000000Y13780000D02*
X84280000Y13780000D01*
X84280000Y13780000D02*
X84500000Y14000000D01*
D29*
%TO.N,/sw_right*%
X22860000Y39770000D02*
X23030000Y39600000D01*
X22860000Y42545000D02*
X22860000Y39770000D01*
X74808080Y31699200D02*
X72980000Y31699200D01*
X26040629Y36110629D02*
X26040629Y36649113D01*
X23030000Y33100000D02*
X26040629Y36110629D01*
X75542140Y30965140D02*
X74808080Y31699200D01*
X70575776Y20162810D02*
X74610250Y20162810D01*
X28492356Y39100840D02*
X51637746Y39100840D01*
X26040629Y36649113D02*
X28492356Y39100840D01*
X75542140Y21094700D02*
X75542140Y30965140D01*
X74610250Y20162810D02*
X75542140Y21094700D01*
X51637746Y39100840D02*
X70575776Y20162810D01*
%TO.N,/sw_up*%
X15630000Y47000000D02*
X15630000Y40500000D01*
X15630000Y40500000D02*
X15630000Y38736160D01*
X15630000Y38736160D02*
X16991370Y37374790D01*
X25069212Y37374790D02*
X27995291Y40300870D01*
X16991370Y37374790D02*
X25069212Y37374790D01*
X27995291Y40300870D02*
X36685809Y40300870D01*
X18795000Y50165000D02*
X19050000Y50165000D01*
X15630000Y47000000D02*
X18795000Y50165000D01*
X51903590Y40300870D02*
X52134811Y40300870D01*
X51903590Y40300870D02*
X52134810Y40300870D01*
X52134811Y40300870D02*
X65659001Y26776680D01*
X36685809Y40300870D02*
X51903590Y40300870D01*
X65659001Y26776680D02*
X70568820Y26776680D01*
D30*
X72822520Y26776680D02*
X72980000Y26619200D01*
X70568820Y26776680D02*
X72822520Y26776680D01*
D29*
%TO.N,+3V3*%
X3730000Y39600000D02*
X3730000Y33100000D01*
X3730000Y33100000D02*
X3730000Y29008060D01*
X7138060Y25600000D02*
X11130000Y25600000D01*
X3730000Y29008060D02*
X7138060Y25600000D01*
X11130000Y47000000D02*
X11130000Y40500000D01*
X30480000Y42545000D02*
X28455000Y42545000D01*
X28455000Y42545000D02*
X26500000Y44500000D01*
X21577000Y44500000D02*
X20500000Y43423000D01*
X26500000Y44500000D02*
X21577000Y44500000D01*
X20500000Y41570000D02*
X18530000Y39600000D01*
X20500000Y43423000D02*
X20500000Y41570000D01*
D28*
X61000000Y44500000D02*
X56000000Y49500000D01*
X56000000Y49500000D02*
X44000000Y49500000D01*
X41910000Y51590000D02*
X41910000Y54610000D01*
X44000000Y49500000D02*
X41910000Y51590000D01*
X44000000Y49500000D02*
X44000000Y46500000D01*
X40045000Y42545000D02*
X30480000Y42545000D01*
X44000000Y46500000D02*
X40045000Y42545000D01*
X79500000Y49500000D02*
X80000000Y49000000D01*
X80000000Y49000000D02*
X79910000Y48910000D01*
X79910000Y40630000D02*
X79910000Y34130000D01*
X79910000Y34130000D02*
X77000000Y31220000D01*
X77000000Y31220000D02*
X77000000Y21000000D01*
X77000000Y15000000D02*
X77000000Y9000000D01*
X77000000Y9000000D02*
X79500000Y6500000D01*
X79500000Y6500000D02*
X81000000Y6500000D01*
D29*
X80490000Y43170000D02*
X79910000Y42590000D01*
X92030000Y43170000D02*
X80490000Y43170000D01*
D28*
X79910000Y48910000D02*
X79910000Y42590000D01*
X79910000Y42590000D02*
X79910000Y40630000D01*
D29*
X92030000Y36670000D02*
X92030000Y43170000D01*
D28*
X12000000Y22500000D02*
X11130000Y23370000D01*
X18000000Y28000000D02*
X18000000Y23500000D01*
X18000000Y23500000D02*
X17000000Y22500000D01*
X26500000Y34500000D02*
X26500000Y31000000D01*
X17000000Y22500000D02*
X12000000Y22500000D01*
X26500000Y31000000D02*
X24000000Y28500000D01*
X11130000Y23370000D02*
X11130000Y25600000D01*
X28000000Y36000000D02*
X26500000Y34500000D01*
X24000000Y28500000D02*
X18500000Y28500000D01*
X18500000Y28500000D02*
X18000000Y28000000D01*
D29*
%TO.N,/sw_left*%
X7620000Y42545000D02*
X7660640Y42545000D01*
X8230000Y41975640D02*
X8230000Y39600000D01*
X7660640Y42545000D02*
X8230000Y41975640D01*
X8230000Y39600000D02*
X8230000Y33100000D01*
X28160980Y39900860D02*
X51969122Y39900860D01*
X12098020Y36974780D02*
X25234900Y36974780D01*
X8230000Y33100000D02*
X9229999Y34099999D01*
X9229999Y34106759D02*
X12098020Y36974780D01*
X9229999Y34099999D02*
X9229999Y34106759D01*
X25234900Y36974780D02*
X28160980Y39900860D01*
X51969122Y39900860D02*
X54261112Y37608871D01*
X54261112Y37608871D02*
X67696803Y24173180D01*
X67696803Y24173180D02*
X70210680Y24173180D01*
D30*
X72886020Y24173180D02*
X72980000Y24079200D01*
X70210680Y24173180D02*
X72886020Y24173180D01*
D29*
%TO.N,/sw_down*%
X13486760Y29956760D02*
X15630000Y32100000D01*
X5445760Y42545000D02*
X6212840Y41777920D01*
X3810000Y42545000D02*
X5445760Y42545000D01*
X6212840Y31877000D02*
X8133080Y29956760D01*
X6212840Y41777920D02*
X6212840Y31877000D01*
X8133080Y29956760D02*
X13486760Y29956760D01*
X15630000Y32100000D02*
X15630000Y25600000D01*
X69617764Y21686520D02*
X72832680Y21686520D01*
X51803434Y39500850D02*
X69617764Y21686520D01*
X15630000Y35054690D02*
X17150080Y36574770D01*
X72832680Y21686520D02*
X72980000Y21539200D01*
X15630000Y32100000D02*
X15630000Y35054690D01*
X17150080Y36574770D02*
X25400589Y36574770D01*
X25400589Y36574770D02*
X28326668Y39500850D01*
X28326668Y39500850D02*
X51803434Y39500850D01*
%TO.N,/tft_cs*%
X68492200Y41859200D02*
X57150000Y53201400D01*
X72980000Y41859200D02*
X68492200Y41859200D01*
X57150000Y53201400D02*
X57150000Y54610000D01*
%TO.N,/tft_reset*%
X55672001Y55119761D02*
X54911762Y55880000D01*
X72980000Y39319200D02*
X70840010Y41459190D01*
X55672001Y54113700D02*
X55672001Y55119761D01*
X53340000Y55880000D02*
X52070000Y54610000D01*
X70840010Y41459190D02*
X68326510Y41459190D01*
X54911762Y55880000D02*
X53340000Y55880000D01*
X68326510Y41459190D02*
X55672001Y54113700D01*
%TO.N,/tft_a0*%
X68700021Y41059179D02*
X72980000Y36779200D01*
X68160822Y41059179D02*
X68700021Y41059179D01*
X54610000Y54610000D02*
X68160822Y41059179D01*
%TO.N,/tft_sda*%
X64839302Y43815000D02*
X69850000Y38804302D01*
X64770000Y43815000D02*
X64839302Y43815000D01*
X49530000Y54610000D02*
X52470009Y51669991D01*
X69850000Y38804302D02*
X69850000Y36044200D01*
X59455009Y49129991D02*
X64770000Y43815000D01*
X69850000Y36044200D02*
X71655000Y34239200D01*
X52470009Y51669991D02*
X55714309Y51669991D01*
X58254309Y49129991D02*
X59455009Y49129991D01*
X71655000Y34239200D02*
X72980000Y34239200D01*
X55714309Y51669991D02*
X58254309Y49129991D01*
%TO.N,/tft_sck*%
X59220020Y48729980D02*
X68580000Y39370000D01*
X68580000Y39370000D02*
X68580000Y32234200D01*
X58088620Y48729980D02*
X59220020Y48729980D01*
X46990000Y54610000D02*
X50330020Y51269980D01*
X71655000Y29159200D02*
X72980000Y29159200D01*
X50330020Y51269980D02*
X55548620Y51269980D01*
X55548620Y51269980D02*
X58088620Y48729980D01*
X68580000Y32234200D02*
X71655000Y29159200D01*
%TO.N,/sw_b*%
X84410000Y33602207D02*
X84410000Y34130000D01*
X87532207Y30480000D02*
X84410000Y33602207D01*
X95250000Y30480000D02*
X87532207Y30480000D01*
X84410000Y34130000D02*
X84410000Y40630000D01*
X84410000Y34130000D02*
X84410000Y20910000D01*
X82499200Y18999200D02*
X72980000Y18999200D01*
X84410000Y20910000D02*
X82499200Y18999200D01*
%TO.N,/sw_a*%
X96530000Y43170000D02*
X96530000Y36670000D01*
X96530000Y36670000D02*
X96530000Y34280000D01*
X96530000Y34280000D02*
X97790000Y33020000D01*
X97790000Y21590000D02*
X95250000Y19050000D01*
X97790000Y33020000D02*
X97790000Y21590000D01*
X94035590Y17835590D02*
X85034410Y17835590D01*
X95250000Y19050000D02*
X94035590Y17835590D01*
X85034410Y17835590D02*
X83708820Y16510000D01*
X73030800Y16510000D02*
X72980000Y16459200D01*
X83708820Y16510000D02*
X73030800Y16510000D01*
%TO.N,Net-(BZ1-Pad1)*%
X81000000Y21780000D02*
X82500000Y23280000D01*
X82500000Y23280000D02*
X82500000Y42000000D01*
D28*
%TO.N,Net-(D1-Pad2)*%
X25400000Y21950000D02*
X25950000Y21400000D01*
X25400000Y25400000D02*
X25400000Y21950000D01*
X25400000Y25400000D02*
X28450000Y28450000D01*
X28450000Y28450000D02*
X30480000Y30480000D01*
X25950000Y21400000D02*
X25950000Y17900000D01*
%TO.N,+BATT*%
X19700000Y4900000D02*
X19250000Y4450000D01*
X24600000Y4900000D02*
X19700000Y4900000D01*
X28369700Y1130300D02*
X24600000Y4900000D01*
X88220000Y11379200D02*
X86189820Y11379200D01*
X19250000Y4450000D02*
X19250000Y3680000D01*
X78803500Y1130300D02*
X28369700Y1130300D01*
X84922360Y10111740D02*
X84922360Y7249160D01*
X86189820Y11379200D02*
X84922360Y10111740D01*
X84922360Y7249160D02*
X78803500Y1130300D01*
%TO.N,Net-(D1-Pad1)*%
X20320000Y25400000D02*
X20320000Y22651720D01*
X18018280Y20350000D02*
X6350000Y20350000D01*
X20320000Y22651720D02*
X18018280Y20350000D01*
X18018280Y20350000D02*
X18018280Y12370280D01*
D29*
%TO.N,/SD_MISO*%
X86895000Y49479200D02*
X85864700Y50509500D01*
X88220000Y49479200D02*
X86895000Y49479200D01*
X85864700Y50509500D02*
X85864700Y51191160D01*
X85864700Y51191160D02*
X84273060Y52782800D01*
X84273060Y52782800D02*
X76064440Y52782800D01*
X73924450Y50642810D02*
X70261190Y50642810D01*
X76064440Y52782800D02*
X73924450Y50642810D01*
X70261190Y50642810D02*
X70243700Y50660300D01*
X70243700Y50660300D02*
X68745100Y50660300D01*
X68745100Y50660300D02*
X67099180Y49014380D01*
X67099180Y49014380D02*
X67099180Y47048420D01*
X31555000Y36000000D02*
X30480000Y34925000D01*
X54500000Y33500000D02*
X52000000Y36000000D01*
X52000000Y36000000D02*
X31555000Y36000000D01*
X30480000Y34925000D02*
X33075000Y34925000D01*
X33075000Y34925000D02*
X35000000Y33000000D01*
X35000000Y33000000D02*
X35000000Y12000000D01*
%TO.N,/SD_CLK*%
X52500000Y33500000D02*
X52500000Y34368604D01*
X52500000Y34368604D02*
X51668624Y35199980D01*
X51668624Y35199980D02*
X46500000Y35199980D01*
X36265679Y35199980D02*
X35900010Y34834311D01*
X46500000Y35199980D02*
X36265679Y35199980D01*
X35900010Y34834311D02*
X35900010Y24500000D01*
X36066478Y12970476D02*
X35999087Y12970476D01*
X36730001Y13633999D02*
X36066478Y12970476D01*
X35900010Y24500000D02*
X36730001Y23670009D01*
X36730001Y23670009D02*
X36730001Y13633999D01*
X70002690Y53182810D02*
X66300000Y49480120D01*
X66300000Y49480120D02*
X66300000Y45850000D01*
X88220000Y52019200D02*
X87056390Y53182810D01*
X87056390Y53182810D02*
X70002690Y53182810D01*
%TO.N,/SD_MOSI*%
X88220000Y46939200D02*
X87391240Y46939200D01*
X85217000Y49113440D02*
X85217000Y51273162D01*
X87391240Y46939200D02*
X85217000Y49113440D01*
X85217000Y51273162D02*
X84107372Y52382790D01*
X84107372Y52382790D02*
X77935190Y52382790D01*
X77935190Y52382790D02*
X75892660Y50340260D01*
X73867990Y48315590D02*
X69184410Y48315590D01*
X75892660Y50340260D02*
X73867990Y48315590D01*
X69184410Y48315590D02*
X68500000Y47631180D01*
X68500000Y47631180D02*
X68500000Y47000000D01*
X53467151Y33967151D02*
X51834312Y35599990D01*
X53467151Y33032849D02*
X53467151Y33967151D01*
X51834312Y35599990D02*
X36000000Y35599990D01*
X36000000Y35599990D02*
X36000000Y35500000D01*
X36000000Y35500000D02*
X35400010Y34900010D01*
X35400010Y34900010D02*
X35500000Y34800020D01*
X35500000Y14500000D02*
X36030000Y13970000D01*
X35500000Y34800020D02*
X35500000Y14500000D01*
X54500000Y32000000D02*
X53467151Y33032849D01*
%TO.N,Net-(J2-Pad2)*%
X35500000Y41445000D02*
X57055000Y41445000D01*
X57055000Y41445000D02*
X70504410Y27995590D01*
X74837730Y27995590D02*
X74842140Y28000000D01*
X70504410Y27995590D02*
X74837730Y27995590D01*
%TO.N,Net-(J2-Pad1)*%
X69000000Y28000000D02*
X68467151Y28532849D01*
X68467151Y28532849D02*
X68467151Y29467151D01*
X68467151Y29467151D02*
X56934302Y41000000D01*
X34700001Y40744999D02*
X34000000Y41445000D01*
X36091002Y41000000D02*
X35836001Y40744999D01*
X35836001Y40744999D02*
X34700001Y40744999D01*
X56934302Y41000000D02*
X36091002Y41000000D01*
D28*
%TO.N,Net-(J3-Pad2)*%
X30480000Y15430000D02*
X25950000Y10900000D01*
X30480000Y25400000D02*
X30480000Y15430000D01*
D29*
%TO.N,/tft_led*%
X59690000Y51227100D02*
X66517900Y44399200D01*
X66517900Y44399200D02*
X72980000Y44399200D01*
X59690000Y54610000D02*
X59690000Y51227100D01*
%TO.N,/SD_CS*%
X37500000Y14850000D02*
X37500000Y15450000D01*
X37500000Y15450000D02*
X37250000Y15700000D01*
X37250000Y15700000D02*
X37250000Y23850000D01*
X37250000Y23850000D02*
X36400000Y24700000D01*
X36400000Y24700000D02*
X36400000Y34150000D01*
X36400000Y34150000D02*
X36700000Y34450000D01*
X36700000Y34450000D02*
X50550000Y34450000D01*
X50550000Y34450000D02*
X50900000Y34100000D01*
X50900000Y34100000D02*
X51450000Y34100000D01*
X65200000Y46750000D02*
X65750000Y47300000D01*
X65750000Y47300000D02*
X65750000Y49750000D01*
X65750000Y49750000D02*
X70250000Y54250000D01*
X70250000Y54250000D02*
X70250000Y55450000D01*
X87056390Y55722810D02*
X88220000Y54559200D01*
X70522810Y55722810D02*
X87056390Y55722810D01*
X70250000Y55450000D02*
X70522810Y55722810D01*
D28*
%TO.N,Net-(D1-Pad1)*%
X17750000Y12102000D02*
X18018280Y12370280D01*
X17750000Y3680000D02*
X17750000Y12102000D01*
X5300000Y21400000D02*
X6350000Y20350000D01*
X3150000Y21400000D02*
X5300000Y21400000D01*
%TD*%
D31*
%TO.N,GND*%
G36*
X94297912Y57807207D02*
G01*
X93987656Y57342876D01*
X93773948Y56826939D01*
X93665000Y56279223D01*
X93665000Y55720777D01*
X93773948Y55173061D01*
X93987656Y54657124D01*
X94297912Y54192793D01*
X94692793Y53797912D01*
X95157124Y53487656D01*
X95673061Y53273948D01*
X96220777Y53165000D01*
X96779223Y53165000D01*
X97326939Y53273948D01*
X97842876Y53487656D01*
X98307207Y53797912D01*
X98340000Y53830705D01*
X98340000Y33508409D01*
X98335253Y33514194D01*
X98335250Y33514197D01*
X98312237Y33542238D01*
X98284197Y33565250D01*
X97265000Y34584446D01*
X97265000Y35204736D01*
X97304463Y35221082D01*
X97572252Y35400013D01*
X97799987Y35627748D01*
X97978918Y35895537D01*
X98102168Y36193088D01*
X98165000Y36508967D01*
X98165000Y36831033D01*
X98102168Y37146912D01*
X97978918Y37444463D01*
X97799987Y37712252D01*
X97572252Y37939987D01*
X97304463Y38118918D01*
X97265000Y38135264D01*
X97265000Y41704736D01*
X97304463Y41721082D01*
X97572252Y41900013D01*
X97799987Y42127748D01*
X97978918Y42395537D01*
X98102168Y42693088D01*
X98165000Y43008967D01*
X98165000Y43331033D01*
X98102168Y43646912D01*
X97978918Y43944463D01*
X97799987Y44212252D01*
X97572252Y44439987D01*
X97304463Y44618918D01*
X97006912Y44742168D01*
X96691033Y44805000D01*
X96368967Y44805000D01*
X96053088Y44742168D01*
X95755537Y44618918D01*
X95487748Y44439987D01*
X95260013Y44212252D01*
X95081082Y43944463D01*
X94957832Y43646912D01*
X94895000Y43331033D01*
X94895000Y43008967D01*
X94957832Y42693088D01*
X95081082Y42395537D01*
X95260013Y42127748D01*
X95487748Y41900013D01*
X95755537Y41721082D01*
X95795000Y41704736D01*
X95795001Y38135264D01*
X95755537Y38118918D01*
X95487748Y37939987D01*
X95260013Y37712252D01*
X95081082Y37444463D01*
X94957832Y37146912D01*
X94895000Y36831033D01*
X94895000Y36508967D01*
X94957832Y36193088D01*
X95081082Y35895537D01*
X95260013Y35627748D01*
X95487748Y35400013D01*
X95755537Y35221082D01*
X95795001Y35204736D01*
X95795001Y34316115D01*
X95791444Y34280000D01*
X95805635Y34135915D01*
X95843759Y34010241D01*
X95847664Y33997367D01*
X95915914Y33869680D01*
X96007763Y33757762D01*
X96035808Y33734746D01*
X97055000Y32715553D01*
X97055001Y21894448D01*
X95603376Y20442822D01*
X95391335Y20485000D01*
X95108665Y20485000D01*
X94831426Y20429853D01*
X94570273Y20321680D01*
X94335241Y20164637D01*
X94135363Y19964759D01*
X93978320Y19729727D01*
X93870147Y19468574D01*
X93815000Y19191335D01*
X93815000Y18908665D01*
X93857178Y18696624D01*
X93731144Y18570590D01*
X89917415Y18570590D01*
X89958316Y18705423D01*
X89987251Y18999200D01*
X89958316Y19292977D01*
X89872625Y19575464D01*
X89733469Y19835806D01*
X89546197Y20063997D01*
X89318006Y20251269D01*
X89284460Y20269200D01*
X89318006Y20287131D01*
X89546197Y20474403D01*
X89733469Y20702594D01*
X89872625Y20962936D01*
X89958316Y21245423D01*
X89987251Y21539200D01*
X89958316Y21832977D01*
X89872625Y22115464D01*
X89733469Y22375806D01*
X89622551Y22510960D01*
X93858091Y22510960D01*
X93952930Y22246119D01*
X94097615Y22004869D01*
X94286586Y21796481D01*
X94512580Y21628963D01*
X94766913Y21508754D01*
X94900961Y21468096D01*
X95123000Y21590085D01*
X95123000Y22733000D01*
X95377000Y22733000D01*
X95377000Y21590085D01*
X95599039Y21468096D01*
X95733087Y21508754D01*
X95987420Y21628963D01*
X96213414Y21796481D01*
X96402385Y22004869D01*
X96547070Y22246119D01*
X96641909Y22510960D01*
X96520624Y22733000D01*
X95377000Y22733000D01*
X95123000Y22733000D01*
X93979376Y22733000D01*
X93858091Y22510960D01*
X89622551Y22510960D01*
X89546197Y22603997D01*
X89318006Y22791269D01*
X89284460Y22809200D01*
X89318006Y22827131D01*
X89546197Y23014403D01*
X89705931Y23209040D01*
X93858091Y23209040D01*
X93979376Y22987000D01*
X95123000Y22987000D01*
X95123000Y24129915D01*
X95377000Y24129915D01*
X95377000Y22987000D01*
X96520624Y22987000D01*
X96641909Y23209040D01*
X96547070Y23473881D01*
X96402385Y23715131D01*
X96213414Y23923519D01*
X95987420Y24091037D01*
X95733087Y24211246D01*
X95599039Y24251904D01*
X95377000Y24129915D01*
X95123000Y24129915D01*
X94900961Y24251904D01*
X94766913Y24211246D01*
X94512580Y24091037D01*
X94286586Y23923519D01*
X94097615Y23715131D01*
X93952930Y23473881D01*
X93858091Y23209040D01*
X89705931Y23209040D01*
X89733469Y23242594D01*
X89872625Y23502936D01*
X89958316Y23785423D01*
X89987251Y24079200D01*
X89958316Y24372977D01*
X89872625Y24655464D01*
X89733469Y24915806D01*
X89546197Y25143997D01*
X89318006Y25331269D01*
X89284460Y25349200D01*
X89318006Y25367131D01*
X89546197Y25554403D01*
X89733469Y25782594D01*
X89872625Y26042936D01*
X89958316Y26325423D01*
X89987251Y26619200D01*
X89958316Y26912977D01*
X89872625Y27195464D01*
X89733469Y27455806D01*
X89546197Y27683997D01*
X89318006Y27871269D01*
X89284460Y27889200D01*
X89318006Y27907131D01*
X89546197Y28094403D01*
X89733469Y28322594D01*
X89872625Y28582936D01*
X89958316Y28865423D01*
X89987251Y29159200D01*
X89958316Y29452977D01*
X89872625Y29735464D01*
X89867528Y29745000D01*
X94015252Y29745000D01*
X94135363Y29565241D01*
X94335241Y29365363D01*
X94570273Y29208320D01*
X94831426Y29100147D01*
X95108665Y29045000D01*
X95391335Y29045000D01*
X95668574Y29100147D01*
X95929727Y29208320D01*
X96164759Y29365363D01*
X96364637Y29565241D01*
X96521680Y29800273D01*
X96629853Y30061426D01*
X96685000Y30338665D01*
X96685000Y30621335D01*
X96629853Y30898574D01*
X96521680Y31159727D01*
X96364637Y31394759D01*
X96164759Y31594637D01*
X95929727Y31751680D01*
X95668574Y31859853D01*
X95391335Y31915000D01*
X95108665Y31915000D01*
X94831426Y31859853D01*
X94570273Y31751680D01*
X94335241Y31594637D01*
X94135363Y31394759D01*
X94015252Y31215000D01*
X89900552Y31215000D01*
X89958316Y31405423D01*
X89987251Y31699200D01*
X89958316Y31992977D01*
X89872625Y32275464D01*
X89733469Y32535806D01*
X89546197Y32763997D01*
X89318006Y32951269D01*
X89284460Y32969200D01*
X89318006Y32987131D01*
X89546197Y33174403D01*
X89733469Y33402594D01*
X89872625Y33662936D01*
X89958316Y33945423D01*
X89987251Y34239200D01*
X89958316Y34532977D01*
X89872625Y34815464D01*
X89733469Y35075806D01*
X89546197Y35303997D01*
X89318006Y35491269D01*
X89284460Y35509200D01*
X89318006Y35527131D01*
X89546197Y35714403D01*
X89733469Y35942594D01*
X89872625Y36202936D01*
X89958316Y36485423D01*
X89987251Y36779200D01*
X89958316Y37072977D01*
X89872625Y37355464D01*
X89733469Y37615806D01*
X89546197Y37843997D01*
X89318006Y38031269D01*
X89284460Y38049200D01*
X89318006Y38067131D01*
X89546197Y38254403D01*
X89733469Y38482594D01*
X89872625Y38742936D01*
X89958316Y39025423D01*
X89987251Y39319200D01*
X89958316Y39612977D01*
X89872625Y39895464D01*
X89733469Y40155806D01*
X89546197Y40383997D01*
X89318006Y40571269D01*
X89284460Y40589200D01*
X89318006Y40607131D01*
X89546197Y40794403D01*
X89733469Y41022594D01*
X89872625Y41282936D01*
X89958316Y41565423D01*
X89987251Y41859200D01*
X89958316Y42152977D01*
X89872766Y42435000D01*
X90564736Y42435000D01*
X90581082Y42395537D01*
X90760013Y42127748D01*
X90987748Y41900013D01*
X91255537Y41721082D01*
X91295001Y41704736D01*
X91295000Y38135264D01*
X91255537Y38118918D01*
X90987748Y37939987D01*
X90760013Y37712252D01*
X90581082Y37444463D01*
X90457832Y37146912D01*
X90395000Y36831033D01*
X90395000Y36508967D01*
X90457832Y36193088D01*
X90581082Y35895537D01*
X90760013Y35627748D01*
X90987748Y35400013D01*
X91255537Y35221082D01*
X91553088Y35097832D01*
X91868967Y35035000D01*
X92191033Y35035000D01*
X92506912Y35097832D01*
X92804463Y35221082D01*
X93072252Y35400013D01*
X93299987Y35627748D01*
X93478918Y35895537D01*
X93602168Y36193088D01*
X93665000Y36508967D01*
X93665000Y36831033D01*
X93602168Y37146912D01*
X93478918Y37444463D01*
X93299987Y37712252D01*
X93072252Y37939987D01*
X92804463Y38118918D01*
X92765000Y38135264D01*
X92765000Y41704736D01*
X92804463Y41721082D01*
X93072252Y41900013D01*
X93299987Y42127748D01*
X93478918Y42395537D01*
X93602168Y42693088D01*
X93665000Y43008967D01*
X93665000Y43331033D01*
X93602168Y43646912D01*
X93478918Y43944463D01*
X93299987Y44212252D01*
X93072252Y44439987D01*
X92804463Y44618918D01*
X92506912Y44742168D01*
X92191033Y44805000D01*
X91868967Y44805000D01*
X91553088Y44742168D01*
X91255537Y44618918D01*
X90987748Y44439987D01*
X90760013Y44212252D01*
X90581082Y43944463D01*
X90564736Y43905000D01*
X89897519Y43905000D01*
X89958316Y44105423D01*
X89987251Y44399200D01*
X89958316Y44692977D01*
X89872625Y44975464D01*
X89733469Y45235806D01*
X89546197Y45463997D01*
X89318006Y45651269D01*
X89284460Y45669200D01*
X89318006Y45687131D01*
X89546197Y45874403D01*
X89733469Y46102594D01*
X89872625Y46362936D01*
X89958316Y46645423D01*
X89987251Y46939200D01*
X89958316Y47232977D01*
X89872625Y47515464D01*
X89733469Y47775806D01*
X89546197Y48003997D01*
X89318006Y48191269D01*
X89284460Y48209200D01*
X89318006Y48227131D01*
X89546197Y48414403D01*
X89733469Y48642594D01*
X89872625Y48902936D01*
X89958316Y49185423D01*
X89987251Y49479200D01*
X89958316Y49772977D01*
X89872625Y50055464D01*
X89733469Y50315806D01*
X89546197Y50543997D01*
X89318006Y50731269D01*
X89284460Y50749200D01*
X89318006Y50767131D01*
X89546197Y50954403D01*
X89733469Y51182594D01*
X89872625Y51442936D01*
X89958316Y51725423D01*
X89987251Y52019200D01*
X89958316Y52312977D01*
X89872625Y52595464D01*
X89733469Y52855806D01*
X89546197Y53083997D01*
X89318006Y53271269D01*
X89284460Y53289200D01*
X89318006Y53307131D01*
X89546197Y53494403D01*
X89733469Y53722594D01*
X89872625Y53982936D01*
X89958316Y54265423D01*
X89987251Y54559200D01*
X89958316Y54852977D01*
X89872625Y55135464D01*
X89733469Y55395806D01*
X89546197Y55623997D01*
X89318006Y55811269D01*
X89057664Y55950425D01*
X88775177Y56036116D01*
X88555019Y56057800D01*
X87884981Y56057800D01*
X87771976Y56046670D01*
X87601648Y56216998D01*
X87578628Y56245048D01*
X87466710Y56336897D01*
X87339023Y56405147D01*
X87200475Y56447175D01*
X87092495Y56457810D01*
X87056390Y56461366D01*
X87020285Y56457810D01*
X70558915Y56457810D01*
X70522810Y56461366D01*
X70486705Y56457810D01*
X70378725Y56447175D01*
X70240177Y56405147D01*
X70112490Y56336897D01*
X70000572Y56245048D01*
X69977551Y56216997D01*
X69755808Y55995254D01*
X69727763Y55972238D01*
X69635914Y55860320D01*
X69577209Y55750491D01*
X69567664Y55732633D01*
X69525635Y55594085D01*
X69511444Y55450000D01*
X69515001Y55413885D01*
X69515000Y54554447D01*
X65255808Y50295254D01*
X65227763Y50272238D01*
X65135914Y50160320D01*
X65113602Y50118577D01*
X65067664Y50032633D01*
X65025635Y49894085D01*
X65011444Y49750000D01*
X65015001Y49713885D01*
X65015000Y47768478D01*
X64898102Y47745226D01*
X64709744Y47667205D01*
X64540226Y47553937D01*
X64471418Y47485129D01*
X60425000Y51531546D01*
X60425000Y53420955D01*
X60580535Y53524880D01*
X60775120Y53719465D01*
X60928005Y53948273D01*
X61033314Y54202510D01*
X61087000Y54472408D01*
X61087000Y54747592D01*
X61072542Y54820279D01*
X64165000Y54820279D01*
X64165000Y54399721D01*
X64247047Y53987244D01*
X64407988Y53598698D01*
X64641637Y53249017D01*
X64939017Y52951637D01*
X65288698Y52717988D01*
X65677244Y52557047D01*
X66089721Y52475000D01*
X66510279Y52475000D01*
X66922756Y52557047D01*
X67311302Y52717988D01*
X67660983Y52951637D01*
X67958363Y53249017D01*
X68192012Y53598698D01*
X68352953Y53987244D01*
X68435000Y54399721D01*
X68435000Y54820279D01*
X68352953Y55232756D01*
X68192012Y55621302D01*
X67958363Y55970983D01*
X67660983Y56268363D01*
X67311302Y56502012D01*
X66922756Y56662953D01*
X66510279Y56745000D01*
X66089721Y56745000D01*
X65677244Y56662953D01*
X65288698Y56502012D01*
X64939017Y56268363D01*
X64641637Y55970983D01*
X64407988Y55621302D01*
X64247047Y55232756D01*
X64165000Y54820279D01*
X61072542Y54820279D01*
X61033314Y55017490D01*
X60928005Y55271727D01*
X60775120Y55500535D01*
X60580535Y55695120D01*
X60351727Y55848005D01*
X60097490Y55953314D01*
X59827592Y56007000D01*
X59552408Y56007000D01*
X59282510Y55953314D01*
X59028273Y55848005D01*
X58799465Y55695120D01*
X58604880Y55500535D01*
X58451995Y55271727D01*
X58420000Y55194485D01*
X58388005Y55271727D01*
X58235120Y55500535D01*
X58040535Y55695120D01*
X57811727Y55848005D01*
X57557490Y55953314D01*
X57287592Y56007000D01*
X57012408Y56007000D01*
X56742510Y55953314D01*
X56488273Y55848005D01*
X56259465Y55695120D01*
X56199695Y55635350D01*
X56194239Y55641999D01*
X56166194Y55665015D01*
X55457020Y56374188D01*
X55434000Y56402238D01*
X55322082Y56494087D01*
X55194395Y56562337D01*
X55055847Y56604365D01*
X54947867Y56615000D01*
X54911762Y56618556D01*
X54875657Y56615000D01*
X53376094Y56615000D01*
X53339999Y56618555D01*
X53303904Y56615000D01*
X53303895Y56615000D01*
X53195915Y56604365D01*
X53057367Y56562337D01*
X52929680Y56494087D01*
X52817762Y56402238D01*
X52794746Y56374193D01*
X52391059Y55970506D01*
X52207592Y56007000D01*
X51932408Y56007000D01*
X51662510Y55953314D01*
X51408273Y55848005D01*
X51179465Y55695120D01*
X50984880Y55500535D01*
X50831995Y55271727D01*
X50800000Y55194485D01*
X50768005Y55271727D01*
X50615120Y55500535D01*
X50420535Y55695120D01*
X50191727Y55848005D01*
X49937490Y55953314D01*
X49667592Y56007000D01*
X49392408Y56007000D01*
X49122510Y55953314D01*
X48868273Y55848005D01*
X48639465Y55695120D01*
X48444880Y55500535D01*
X48291995Y55271727D01*
X48260000Y55194485D01*
X48228005Y55271727D01*
X48075120Y55500535D01*
X47880535Y55695120D01*
X47651727Y55848005D01*
X47397490Y55953314D01*
X47127592Y56007000D01*
X46852408Y56007000D01*
X46582510Y55953314D01*
X46328273Y55848005D01*
X46099465Y55695120D01*
X45904880Y55500535D01*
X45751995Y55271727D01*
X45722308Y55200057D01*
X45717636Y55213023D01*
X45655656Y55328980D01*
X45415565Y55395960D01*
X44629605Y54610000D01*
X45415565Y53824040D01*
X45655656Y53891020D01*
X45719485Y54026760D01*
X45751995Y53948273D01*
X45904880Y53719465D01*
X46099465Y53524880D01*
X46328273Y53371995D01*
X46582510Y53266686D01*
X46852408Y53213000D01*
X47127592Y53213000D01*
X47311060Y53249494D01*
X49784766Y50775787D01*
X49807782Y50747742D01*
X49860031Y50704862D01*
X49919700Y50655893D01*
X49958788Y50635000D01*
X44470132Y50635000D01*
X43045000Y52060131D01*
X43045000Y53644435D01*
X43664040Y53644435D01*
X43731020Y53404344D01*
X43980048Y53287244D01*
X44247135Y53220977D01*
X44522017Y53208090D01*
X44794133Y53249078D01*
X45053023Y53342364D01*
X45168980Y53404344D01*
X45235960Y53644435D01*
X44450000Y54430395D01*
X43664040Y53644435D01*
X43045000Y53644435D01*
X43045000Y53794116D01*
X43148005Y53948273D01*
X43177692Y54019943D01*
X43182364Y54006977D01*
X43244344Y53891020D01*
X43484435Y53824040D01*
X44270395Y54610000D01*
X43484435Y55395960D01*
X43244344Y55328980D01*
X43180515Y55193240D01*
X43148005Y55271727D01*
X42995120Y55500535D01*
X42920090Y55575565D01*
X43664040Y55575565D01*
X44450000Y54789605D01*
X45235960Y55575565D01*
X45168980Y55815656D01*
X44919952Y55932756D01*
X44652865Y55999023D01*
X44377983Y56011910D01*
X44105867Y55970922D01*
X43846977Y55877636D01*
X43731020Y55815656D01*
X43664040Y55575565D01*
X42920090Y55575565D01*
X42800535Y55695120D01*
X42571727Y55848005D01*
X42317490Y55953314D01*
X42047592Y56007000D01*
X41772408Y56007000D01*
X41502510Y55953314D01*
X41248273Y55848005D01*
X41019465Y55695120D01*
X40824880Y55500535D01*
X40671995Y55271727D01*
X40566686Y55017490D01*
X40513000Y54747592D01*
X40513000Y54472408D01*
X40566686Y54202510D01*
X40671995Y53948273D01*
X40775001Y53794114D01*
X40775000Y51645752D01*
X40769509Y51590000D01*
X40775000Y51534249D01*
X40791423Y51367502D01*
X40856324Y51153554D01*
X40961716Y50956377D01*
X41103551Y50783551D01*
X41146865Y50748004D01*
X42865000Y49029868D01*
X42865001Y46970134D01*
X39574869Y43680000D01*
X31364284Y43680000D01*
X31159727Y43816680D01*
X30898574Y43924853D01*
X30621335Y43980000D01*
X30338665Y43980000D01*
X30061426Y43924853D01*
X29800273Y43816680D01*
X29565241Y43659637D01*
X29365363Y43459759D01*
X29245252Y43280000D01*
X28759447Y43280000D01*
X27045258Y44994188D01*
X27022238Y45022238D01*
X26910320Y45114087D01*
X26782633Y45182337D01*
X26644085Y45224365D01*
X26536105Y45235000D01*
X26500000Y45238556D01*
X26463895Y45235000D01*
X21613104Y45235000D01*
X21576999Y45238556D01*
X21432914Y45224365D01*
X21390886Y45211616D01*
X21294367Y45182337D01*
X21166680Y45114087D01*
X21054762Y45022238D01*
X21031746Y44994193D01*
X20005808Y43968254D01*
X19977762Y43945237D01*
X19885913Y43833319D01*
X19836034Y43740002D01*
X19787420Y43776037D01*
X19533087Y43896246D01*
X19399039Y43936904D01*
X19177000Y43814915D01*
X19177000Y42672000D01*
X19197000Y42672000D01*
X19197000Y42418000D01*
X19177000Y42418000D01*
X19177000Y42398000D01*
X18923000Y42398000D01*
X18923000Y42418000D01*
X17779376Y42418000D01*
X17658091Y42195960D01*
X17752930Y41931119D01*
X17897615Y41689869D01*
X18086586Y41481481D01*
X18312580Y41313963D01*
X18479646Y41235000D01*
X18368967Y41235000D01*
X18053088Y41172168D01*
X17755537Y41048918D01*
X17487748Y40869987D01*
X17265000Y40647239D01*
X17265000Y40661033D01*
X17202168Y40976912D01*
X17078918Y41274463D01*
X16899987Y41542252D01*
X16672252Y41769987D01*
X16404463Y41948918D01*
X16365000Y41965264D01*
X16365000Y42894040D01*
X17658091Y42894040D01*
X17779376Y42672000D01*
X18923000Y42672000D01*
X18923000Y43814915D01*
X18700961Y43936904D01*
X18566913Y43896246D01*
X18312580Y43776037D01*
X18086586Y43608519D01*
X17897615Y43400131D01*
X17752930Y43158881D01*
X17658091Y42894040D01*
X16365000Y42894040D01*
X16365000Y45534736D01*
X16404463Y45551082D01*
X16672252Y45730013D01*
X16899987Y45957748D01*
X17078918Y46225537D01*
X17202168Y46523088D01*
X17265000Y46838967D01*
X17265000Y47161033D01*
X17202168Y47476912D01*
X17185822Y47516375D01*
X17509447Y47840000D01*
X26451928Y47840000D01*
X26451928Y46140000D01*
X26464188Y46015518D01*
X26500498Y45895820D01*
X26559463Y45785506D01*
X26638815Y45688815D01*
X26735506Y45609463D01*
X26845820Y45550498D01*
X26965518Y45514188D01*
X27090000Y45501928D01*
X28790000Y45501928D01*
X28914482Y45514188D01*
X29034180Y45550498D01*
X29144494Y45609463D01*
X29241185Y45688815D01*
X29320537Y45785506D01*
X29379502Y45895820D01*
X29401513Y45968380D01*
X29533368Y45836525D01*
X29776589Y45674010D01*
X30046842Y45562068D01*
X30333740Y45505000D01*
X30626260Y45505000D01*
X30913158Y45562068D01*
X31183411Y45674010D01*
X31426632Y45836525D01*
X31633475Y46043368D01*
X31795990Y46286589D01*
X31907932Y46556842D01*
X31965000Y46843740D01*
X31965000Y47136260D01*
X31907932Y47423158D01*
X31795990Y47693411D01*
X31633475Y47936632D01*
X31426632Y48143475D01*
X31183411Y48305990D01*
X30913158Y48417932D01*
X30626260Y48475000D01*
X30333740Y48475000D01*
X30046842Y48417932D01*
X29776589Y48305990D01*
X29533368Y48143475D01*
X29401513Y48011620D01*
X29379502Y48084180D01*
X29320537Y48194494D01*
X29241185Y48291185D01*
X29144494Y48370537D01*
X29034180Y48429502D01*
X28914482Y48465812D01*
X28790000Y48478072D01*
X27090000Y48478072D01*
X26965518Y48465812D01*
X26845820Y48429502D01*
X26735506Y48370537D01*
X26638815Y48291185D01*
X26559463Y48194494D01*
X26500498Y48084180D01*
X26464188Y47964482D01*
X26451928Y47840000D01*
X17509447Y47840000D01*
X18506387Y48836940D01*
X18631426Y48785147D01*
X18908665Y48730000D01*
X19191335Y48730000D01*
X19468574Y48785147D01*
X19729727Y48893320D01*
X19964759Y49050363D01*
X20164637Y49250241D01*
X20321680Y49485273D01*
X20429853Y49746426D01*
X20443684Y49815960D01*
X21468091Y49815960D01*
X21562930Y49551119D01*
X21707615Y49309869D01*
X21896586Y49101481D01*
X22122580Y48933963D01*
X22376913Y48813754D01*
X22510961Y48773096D01*
X22733000Y48895085D01*
X22733000Y50038000D01*
X22987000Y50038000D01*
X22987000Y48895085D01*
X23209039Y48773096D01*
X23343087Y48813754D01*
X23597420Y48933963D01*
X23823414Y49101481D01*
X24012385Y49309869D01*
X24157070Y49551119D01*
X24251909Y49815960D01*
X24130624Y50038000D01*
X22987000Y50038000D01*
X22733000Y50038000D01*
X21589376Y50038000D01*
X21468091Y49815960D01*
X20443684Y49815960D01*
X20485000Y50023665D01*
X20485000Y50306335D01*
X20443685Y50514040D01*
X21468091Y50514040D01*
X21589376Y50292000D01*
X22733000Y50292000D01*
X22733000Y51434915D01*
X22987000Y51434915D01*
X22987000Y50292000D01*
X24130624Y50292000D01*
X24251909Y50514040D01*
X24157070Y50778881D01*
X24012385Y51020131D01*
X23823414Y51228519D01*
X23597420Y51396037D01*
X23343087Y51516246D01*
X23209039Y51556904D01*
X22987000Y51434915D01*
X22733000Y51434915D01*
X22510961Y51556904D01*
X22376913Y51516246D01*
X22122580Y51396037D01*
X21896586Y51228519D01*
X21707615Y51020131D01*
X21562930Y50778881D01*
X21468091Y50514040D01*
X20443685Y50514040D01*
X20429853Y50583574D01*
X20321680Y50844727D01*
X20164637Y51079759D01*
X19964759Y51279637D01*
X19729727Y51436680D01*
X19468574Y51544853D01*
X19191335Y51600000D01*
X18908665Y51600000D01*
X18631426Y51544853D01*
X18370273Y51436680D01*
X18135241Y51279637D01*
X17935363Y51079759D01*
X17778320Y50844727D01*
X17670147Y50583574D01*
X17615000Y50306335D01*
X17615000Y50024447D01*
X16146375Y48555822D01*
X16106912Y48572168D01*
X15791033Y48635000D01*
X15468967Y48635000D01*
X15153088Y48572168D01*
X14855537Y48448918D01*
X14587748Y48269987D01*
X14360013Y48042252D01*
X14181082Y47774463D01*
X14057832Y47476912D01*
X13995000Y47161033D01*
X13995000Y46838967D01*
X14057832Y46523088D01*
X14181082Y46225537D01*
X14360013Y45957748D01*
X14587748Y45730013D01*
X14855537Y45551082D01*
X14895000Y45534736D01*
X14895001Y41965264D01*
X14855537Y41948918D01*
X14587748Y41769987D01*
X14360013Y41542252D01*
X14181082Y41274463D01*
X14057832Y40976912D01*
X13995000Y40661033D01*
X13995000Y40338967D01*
X14057832Y40023088D01*
X14181082Y39725537D01*
X14360013Y39457748D01*
X14587748Y39230013D01*
X14855537Y39051082D01*
X14895001Y39034736D01*
X14895001Y38772275D01*
X14891444Y38736160D01*
X14905635Y38592075D01*
X14947664Y38453527D01*
X15015914Y38325840D01*
X15107763Y38213922D01*
X15135808Y38190906D01*
X15616934Y37709780D01*
X12134114Y37709780D01*
X12098019Y37713335D01*
X12061924Y37709780D01*
X12061915Y37709780D01*
X11953935Y37699145D01*
X11815387Y37657117D01*
X11687700Y37588867D01*
X11575782Y37497018D01*
X11552766Y37468973D01*
X8965000Y34881206D01*
X8965000Y38134736D01*
X9004463Y38151082D01*
X9272252Y38330013D01*
X9499987Y38557748D01*
X9678918Y38825537D01*
X9802168Y39123088D01*
X9865000Y39438967D01*
X9865000Y39452761D01*
X10087748Y39230013D01*
X10355537Y39051082D01*
X10653088Y38927832D01*
X10968967Y38865000D01*
X11291033Y38865000D01*
X11606912Y38927832D01*
X11904463Y39051082D01*
X12172252Y39230013D01*
X12399987Y39457748D01*
X12578918Y39725537D01*
X12702168Y40023088D01*
X12765000Y40338967D01*
X12765000Y40661033D01*
X12702168Y40976912D01*
X12578918Y41274463D01*
X12399987Y41542252D01*
X12172252Y41769987D01*
X11904463Y41948918D01*
X11865000Y41965264D01*
X11865000Y45534736D01*
X11904463Y45551082D01*
X12172252Y45730013D01*
X12399987Y45957748D01*
X12578918Y46225537D01*
X12702168Y46523088D01*
X12765000Y46838967D01*
X12765000Y47161033D01*
X12702168Y47476912D01*
X12578918Y47774463D01*
X12399987Y48042252D01*
X12172252Y48269987D01*
X11904463Y48448918D01*
X11606912Y48572168D01*
X11291033Y48635000D01*
X10968967Y48635000D01*
X10653088Y48572168D01*
X10355537Y48448918D01*
X10087748Y48269987D01*
X9860013Y48042252D01*
X9681082Y47774463D01*
X9557832Y47476912D01*
X9495000Y47161033D01*
X9495000Y46838967D01*
X9557832Y46523088D01*
X9681082Y46225537D01*
X9860013Y45957748D01*
X10087748Y45730013D01*
X10355537Y45551082D01*
X10395000Y45534736D01*
X10395001Y41965264D01*
X10355537Y41948918D01*
X10087748Y41769987D01*
X9860013Y41542252D01*
X9681082Y41274463D01*
X9557832Y40976912D01*
X9495000Y40661033D01*
X9495000Y40647239D01*
X9272252Y40869987D01*
X9004463Y41048918D01*
X8965000Y41065264D01*
X8965000Y41939535D01*
X8968556Y41975640D01*
X8962570Y42036417D01*
X8999853Y42126426D01*
X9055000Y42403665D01*
X9055000Y42686335D01*
X8999853Y42963574D01*
X8891680Y43224727D01*
X8734637Y43459759D01*
X8534759Y43659637D01*
X8299727Y43816680D01*
X8038574Y43924853D01*
X7761335Y43980000D01*
X7478665Y43980000D01*
X7201426Y43924853D01*
X6940273Y43816680D01*
X6705241Y43659637D01*
X6505363Y43459759D01*
X6348320Y43224727D01*
X6240147Y42963574D01*
X6211359Y42818848D01*
X5991018Y43039188D01*
X5967998Y43067238D01*
X5856080Y43159087D01*
X5728393Y43227337D01*
X5589845Y43269365D01*
X5481865Y43280000D01*
X5445760Y43283556D01*
X5409655Y43280000D01*
X5044748Y43280000D01*
X4924637Y43459759D01*
X4724759Y43659637D01*
X4489727Y43816680D01*
X4228574Y43924853D01*
X3951335Y43980000D01*
X3668665Y43980000D01*
X3391426Y43924853D01*
X3130273Y43816680D01*
X2895241Y43659637D01*
X2695363Y43459759D01*
X2538320Y43224727D01*
X2430147Y42963574D01*
X2375000Y42686335D01*
X2375000Y42403665D01*
X2430147Y42126426D01*
X2538320Y41865273D01*
X2695363Y41630241D01*
X2895241Y41430363D01*
X3130273Y41273320D01*
X3335095Y41188480D01*
X3253088Y41172168D01*
X2955537Y41048918D01*
X2687748Y40869987D01*
X2460013Y40642252D01*
X2281082Y40374463D01*
X2157832Y40076912D01*
X2095000Y39761033D01*
X2095000Y39438967D01*
X2157832Y39123088D01*
X2281082Y38825537D01*
X2460013Y38557748D01*
X2687748Y38330013D01*
X2955537Y38151082D01*
X2995000Y38134736D01*
X2995001Y34565264D01*
X2955537Y34548918D01*
X2687748Y34369987D01*
X2460013Y34142252D01*
X2281082Y33874463D01*
X2157832Y33576912D01*
X2095000Y33261033D01*
X2095000Y32938967D01*
X2157832Y32623088D01*
X2281082Y32325537D01*
X2460013Y32057748D01*
X2687748Y31830013D01*
X2955537Y31651082D01*
X2995000Y31634736D01*
X2995001Y29044175D01*
X2991444Y29008060D01*
X3005635Y28863975D01*
X3042398Y28742787D01*
X3047664Y28725427D01*
X3115914Y28597740D01*
X3207763Y28485822D01*
X3235808Y28462806D01*
X6592806Y25105807D01*
X6615822Y25077762D01*
X6643866Y25054747D01*
X6727740Y24985913D01*
X6855426Y24917663D01*
X6993975Y24875635D01*
X7138060Y24861444D01*
X7174165Y24865000D01*
X9664736Y24865000D01*
X9681082Y24825537D01*
X9860013Y24557748D01*
X9995000Y24422761D01*
X9995000Y23425752D01*
X9989509Y23370000D01*
X9995000Y23314249D01*
X10011423Y23147502D01*
X10076324Y22933554D01*
X10181716Y22736377D01*
X10323551Y22563551D01*
X10366864Y22528005D01*
X11158008Y21736860D01*
X11193551Y21693551D01*
X11319729Y21589999D01*
X11366377Y21551716D01*
X11491195Y21485000D01*
X6820132Y21485000D01*
X6141996Y22163136D01*
X6106449Y22206449D01*
X5933623Y22348284D01*
X5736447Y22453676D01*
X5522499Y22518577D01*
X5355752Y22535000D01*
X5355751Y22535000D01*
X5300000Y22540491D01*
X5244249Y22535000D01*
X4327239Y22535000D01*
X4192252Y22669987D01*
X3924463Y22848918D01*
X3626912Y22972168D01*
X3311033Y23035000D01*
X2988967Y23035000D01*
X2673088Y22972168D01*
X2375537Y22848918D01*
X2107748Y22669987D01*
X1880013Y22442252D01*
X1701082Y22174463D01*
X1577832Y21876912D01*
X1515000Y21561033D01*
X1515000Y21238967D01*
X1577832Y20923088D01*
X1701082Y20625537D01*
X1880013Y20357748D01*
X2107748Y20130013D01*
X2375537Y19951082D01*
X2673088Y19827832D01*
X2988967Y19765000D01*
X3311033Y19765000D01*
X3626912Y19827832D01*
X3924463Y19951082D01*
X4192252Y20130013D01*
X4327239Y20265000D01*
X4829869Y20265000D01*
X5508008Y19586860D01*
X5543551Y19543551D01*
X5716377Y19401716D01*
X5913553Y19296324D01*
X6127501Y19231423D01*
X6294248Y19215000D01*
X6294257Y19215000D01*
X6349999Y19209510D01*
X6405741Y19215000D01*
X16883280Y19215000D01*
X16883281Y12835009D01*
X16801717Y12735623D01*
X16765881Y12668578D01*
X16696324Y12538446D01*
X16631423Y12324498D01*
X16609509Y12102000D01*
X16615001Y12046239D01*
X16615000Y3624249D01*
X16631423Y3457502D01*
X16696324Y3243554D01*
X16761928Y3120816D01*
X16761928Y2930000D01*
X16774188Y2805518D01*
X16810498Y2685820D01*
X16869463Y2575506D01*
X16948815Y2478815D01*
X17045506Y2399463D01*
X17155820Y2340498D01*
X17275518Y2304188D01*
X17400000Y2291928D01*
X17479662Y2291928D01*
X17456696Y2236483D01*
X17415000Y2026863D01*
X17415000Y1813137D01*
X17456696Y1603517D01*
X17538485Y1406060D01*
X17657225Y1228353D01*
X17808353Y1077225D01*
X17986060Y958485D01*
X18183517Y876696D01*
X18393137Y835000D01*
X18606863Y835000D01*
X18816483Y876696D01*
X19013940Y958485D01*
X19191647Y1077225D01*
X19342775Y1228353D01*
X19461515Y1406060D01*
X19543304Y1603517D01*
X19585000Y1813137D01*
X19585000Y2026863D01*
X19543304Y2236483D01*
X19520338Y2291928D01*
X19600000Y2291928D01*
X19610151Y2292928D01*
X19619463Y2275506D01*
X19698815Y2178815D01*
X19795506Y2099463D01*
X19905820Y2040498D01*
X20025518Y2004188D01*
X20150000Y1991928D01*
X21150000Y1991928D01*
X21274482Y2004188D01*
X21394180Y2040498D01*
X21504494Y2099463D01*
X21601185Y2178815D01*
X21680537Y2275506D01*
X21739502Y2385820D01*
X21775812Y2505518D01*
X21788072Y2630000D01*
X21788072Y3430000D01*
X21775812Y3554482D01*
X21739502Y3674180D01*
X21690957Y3765000D01*
X24129869Y3765000D01*
X27234868Y660000D01*
X21788072Y660000D01*
X21788072Y1220000D01*
X21775812Y1344482D01*
X21739502Y1464180D01*
X21680537Y1574494D01*
X21601185Y1671185D01*
X21504494Y1750537D01*
X21394180Y1809502D01*
X21274482Y1845812D01*
X21150000Y1858072D01*
X20150000Y1858072D01*
X20025518Y1845812D01*
X19905820Y1809502D01*
X19795506Y1750537D01*
X19698815Y1671185D01*
X19619463Y1574494D01*
X19560498Y1464180D01*
X19524188Y1344482D01*
X19511928Y1220000D01*
X19511928Y660000D01*
X14488072Y660000D01*
X14488072Y1220000D01*
X14475812Y1344482D01*
X14439502Y1464180D01*
X14380537Y1574494D01*
X14301185Y1671185D01*
X14204494Y1750537D01*
X14094180Y1809502D01*
X13974482Y1845812D01*
X13850000Y1858072D01*
X12850000Y1858072D01*
X12725518Y1845812D01*
X12605820Y1809502D01*
X12495506Y1750537D01*
X12398815Y1671185D01*
X12319463Y1574494D01*
X12260498Y1464180D01*
X12224188Y1344482D01*
X12211928Y1220000D01*
X12211928Y660000D01*
X4669295Y660000D01*
X4702088Y692793D01*
X5012344Y1157124D01*
X5226052Y1673061D01*
X5335000Y2220777D01*
X5335000Y2779223D01*
X5226052Y3326939D01*
X5183363Y3430000D01*
X12211928Y3430000D01*
X12211928Y2630000D01*
X12224188Y2505518D01*
X12260498Y2385820D01*
X12319463Y2275506D01*
X12398815Y2178815D01*
X12495506Y2099463D01*
X12605820Y2040498D01*
X12725518Y2004188D01*
X12850000Y1991928D01*
X13850000Y1991928D01*
X13974482Y2004188D01*
X14094180Y2040498D01*
X14204494Y2099463D01*
X14301185Y2178815D01*
X14380537Y2275506D01*
X14389849Y2292928D01*
X14400000Y2291928D01*
X14479662Y2291928D01*
X14456696Y2236483D01*
X14415000Y2026863D01*
X14415000Y1813137D01*
X14456696Y1603517D01*
X14538485Y1406060D01*
X14657225Y1228353D01*
X14808353Y1077225D01*
X14986060Y958485D01*
X15183517Y876696D01*
X15393137Y835000D01*
X15606863Y835000D01*
X15816483Y876696D01*
X16013940Y958485D01*
X16191647Y1077225D01*
X16342775Y1228353D01*
X16461515Y1406060D01*
X16543304Y1603517D01*
X16585000Y1813137D01*
X16585000Y2026863D01*
X16543304Y2236483D01*
X16461515Y2433940D01*
X16342775Y2611647D01*
X16191647Y2762775D01*
X16013940Y2881515D01*
X15816483Y2963304D01*
X15738072Y2978901D01*
X15738072Y4430000D01*
X15725812Y4554482D01*
X15689502Y4674180D01*
X15630537Y4784494D01*
X15551185Y4881185D01*
X15454494Y4960537D01*
X15344180Y5019502D01*
X15224482Y5055812D01*
X15100000Y5068072D01*
X14400000Y5068072D01*
X14275518Y5055812D01*
X14155820Y5019502D01*
X14045506Y4960537D01*
X13948815Y4881185D01*
X13869463Y4784494D01*
X13810498Y4674180D01*
X13774188Y4554482D01*
X13761928Y4430000D01*
X13761928Y4068072D01*
X12850000Y4068072D01*
X12725518Y4055812D01*
X12605820Y4019502D01*
X12495506Y3960537D01*
X12398815Y3881185D01*
X12319463Y3784494D01*
X12260498Y3674180D01*
X12224188Y3554482D01*
X12211928Y3430000D01*
X5183363Y3430000D01*
X5012344Y3842876D01*
X4702088Y4307207D01*
X4307207Y4702088D01*
X3842876Y5012344D01*
X3326939Y5226052D01*
X2779223Y5335000D01*
X2220777Y5335000D01*
X1673061Y5226052D01*
X1157124Y5012344D01*
X692793Y4702088D01*
X660000Y4669295D01*
X660000Y6264587D01*
X2194192Y6264587D01*
X2289956Y6000186D01*
X2579571Y5859296D01*
X2891108Y5777616D01*
X3212595Y5758282D01*
X3531675Y5802039D01*
X3836088Y5907205D01*
X4010044Y6000186D01*
X4105808Y6264587D01*
X3150000Y7220395D01*
X2194192Y6264587D01*
X660000Y6264587D01*
X660000Y7337405D01*
X1508282Y7337405D01*
X1552039Y7018325D01*
X1657205Y6713912D01*
X1750186Y6539956D01*
X2014587Y6444192D01*
X2970395Y7400000D01*
X3329605Y7400000D01*
X4285413Y6444192D01*
X4549814Y6539956D01*
X4690704Y6829571D01*
X4772384Y7141108D01*
X4791718Y7462595D01*
X4747961Y7781675D01*
X4642795Y8086088D01*
X4549814Y8260044D01*
X4285413Y8355808D01*
X3329605Y7400000D01*
X2970395Y7400000D01*
X2014587Y8355808D01*
X1750186Y8260044D01*
X1609296Y7970429D01*
X1527616Y7658892D01*
X1508282Y7337405D01*
X660000Y7337405D01*
X660000Y8535413D01*
X2194192Y8535413D01*
X3150000Y7579605D01*
X4105808Y8535413D01*
X4010044Y8799814D01*
X3720429Y8940704D01*
X3408892Y9022384D01*
X3087405Y9041718D01*
X2768325Y8997961D01*
X2463912Y8892795D01*
X2289956Y8799814D01*
X2194192Y8535413D01*
X660000Y8535413D01*
X660000Y49815960D01*
X2418091Y49815960D01*
X2512930Y49551119D01*
X2657615Y49309869D01*
X2846586Y49101481D01*
X3072580Y48933963D01*
X3326913Y48813754D01*
X3460961Y48773096D01*
X3683000Y48895085D01*
X3683000Y50038000D01*
X3937000Y50038000D01*
X3937000Y48895085D01*
X4159039Y48773096D01*
X4293087Y48813754D01*
X4547420Y48933963D01*
X4773414Y49101481D01*
X4962385Y49309869D01*
X5107070Y49551119D01*
X5201909Y49815960D01*
X6228091Y49815960D01*
X6322930Y49551119D01*
X6467615Y49309869D01*
X6656586Y49101481D01*
X6882580Y48933963D01*
X7136913Y48813754D01*
X7270961Y48773096D01*
X7493000Y48895085D01*
X7493000Y50038000D01*
X7747000Y50038000D01*
X7747000Y48895085D01*
X7969039Y48773096D01*
X8103087Y48813754D01*
X8357420Y48933963D01*
X8583414Y49101481D01*
X8772385Y49309869D01*
X8917070Y49551119D01*
X9011909Y49815960D01*
X8890624Y50038000D01*
X7747000Y50038000D01*
X7493000Y50038000D01*
X6349376Y50038000D01*
X6228091Y49815960D01*
X5201909Y49815960D01*
X5080624Y50038000D01*
X3937000Y50038000D01*
X3683000Y50038000D01*
X2539376Y50038000D01*
X2418091Y49815960D01*
X660000Y49815960D01*
X660000Y50514040D01*
X2418091Y50514040D01*
X2539376Y50292000D01*
X3683000Y50292000D01*
X3683000Y51434915D01*
X3937000Y51434915D01*
X3937000Y50292000D01*
X5080624Y50292000D01*
X5201909Y50514040D01*
X6228091Y50514040D01*
X6349376Y50292000D01*
X7493000Y50292000D01*
X7493000Y51434915D01*
X7747000Y51434915D01*
X7747000Y50292000D01*
X8890624Y50292000D01*
X9011909Y50514040D01*
X8917070Y50778881D01*
X8772385Y51020131D01*
X8583414Y51228519D01*
X8357420Y51396037D01*
X8103087Y51516246D01*
X7969039Y51556904D01*
X7747000Y51434915D01*
X7493000Y51434915D01*
X7270961Y51556904D01*
X7136913Y51516246D01*
X6882580Y51396037D01*
X6656586Y51228519D01*
X6467615Y51020131D01*
X6322930Y50778881D01*
X6228091Y50514040D01*
X5201909Y50514040D01*
X5107070Y50778881D01*
X4962385Y51020131D01*
X4773414Y51228519D01*
X4547420Y51396037D01*
X4293087Y51516246D01*
X4159039Y51556904D01*
X3937000Y51434915D01*
X3683000Y51434915D01*
X3460961Y51556904D01*
X3326913Y51516246D01*
X3072580Y51396037D01*
X2846586Y51228519D01*
X2657615Y51020131D01*
X2512930Y50778881D01*
X2418091Y50514040D01*
X660000Y50514040D01*
X660000Y53830705D01*
X692793Y53797912D01*
X1157124Y53487656D01*
X1673061Y53273948D01*
X2220777Y53165000D01*
X2779223Y53165000D01*
X3326939Y53273948D01*
X3842876Y53487656D01*
X4307207Y53797912D01*
X4702088Y54192793D01*
X5012344Y54657124D01*
X5079924Y54820279D01*
X33165000Y54820279D01*
X33165000Y54399721D01*
X33247047Y53987244D01*
X33407988Y53598698D01*
X33641637Y53249017D01*
X33939017Y52951637D01*
X34288698Y52717988D01*
X34677244Y52557047D01*
X35089721Y52475000D01*
X35510279Y52475000D01*
X35922756Y52557047D01*
X36311302Y52717988D01*
X36660983Y52951637D01*
X36958363Y53249017D01*
X37192012Y53598698D01*
X37352953Y53987244D01*
X37435000Y54399721D01*
X37435000Y54820279D01*
X37352953Y55232756D01*
X37192012Y55621302D01*
X36958363Y55970983D01*
X36660983Y56268363D01*
X36311302Y56502012D01*
X35922756Y56662953D01*
X35510279Y56745000D01*
X35089721Y56745000D01*
X34677244Y56662953D01*
X34288698Y56502012D01*
X33939017Y56268363D01*
X33641637Y55970983D01*
X33407988Y55621302D01*
X33247047Y55232756D01*
X33165000Y54820279D01*
X5079924Y54820279D01*
X5226052Y55173061D01*
X5335000Y55720777D01*
X5335000Y56279223D01*
X5226052Y56826939D01*
X5012344Y57342876D01*
X4702088Y57807207D01*
X4669295Y57840000D01*
X94330705Y57840000D01*
X94297912Y57807207D01*
G37*
X94297912Y57807207D02*
X93987656Y57342876D01*
X93773948Y56826939D01*
X93665000Y56279223D01*
X93665000Y55720777D01*
X93773948Y55173061D01*
X93987656Y54657124D01*
X94297912Y54192793D01*
X94692793Y53797912D01*
X95157124Y53487656D01*
X95673061Y53273948D01*
X96220777Y53165000D01*
X96779223Y53165000D01*
X97326939Y53273948D01*
X97842876Y53487656D01*
X98307207Y53797912D01*
X98340000Y53830705D01*
X98340000Y33508409D01*
X98335253Y33514194D01*
X98335250Y33514197D01*
X98312237Y33542238D01*
X98284197Y33565250D01*
X97265000Y34584446D01*
X97265000Y35204736D01*
X97304463Y35221082D01*
X97572252Y35400013D01*
X97799987Y35627748D01*
X97978918Y35895537D01*
X98102168Y36193088D01*
X98165000Y36508967D01*
X98165000Y36831033D01*
X98102168Y37146912D01*
X97978918Y37444463D01*
X97799987Y37712252D01*
X97572252Y37939987D01*
X97304463Y38118918D01*
X97265000Y38135264D01*
X97265000Y41704736D01*
X97304463Y41721082D01*
X97572252Y41900013D01*
X97799987Y42127748D01*
X97978918Y42395537D01*
X98102168Y42693088D01*
X98165000Y43008967D01*
X98165000Y43331033D01*
X98102168Y43646912D01*
X97978918Y43944463D01*
X97799987Y44212252D01*
X97572252Y44439987D01*
X97304463Y44618918D01*
X97006912Y44742168D01*
X96691033Y44805000D01*
X96368967Y44805000D01*
X96053088Y44742168D01*
X95755537Y44618918D01*
X95487748Y44439987D01*
X95260013Y44212252D01*
X95081082Y43944463D01*
X94957832Y43646912D01*
X94895000Y43331033D01*
X94895000Y43008967D01*
X94957832Y42693088D01*
X95081082Y42395537D01*
X95260013Y42127748D01*
X95487748Y41900013D01*
X95755537Y41721082D01*
X95795000Y41704736D01*
X95795001Y38135264D01*
X95755537Y38118918D01*
X95487748Y37939987D01*
X95260013Y37712252D01*
X95081082Y37444463D01*
X94957832Y37146912D01*
X94895000Y36831033D01*
X94895000Y36508967D01*
X94957832Y36193088D01*
X95081082Y35895537D01*
X95260013Y35627748D01*
X95487748Y35400013D01*
X95755537Y35221082D01*
X95795001Y35204736D01*
X95795001Y34316115D01*
X95791444Y34280000D01*
X95805635Y34135915D01*
X95843759Y34010241D01*
X95847664Y33997367D01*
X95915914Y33869680D01*
X96007763Y33757762D01*
X96035808Y33734746D01*
X97055000Y32715553D01*
X97055001Y21894448D01*
X95603376Y20442822D01*
X95391335Y20485000D01*
X95108665Y20485000D01*
X94831426Y20429853D01*
X94570273Y20321680D01*
X94335241Y20164637D01*
X94135363Y19964759D01*
X93978320Y19729727D01*
X93870147Y19468574D01*
X93815000Y19191335D01*
X93815000Y18908665D01*
X93857178Y18696624D01*
X93731144Y18570590D01*
X89917415Y18570590D01*
X89958316Y18705423D01*
X89987251Y18999200D01*
X89958316Y19292977D01*
X89872625Y19575464D01*
X89733469Y19835806D01*
X89546197Y20063997D01*
X89318006Y20251269D01*
X89284460Y20269200D01*
X89318006Y20287131D01*
X89546197Y20474403D01*
X89733469Y20702594D01*
X89872625Y20962936D01*
X89958316Y21245423D01*
X89987251Y21539200D01*
X89958316Y21832977D01*
X89872625Y22115464D01*
X89733469Y22375806D01*
X89622551Y22510960D01*
X93858091Y22510960D01*
X93952930Y22246119D01*
X94097615Y22004869D01*
X94286586Y21796481D01*
X94512580Y21628963D01*
X94766913Y21508754D01*
X94900961Y21468096D01*
X95123000Y21590085D01*
X95123000Y22733000D01*
X95377000Y22733000D01*
X95377000Y21590085D01*
X95599039Y21468096D01*
X95733087Y21508754D01*
X95987420Y21628963D01*
X96213414Y21796481D01*
X96402385Y22004869D01*
X96547070Y22246119D01*
X96641909Y22510960D01*
X96520624Y22733000D01*
X95377000Y22733000D01*
X95123000Y22733000D01*
X93979376Y22733000D01*
X93858091Y22510960D01*
X89622551Y22510960D01*
X89546197Y22603997D01*
X89318006Y22791269D01*
X89284460Y22809200D01*
X89318006Y22827131D01*
X89546197Y23014403D01*
X89705931Y23209040D01*
X93858091Y23209040D01*
X93979376Y22987000D01*
X95123000Y22987000D01*
X95123000Y24129915D01*
X95377000Y24129915D01*
X95377000Y22987000D01*
X96520624Y22987000D01*
X96641909Y23209040D01*
X96547070Y23473881D01*
X96402385Y23715131D01*
X96213414Y23923519D01*
X95987420Y24091037D01*
X95733087Y24211246D01*
X95599039Y24251904D01*
X95377000Y24129915D01*
X95123000Y24129915D01*
X94900961Y24251904D01*
X94766913Y24211246D01*
X94512580Y24091037D01*
X94286586Y23923519D01*
X94097615Y23715131D01*
X93952930Y23473881D01*
X93858091Y23209040D01*
X89705931Y23209040D01*
X89733469Y23242594D01*
X89872625Y23502936D01*
X89958316Y23785423D01*
X89987251Y24079200D01*
X89958316Y24372977D01*
X89872625Y24655464D01*
X89733469Y24915806D01*
X89546197Y25143997D01*
X89318006Y25331269D01*
X89284460Y25349200D01*
X89318006Y25367131D01*
X89546197Y25554403D01*
X89733469Y25782594D01*
X89872625Y26042936D01*
X89958316Y26325423D01*
X89987251Y26619200D01*
X89958316Y26912977D01*
X89872625Y27195464D01*
X89733469Y27455806D01*
X89546197Y27683997D01*
X89318006Y27871269D01*
X89284460Y27889200D01*
X89318006Y27907131D01*
X89546197Y28094403D01*
X89733469Y28322594D01*
X89872625Y28582936D01*
X89958316Y28865423D01*
X89987251Y29159200D01*
X89958316Y29452977D01*
X89872625Y29735464D01*
X89867528Y29745000D01*
X94015252Y29745000D01*
X94135363Y29565241D01*
X94335241Y29365363D01*
X94570273Y29208320D01*
X94831426Y29100147D01*
X95108665Y29045000D01*
X95391335Y29045000D01*
X95668574Y29100147D01*
X95929727Y29208320D01*
X96164759Y29365363D01*
X96364637Y29565241D01*
X96521680Y29800273D01*
X96629853Y30061426D01*
X96685000Y30338665D01*
X96685000Y30621335D01*
X96629853Y30898574D01*
X96521680Y31159727D01*
X96364637Y31394759D01*
X96164759Y31594637D01*
X95929727Y31751680D01*
X95668574Y31859853D01*
X95391335Y31915000D01*
X95108665Y31915000D01*
X94831426Y31859853D01*
X94570273Y31751680D01*
X94335241Y31594637D01*
X94135363Y31394759D01*
X94015252Y31215000D01*
X89900552Y31215000D01*
X89958316Y31405423D01*
X89987251Y31699200D01*
X89958316Y31992977D01*
X89872625Y32275464D01*
X89733469Y32535806D01*
X89546197Y32763997D01*
X89318006Y32951269D01*
X89284460Y32969200D01*
X89318006Y32987131D01*
X89546197Y33174403D01*
X89733469Y33402594D01*
X89872625Y33662936D01*
X89958316Y33945423D01*
X89987251Y34239200D01*
X89958316Y34532977D01*
X89872625Y34815464D01*
X89733469Y35075806D01*
X89546197Y35303997D01*
X89318006Y35491269D01*
X89284460Y35509200D01*
X89318006Y35527131D01*
X89546197Y35714403D01*
X89733469Y35942594D01*
X89872625Y36202936D01*
X89958316Y36485423D01*
X89987251Y36779200D01*
X89958316Y37072977D01*
X89872625Y37355464D01*
X89733469Y37615806D01*
X89546197Y37843997D01*
X89318006Y38031269D01*
X89284460Y38049200D01*
X89318006Y38067131D01*
X89546197Y38254403D01*
X89733469Y38482594D01*
X89872625Y38742936D01*
X89958316Y39025423D01*
X89987251Y39319200D01*
X89958316Y39612977D01*
X89872625Y39895464D01*
X89733469Y40155806D01*
X89546197Y40383997D01*
X89318006Y40571269D01*
X89284460Y40589200D01*
X89318006Y40607131D01*
X89546197Y40794403D01*
X89733469Y41022594D01*
X89872625Y41282936D01*
X89958316Y41565423D01*
X89987251Y41859200D01*
X89958316Y42152977D01*
X89872766Y42435000D01*
X90564736Y42435000D01*
X90581082Y42395537D01*
X90760013Y42127748D01*
X90987748Y41900013D01*
X91255537Y41721082D01*
X91295001Y41704736D01*
X91295000Y38135264D01*
X91255537Y38118918D01*
X90987748Y37939987D01*
X90760013Y37712252D01*
X90581082Y37444463D01*
X90457832Y37146912D01*
X90395000Y36831033D01*
X90395000Y36508967D01*
X90457832Y36193088D01*
X90581082Y35895537D01*
X90760013Y35627748D01*
X90987748Y35400013D01*
X91255537Y35221082D01*
X91553088Y35097832D01*
X91868967Y35035000D01*
X92191033Y35035000D01*
X92506912Y35097832D01*
X92804463Y35221082D01*
X93072252Y35400013D01*
X93299987Y35627748D01*
X93478918Y35895537D01*
X93602168Y36193088D01*
X93665000Y36508967D01*
X93665000Y36831033D01*
X93602168Y37146912D01*
X93478918Y37444463D01*
X93299987Y37712252D01*
X93072252Y37939987D01*
X92804463Y38118918D01*
X92765000Y38135264D01*
X92765000Y41704736D01*
X92804463Y41721082D01*
X93072252Y41900013D01*
X93299987Y42127748D01*
X93478918Y42395537D01*
X93602168Y42693088D01*
X93665000Y43008967D01*
X93665000Y43331033D01*
X93602168Y43646912D01*
X93478918Y43944463D01*
X93299987Y44212252D01*
X93072252Y44439987D01*
X92804463Y44618918D01*
X92506912Y44742168D01*
X92191033Y44805000D01*
X91868967Y44805000D01*
X91553088Y44742168D01*
X91255537Y44618918D01*
X90987748Y44439987D01*
X90760013Y44212252D01*
X90581082Y43944463D01*
X90564736Y43905000D01*
X89897519Y43905000D01*
X89958316Y44105423D01*
X89987251Y44399200D01*
X89958316Y44692977D01*
X89872625Y44975464D01*
X89733469Y45235806D01*
X89546197Y45463997D01*
X89318006Y45651269D01*
X89284460Y45669200D01*
X89318006Y45687131D01*
X89546197Y45874403D01*
X89733469Y46102594D01*
X89872625Y46362936D01*
X89958316Y46645423D01*
X89987251Y46939200D01*
X89958316Y47232977D01*
X89872625Y47515464D01*
X89733469Y47775806D01*
X89546197Y48003997D01*
X89318006Y48191269D01*
X89284460Y48209200D01*
X89318006Y48227131D01*
X89546197Y48414403D01*
X89733469Y48642594D01*
X89872625Y48902936D01*
X89958316Y49185423D01*
X89987251Y49479200D01*
X89958316Y49772977D01*
X89872625Y50055464D01*
X89733469Y50315806D01*
X89546197Y50543997D01*
X89318006Y50731269D01*
X89284460Y50749200D01*
X89318006Y50767131D01*
X89546197Y50954403D01*
X89733469Y51182594D01*
X89872625Y51442936D01*
X89958316Y51725423D01*
X89987251Y52019200D01*
X89958316Y52312977D01*
X89872625Y52595464D01*
X89733469Y52855806D01*
X89546197Y53083997D01*
X89318006Y53271269D01*
X89284460Y53289200D01*
X89318006Y53307131D01*
X89546197Y53494403D01*
X89733469Y53722594D01*
X89872625Y53982936D01*
X89958316Y54265423D01*
X89987251Y54559200D01*
X89958316Y54852977D01*
X89872625Y55135464D01*
X89733469Y55395806D01*
X89546197Y55623997D01*
X89318006Y55811269D01*
X89057664Y55950425D01*
X88775177Y56036116D01*
X88555019Y56057800D01*
X87884981Y56057800D01*
X87771976Y56046670D01*
X87601648Y56216998D01*
X87578628Y56245048D01*
X87466710Y56336897D01*
X87339023Y56405147D01*
X87200475Y56447175D01*
X87092495Y56457810D01*
X87056390Y56461366D01*
X87020285Y56457810D01*
X70558915Y56457810D01*
X70522810Y56461366D01*
X70486705Y56457810D01*
X70378725Y56447175D01*
X70240177Y56405147D01*
X70112490Y56336897D01*
X70000572Y56245048D01*
X69977551Y56216997D01*
X69755808Y55995254D01*
X69727763Y55972238D01*
X69635914Y55860320D01*
X69577209Y55750491D01*
X69567664Y55732633D01*
X69525635Y55594085D01*
X69511444Y55450000D01*
X69515001Y55413885D01*
X69515000Y54554447D01*
X65255808Y50295254D01*
X65227763Y50272238D01*
X65135914Y50160320D01*
X65113602Y50118577D01*
X65067664Y50032633D01*
X65025635Y49894085D01*
X65011444Y49750000D01*
X65015001Y49713885D01*
X65015000Y47768478D01*
X64898102Y47745226D01*
X64709744Y47667205D01*
X64540226Y47553937D01*
X64471418Y47485129D01*
X60425000Y51531546D01*
X60425000Y53420955D01*
X60580535Y53524880D01*
X60775120Y53719465D01*
X60928005Y53948273D01*
X61033314Y54202510D01*
X61087000Y54472408D01*
X61087000Y54747592D01*
X61072542Y54820279D01*
X64165000Y54820279D01*
X64165000Y54399721D01*
X64247047Y53987244D01*
X64407988Y53598698D01*
X64641637Y53249017D01*
X64939017Y52951637D01*
X65288698Y52717988D01*
X65677244Y52557047D01*
X66089721Y52475000D01*
X66510279Y52475000D01*
X66922756Y52557047D01*
X67311302Y52717988D01*
X67660983Y52951637D01*
X67958363Y53249017D01*
X68192012Y53598698D01*
X68352953Y53987244D01*
X68435000Y54399721D01*
X68435000Y54820279D01*
X68352953Y55232756D01*
X68192012Y55621302D01*
X67958363Y55970983D01*
X67660983Y56268363D01*
X67311302Y56502012D01*
X66922756Y56662953D01*
X66510279Y56745000D01*
X66089721Y56745000D01*
X65677244Y56662953D01*
X65288698Y56502012D01*
X64939017Y56268363D01*
X64641637Y55970983D01*
X64407988Y55621302D01*
X64247047Y55232756D01*
X64165000Y54820279D01*
X61072542Y54820279D01*
X61033314Y55017490D01*
X60928005Y55271727D01*
X60775120Y55500535D01*
X60580535Y55695120D01*
X60351727Y55848005D01*
X60097490Y55953314D01*
X59827592Y56007000D01*
X59552408Y56007000D01*
X59282510Y55953314D01*
X59028273Y55848005D01*
X58799465Y55695120D01*
X58604880Y55500535D01*
X58451995Y55271727D01*
X58420000Y55194485D01*
X58388005Y55271727D01*
X58235120Y55500535D01*
X58040535Y55695120D01*
X57811727Y55848005D01*
X57557490Y55953314D01*
X57287592Y56007000D01*
X57012408Y56007000D01*
X56742510Y55953314D01*
X56488273Y55848005D01*
X56259465Y55695120D01*
X56199695Y55635350D01*
X56194239Y55641999D01*
X56166194Y55665015D01*
X55457020Y56374188D01*
X55434000Y56402238D01*
X55322082Y56494087D01*
X55194395Y56562337D01*
X55055847Y56604365D01*
X54947867Y56615000D01*
X54911762Y56618556D01*
X54875657Y56615000D01*
X53376094Y56615000D01*
X53339999Y56618555D01*
X53303904Y56615000D01*
X53303895Y56615000D01*
X53195915Y56604365D01*
X53057367Y56562337D01*
X52929680Y56494087D01*
X52817762Y56402238D01*
X52794746Y56374193D01*
X52391059Y55970506D01*
X52207592Y56007000D01*
X51932408Y56007000D01*
X51662510Y55953314D01*
X51408273Y55848005D01*
X51179465Y55695120D01*
X50984880Y55500535D01*
X50831995Y55271727D01*
X50800000Y55194485D01*
X50768005Y55271727D01*
X50615120Y55500535D01*
X50420535Y55695120D01*
X50191727Y55848005D01*
X49937490Y55953314D01*
X49667592Y56007000D01*
X49392408Y56007000D01*
X49122510Y55953314D01*
X48868273Y55848005D01*
X48639465Y55695120D01*
X48444880Y55500535D01*
X48291995Y55271727D01*
X48260000Y55194485D01*
X48228005Y55271727D01*
X48075120Y55500535D01*
X47880535Y55695120D01*
X47651727Y55848005D01*
X47397490Y55953314D01*
X47127592Y56007000D01*
X46852408Y56007000D01*
X46582510Y55953314D01*
X46328273Y55848005D01*
X46099465Y55695120D01*
X45904880Y55500535D01*
X45751995Y55271727D01*
X45722308Y55200057D01*
X45717636Y55213023D01*
X45655656Y55328980D01*
X45415565Y55395960D01*
X44629605Y54610000D01*
X45415565Y53824040D01*
X45655656Y53891020D01*
X45719485Y54026760D01*
X45751995Y53948273D01*
X45904880Y53719465D01*
X46099465Y53524880D01*
X46328273Y53371995D01*
X46582510Y53266686D01*
X46852408Y53213000D01*
X47127592Y53213000D01*
X47311060Y53249494D01*
X49784766Y50775787D01*
X49807782Y50747742D01*
X49860031Y50704862D01*
X49919700Y50655893D01*
X49958788Y50635000D01*
X44470132Y50635000D01*
X43045000Y52060131D01*
X43045000Y53644435D01*
X43664040Y53644435D01*
X43731020Y53404344D01*
X43980048Y53287244D01*
X44247135Y53220977D01*
X44522017Y53208090D01*
X44794133Y53249078D01*
X45053023Y53342364D01*
X45168980Y53404344D01*
X45235960Y53644435D01*
X44450000Y54430395D01*
X43664040Y53644435D01*
X43045000Y53644435D01*
X43045000Y53794116D01*
X43148005Y53948273D01*
X43177692Y54019943D01*
X43182364Y54006977D01*
X43244344Y53891020D01*
X43484435Y53824040D01*
X44270395Y54610000D01*
X43484435Y55395960D01*
X43244344Y55328980D01*
X43180515Y55193240D01*
X43148005Y55271727D01*
X42995120Y55500535D01*
X42920090Y55575565D01*
X43664040Y55575565D01*
X44450000Y54789605D01*
X45235960Y55575565D01*
X45168980Y55815656D01*
X44919952Y55932756D01*
X44652865Y55999023D01*
X44377983Y56011910D01*
X44105867Y55970922D01*
X43846977Y55877636D01*
X43731020Y55815656D01*
X43664040Y55575565D01*
X42920090Y55575565D01*
X42800535Y55695120D01*
X42571727Y55848005D01*
X42317490Y55953314D01*
X42047592Y56007000D01*
X41772408Y56007000D01*
X41502510Y55953314D01*
X41248273Y55848005D01*
X41019465Y55695120D01*
X40824880Y55500535D01*
X40671995Y55271727D01*
X40566686Y55017490D01*
X40513000Y54747592D01*
X40513000Y54472408D01*
X40566686Y54202510D01*
X40671995Y53948273D01*
X40775001Y53794114D01*
X40775000Y51645752D01*
X40769509Y51590000D01*
X40775000Y51534249D01*
X40791423Y51367502D01*
X40856324Y51153554D01*
X40961716Y50956377D01*
X41103551Y50783551D01*
X41146865Y50748004D01*
X42865000Y49029868D01*
X42865001Y46970134D01*
X39574869Y43680000D01*
X31364284Y43680000D01*
X31159727Y43816680D01*
X30898574Y43924853D01*
X30621335Y43980000D01*
X30338665Y43980000D01*
X30061426Y43924853D01*
X29800273Y43816680D01*
X29565241Y43659637D01*
X29365363Y43459759D01*
X29245252Y43280000D01*
X28759447Y43280000D01*
X27045258Y44994188D01*
X27022238Y45022238D01*
X26910320Y45114087D01*
X26782633Y45182337D01*
X26644085Y45224365D01*
X26536105Y45235000D01*
X26500000Y45238556D01*
X26463895Y45235000D01*
X21613104Y45235000D01*
X21576999Y45238556D01*
X21432914Y45224365D01*
X21390886Y45211616D01*
X21294367Y45182337D01*
X21166680Y45114087D01*
X21054762Y45022238D01*
X21031746Y44994193D01*
X20005808Y43968254D01*
X19977762Y43945237D01*
X19885913Y43833319D01*
X19836034Y43740002D01*
X19787420Y43776037D01*
X19533087Y43896246D01*
X19399039Y43936904D01*
X19177000Y43814915D01*
X19177000Y42672000D01*
X19197000Y42672000D01*
X19197000Y42418000D01*
X19177000Y42418000D01*
X19177000Y42398000D01*
X18923000Y42398000D01*
X18923000Y42418000D01*
X17779376Y42418000D01*
X17658091Y42195960D01*
X17752930Y41931119D01*
X17897615Y41689869D01*
X18086586Y41481481D01*
X18312580Y41313963D01*
X18479646Y41235000D01*
X18368967Y41235000D01*
X18053088Y41172168D01*
X17755537Y41048918D01*
X17487748Y40869987D01*
X17265000Y40647239D01*
X17265000Y40661033D01*
X17202168Y40976912D01*
X17078918Y41274463D01*
X16899987Y41542252D01*
X16672252Y41769987D01*
X16404463Y41948918D01*
X16365000Y41965264D01*
X16365000Y42894040D01*
X17658091Y42894040D01*
X17779376Y42672000D01*
X18923000Y42672000D01*
X18923000Y43814915D01*
X18700961Y43936904D01*
X18566913Y43896246D01*
X18312580Y43776037D01*
X18086586Y43608519D01*
X17897615Y43400131D01*
X17752930Y43158881D01*
X17658091Y42894040D01*
X16365000Y42894040D01*
X16365000Y45534736D01*
X16404463Y45551082D01*
X16672252Y45730013D01*
X16899987Y45957748D01*
X17078918Y46225537D01*
X17202168Y46523088D01*
X17265000Y46838967D01*
X17265000Y47161033D01*
X17202168Y47476912D01*
X17185822Y47516375D01*
X17509447Y47840000D01*
X26451928Y47840000D01*
X26451928Y46140000D01*
X26464188Y46015518D01*
X26500498Y45895820D01*
X26559463Y45785506D01*
X26638815Y45688815D01*
X26735506Y45609463D01*
X26845820Y45550498D01*
X26965518Y45514188D01*
X27090000Y45501928D01*
X28790000Y45501928D01*
X28914482Y45514188D01*
X29034180Y45550498D01*
X29144494Y45609463D01*
X29241185Y45688815D01*
X29320537Y45785506D01*
X29379502Y45895820D01*
X29401513Y45968380D01*
X29533368Y45836525D01*
X29776589Y45674010D01*
X30046842Y45562068D01*
X30333740Y45505000D01*
X30626260Y45505000D01*
X30913158Y45562068D01*
X31183411Y45674010D01*
X31426632Y45836525D01*
X31633475Y46043368D01*
X31795990Y46286589D01*
X31907932Y46556842D01*
X31965000Y46843740D01*
X31965000Y47136260D01*
X31907932Y47423158D01*
X31795990Y47693411D01*
X31633475Y47936632D01*
X31426632Y48143475D01*
X31183411Y48305990D01*
X30913158Y48417932D01*
X30626260Y48475000D01*
X30333740Y48475000D01*
X30046842Y48417932D01*
X29776589Y48305990D01*
X29533368Y48143475D01*
X29401513Y48011620D01*
X29379502Y48084180D01*
X29320537Y48194494D01*
X29241185Y48291185D01*
X29144494Y48370537D01*
X29034180Y48429502D01*
X28914482Y48465812D01*
X28790000Y48478072D01*
X27090000Y48478072D01*
X26965518Y48465812D01*
X26845820Y48429502D01*
X26735506Y48370537D01*
X26638815Y48291185D01*
X26559463Y48194494D01*
X26500498Y48084180D01*
X26464188Y47964482D01*
X26451928Y47840000D01*
X17509447Y47840000D01*
X18506387Y48836940D01*
X18631426Y48785147D01*
X18908665Y48730000D01*
X19191335Y48730000D01*
X19468574Y48785147D01*
X19729727Y48893320D01*
X19964759Y49050363D01*
X20164637Y49250241D01*
X20321680Y49485273D01*
X20429853Y49746426D01*
X20443684Y49815960D01*
X21468091Y49815960D01*
X21562930Y49551119D01*
X21707615Y49309869D01*
X21896586Y49101481D01*
X22122580Y48933963D01*
X22376913Y48813754D01*
X22510961Y48773096D01*
X22733000Y48895085D01*
X22733000Y50038000D01*
X22987000Y50038000D01*
X22987000Y48895085D01*
X23209039Y48773096D01*
X23343087Y48813754D01*
X23597420Y48933963D01*
X23823414Y49101481D01*
X24012385Y49309869D01*
X24157070Y49551119D01*
X24251909Y49815960D01*
X24130624Y50038000D01*
X22987000Y50038000D01*
X22733000Y50038000D01*
X21589376Y50038000D01*
X21468091Y49815960D01*
X20443684Y49815960D01*
X20485000Y50023665D01*
X20485000Y50306335D01*
X20443685Y50514040D01*
X21468091Y50514040D01*
X21589376Y50292000D01*
X22733000Y50292000D01*
X22733000Y51434915D01*
X22987000Y51434915D01*
X22987000Y50292000D01*
X24130624Y50292000D01*
X24251909Y50514040D01*
X24157070Y50778881D01*
X24012385Y51020131D01*
X23823414Y51228519D01*
X23597420Y51396037D01*
X23343087Y51516246D01*
X23209039Y51556904D01*
X22987000Y51434915D01*
X22733000Y51434915D01*
X22510961Y51556904D01*
X22376913Y51516246D01*
X22122580Y51396037D01*
X21896586Y51228519D01*
X21707615Y51020131D01*
X21562930Y50778881D01*
X21468091Y50514040D01*
X20443685Y50514040D01*
X20429853Y50583574D01*
X20321680Y50844727D01*
X20164637Y51079759D01*
X19964759Y51279637D01*
X19729727Y51436680D01*
X19468574Y51544853D01*
X19191335Y51600000D01*
X18908665Y51600000D01*
X18631426Y51544853D01*
X18370273Y51436680D01*
X18135241Y51279637D01*
X17935363Y51079759D01*
X17778320Y50844727D01*
X17670147Y50583574D01*
X17615000Y50306335D01*
X17615000Y50024447D01*
X16146375Y48555822D01*
X16106912Y48572168D01*
X15791033Y48635000D01*
X15468967Y48635000D01*
X15153088Y48572168D01*
X14855537Y48448918D01*
X14587748Y48269987D01*
X14360013Y48042252D01*
X14181082Y47774463D01*
X14057832Y47476912D01*
X13995000Y47161033D01*
X13995000Y46838967D01*
X14057832Y46523088D01*
X14181082Y46225537D01*
X14360013Y45957748D01*
X14587748Y45730013D01*
X14855537Y45551082D01*
X14895000Y45534736D01*
X14895001Y41965264D01*
X14855537Y41948918D01*
X14587748Y41769987D01*
X14360013Y41542252D01*
X14181082Y41274463D01*
X14057832Y40976912D01*
X13995000Y40661033D01*
X13995000Y40338967D01*
X14057832Y40023088D01*
X14181082Y39725537D01*
X14360013Y39457748D01*
X14587748Y39230013D01*
X14855537Y39051082D01*
X14895001Y39034736D01*
X14895001Y38772275D01*
X14891444Y38736160D01*
X14905635Y38592075D01*
X14947664Y38453527D01*
X15015914Y38325840D01*
X15107763Y38213922D01*
X15135808Y38190906D01*
X15616934Y37709780D01*
X12134114Y37709780D01*
X12098019Y37713335D01*
X12061924Y37709780D01*
X12061915Y37709780D01*
X11953935Y37699145D01*
X11815387Y37657117D01*
X11687700Y37588867D01*
X11575782Y37497018D01*
X11552766Y37468973D01*
X8965000Y34881206D01*
X8965000Y38134736D01*
X9004463Y38151082D01*
X9272252Y38330013D01*
X9499987Y38557748D01*
X9678918Y38825537D01*
X9802168Y39123088D01*
X9865000Y39438967D01*
X9865000Y39452761D01*
X10087748Y39230013D01*
X10355537Y39051082D01*
X10653088Y38927832D01*
X10968967Y38865000D01*
X11291033Y38865000D01*
X11606912Y38927832D01*
X11904463Y39051082D01*
X12172252Y39230013D01*
X12399987Y39457748D01*
X12578918Y39725537D01*
X12702168Y40023088D01*
X12765000Y40338967D01*
X12765000Y40661033D01*
X12702168Y40976912D01*
X12578918Y41274463D01*
X12399987Y41542252D01*
X12172252Y41769987D01*
X11904463Y41948918D01*
X11865000Y41965264D01*
X11865000Y45534736D01*
X11904463Y45551082D01*
X12172252Y45730013D01*
X12399987Y45957748D01*
X12578918Y46225537D01*
X12702168Y46523088D01*
X12765000Y46838967D01*
X12765000Y47161033D01*
X12702168Y47476912D01*
X12578918Y47774463D01*
X12399987Y48042252D01*
X12172252Y48269987D01*
X11904463Y48448918D01*
X11606912Y48572168D01*
X11291033Y48635000D01*
X10968967Y48635000D01*
X10653088Y48572168D01*
X10355537Y48448918D01*
X10087748Y48269987D01*
X9860013Y48042252D01*
X9681082Y47774463D01*
X9557832Y47476912D01*
X9495000Y47161033D01*
X9495000Y46838967D01*
X9557832Y46523088D01*
X9681082Y46225537D01*
X9860013Y45957748D01*
X10087748Y45730013D01*
X10355537Y45551082D01*
X10395000Y45534736D01*
X10395001Y41965264D01*
X10355537Y41948918D01*
X10087748Y41769987D01*
X9860013Y41542252D01*
X9681082Y41274463D01*
X9557832Y40976912D01*
X9495000Y40661033D01*
X9495000Y40647239D01*
X9272252Y40869987D01*
X9004463Y41048918D01*
X8965000Y41065264D01*
X8965000Y41939535D01*
X8968556Y41975640D01*
X8962570Y42036417D01*
X8999853Y42126426D01*
X9055000Y42403665D01*
X9055000Y42686335D01*
X8999853Y42963574D01*
X8891680Y43224727D01*
X8734637Y43459759D01*
X8534759Y43659637D01*
X8299727Y43816680D01*
X8038574Y43924853D01*
X7761335Y43980000D01*
X7478665Y43980000D01*
X7201426Y43924853D01*
X6940273Y43816680D01*
X6705241Y43659637D01*
X6505363Y43459759D01*
X6348320Y43224727D01*
X6240147Y42963574D01*
X6211359Y42818848D01*
X5991018Y43039188D01*
X5967998Y43067238D01*
X5856080Y43159087D01*
X5728393Y43227337D01*
X5589845Y43269365D01*
X5481865Y43280000D01*
X5445760Y43283556D01*
X5409655Y43280000D01*
X5044748Y43280000D01*
X4924637Y43459759D01*
X4724759Y43659637D01*
X4489727Y43816680D01*
X4228574Y43924853D01*
X3951335Y43980000D01*
X3668665Y43980000D01*
X3391426Y43924853D01*
X3130273Y43816680D01*
X2895241Y43659637D01*
X2695363Y43459759D01*
X2538320Y43224727D01*
X2430147Y42963574D01*
X2375000Y42686335D01*
X2375000Y42403665D01*
X2430147Y42126426D01*
X2538320Y41865273D01*
X2695363Y41630241D01*
X2895241Y41430363D01*
X3130273Y41273320D01*
X3335095Y41188480D01*
X3253088Y41172168D01*
X2955537Y41048918D01*
X2687748Y40869987D01*
X2460013Y40642252D01*
X2281082Y40374463D01*
X2157832Y40076912D01*
X2095000Y39761033D01*
X2095000Y39438967D01*
X2157832Y39123088D01*
X2281082Y38825537D01*
X2460013Y38557748D01*
X2687748Y38330013D01*
X2955537Y38151082D01*
X2995000Y38134736D01*
X2995001Y34565264D01*
X2955537Y34548918D01*
X2687748Y34369987D01*
X2460013Y34142252D01*
X2281082Y33874463D01*
X2157832Y33576912D01*
X2095000Y33261033D01*
X2095000Y32938967D01*
X2157832Y32623088D01*
X2281082Y32325537D01*
X2460013Y32057748D01*
X2687748Y31830013D01*
X2955537Y31651082D01*
X2995000Y31634736D01*
X2995001Y29044175D01*
X2991444Y29008060D01*
X3005635Y28863975D01*
X3042398Y28742787D01*
X3047664Y28725427D01*
X3115914Y28597740D01*
X3207763Y28485822D01*
X3235808Y28462806D01*
X6592806Y25105807D01*
X6615822Y25077762D01*
X6643866Y25054747D01*
X6727740Y24985913D01*
X6855426Y24917663D01*
X6993975Y24875635D01*
X7138060Y24861444D01*
X7174165Y24865000D01*
X9664736Y24865000D01*
X9681082Y24825537D01*
X9860013Y24557748D01*
X9995000Y24422761D01*
X9995000Y23425752D01*
X9989509Y23370000D01*
X9995000Y23314249D01*
X10011423Y23147502D01*
X10076324Y22933554D01*
X10181716Y22736377D01*
X10323551Y22563551D01*
X10366864Y22528005D01*
X11158008Y21736860D01*
X11193551Y21693551D01*
X11319729Y21589999D01*
X11366377Y21551716D01*
X11491195Y21485000D01*
X6820132Y21485000D01*
X6141996Y22163136D01*
X6106449Y22206449D01*
X5933623Y22348284D01*
X5736447Y22453676D01*
X5522499Y22518577D01*
X5355752Y22535000D01*
X5355751Y22535000D01*
X5300000Y22540491D01*
X5244249Y22535000D01*
X4327239Y22535000D01*
X4192252Y22669987D01*
X3924463Y22848918D01*
X3626912Y22972168D01*
X3311033Y23035000D01*
X2988967Y23035000D01*
X2673088Y22972168D01*
X2375537Y22848918D01*
X2107748Y22669987D01*
X1880013Y22442252D01*
X1701082Y22174463D01*
X1577832Y21876912D01*
X1515000Y21561033D01*
X1515000Y21238967D01*
X1577832Y20923088D01*
X1701082Y20625537D01*
X1880013Y20357748D01*
X2107748Y20130013D01*
X2375537Y19951082D01*
X2673088Y19827832D01*
X2988967Y19765000D01*
X3311033Y19765000D01*
X3626912Y19827832D01*
X3924463Y19951082D01*
X4192252Y20130013D01*
X4327239Y20265000D01*
X4829869Y20265000D01*
X5508008Y19586860D01*
X5543551Y19543551D01*
X5716377Y19401716D01*
X5913553Y19296324D01*
X6127501Y19231423D01*
X6294248Y19215000D01*
X6294257Y19215000D01*
X6349999Y19209510D01*
X6405741Y19215000D01*
X16883280Y19215000D01*
X16883281Y12835009D01*
X16801717Y12735623D01*
X16765881Y12668578D01*
X16696324Y12538446D01*
X16631423Y12324498D01*
X16609509Y12102000D01*
X16615001Y12046239D01*
X16615000Y3624249D01*
X16631423Y3457502D01*
X16696324Y3243554D01*
X16761928Y3120816D01*
X16761928Y2930000D01*
X16774188Y2805518D01*
X16810498Y2685820D01*
X16869463Y2575506D01*
X16948815Y2478815D01*
X17045506Y2399463D01*
X17155820Y2340498D01*
X17275518Y2304188D01*
X17400000Y2291928D01*
X17479662Y2291928D01*
X17456696Y2236483D01*
X17415000Y2026863D01*
X17415000Y1813137D01*
X17456696Y1603517D01*
X17538485Y1406060D01*
X17657225Y1228353D01*
X17808353Y1077225D01*
X17986060Y958485D01*
X18183517Y876696D01*
X18393137Y835000D01*
X18606863Y835000D01*
X18816483Y876696D01*
X19013940Y958485D01*
X19191647Y1077225D01*
X19342775Y1228353D01*
X19461515Y1406060D01*
X19543304Y1603517D01*
X19585000Y1813137D01*
X19585000Y2026863D01*
X19543304Y2236483D01*
X19520338Y2291928D01*
X19600000Y2291928D01*
X19610151Y2292928D01*
X19619463Y2275506D01*
X19698815Y2178815D01*
X19795506Y2099463D01*
X19905820Y2040498D01*
X20025518Y2004188D01*
X20150000Y1991928D01*
X21150000Y1991928D01*
X21274482Y2004188D01*
X21394180Y2040498D01*
X21504494Y2099463D01*
X21601185Y2178815D01*
X21680537Y2275506D01*
X21739502Y2385820D01*
X21775812Y2505518D01*
X21788072Y2630000D01*
X21788072Y3430000D01*
X21775812Y3554482D01*
X21739502Y3674180D01*
X21690957Y3765000D01*
X24129869Y3765000D01*
X27234868Y660000D01*
X21788072Y660000D01*
X21788072Y1220000D01*
X21775812Y1344482D01*
X21739502Y1464180D01*
X21680537Y1574494D01*
X21601185Y1671185D01*
X21504494Y1750537D01*
X21394180Y1809502D01*
X21274482Y1845812D01*
X21150000Y1858072D01*
X20150000Y1858072D01*
X20025518Y1845812D01*
X19905820Y1809502D01*
X19795506Y1750537D01*
X19698815Y1671185D01*
X19619463Y1574494D01*
X19560498Y1464180D01*
X19524188Y1344482D01*
X19511928Y1220000D01*
X19511928Y660000D01*
X14488072Y660000D01*
X14488072Y1220000D01*
X14475812Y1344482D01*
X14439502Y1464180D01*
X14380537Y1574494D01*
X14301185Y1671185D01*
X14204494Y1750537D01*
X14094180Y1809502D01*
X13974482Y1845812D01*
X13850000Y1858072D01*
X12850000Y1858072D01*
X12725518Y1845812D01*
X12605820Y1809502D01*
X12495506Y1750537D01*
X12398815Y1671185D01*
X12319463Y1574494D01*
X12260498Y1464180D01*
X12224188Y1344482D01*
X12211928Y1220000D01*
X12211928Y660000D01*
X4669295Y660000D01*
X4702088Y692793D01*
X5012344Y1157124D01*
X5226052Y1673061D01*
X5335000Y2220777D01*
X5335000Y2779223D01*
X5226052Y3326939D01*
X5183363Y3430000D01*
X12211928Y3430000D01*
X12211928Y2630000D01*
X12224188Y2505518D01*
X12260498Y2385820D01*
X12319463Y2275506D01*
X12398815Y2178815D01*
X12495506Y2099463D01*
X12605820Y2040498D01*
X12725518Y2004188D01*
X12850000Y1991928D01*
X13850000Y1991928D01*
X13974482Y2004188D01*
X14094180Y2040498D01*
X14204494Y2099463D01*
X14301185Y2178815D01*
X14380537Y2275506D01*
X14389849Y2292928D01*
X14400000Y2291928D01*
X14479662Y2291928D01*
X14456696Y2236483D01*
X14415000Y2026863D01*
X14415000Y1813137D01*
X14456696Y1603517D01*
X14538485Y1406060D01*
X14657225Y1228353D01*
X14808353Y1077225D01*
X14986060Y958485D01*
X15183517Y876696D01*
X15393137Y835000D01*
X15606863Y835000D01*
X15816483Y876696D01*
X16013940Y958485D01*
X16191647Y1077225D01*
X16342775Y1228353D01*
X16461515Y1406060D01*
X16543304Y1603517D01*
X16585000Y1813137D01*
X16585000Y2026863D01*
X16543304Y2236483D01*
X16461515Y2433940D01*
X16342775Y2611647D01*
X16191647Y2762775D01*
X16013940Y2881515D01*
X15816483Y2963304D01*
X15738072Y2978901D01*
X15738072Y4430000D01*
X15725812Y4554482D01*
X15689502Y4674180D01*
X15630537Y4784494D01*
X15551185Y4881185D01*
X15454494Y4960537D01*
X15344180Y5019502D01*
X15224482Y5055812D01*
X15100000Y5068072D01*
X14400000Y5068072D01*
X14275518Y5055812D01*
X14155820Y5019502D01*
X14045506Y4960537D01*
X13948815Y4881185D01*
X13869463Y4784494D01*
X13810498Y4674180D01*
X13774188Y4554482D01*
X13761928Y4430000D01*
X13761928Y4068072D01*
X12850000Y4068072D01*
X12725518Y4055812D01*
X12605820Y4019502D01*
X12495506Y3960537D01*
X12398815Y3881185D01*
X12319463Y3784494D01*
X12260498Y3674180D01*
X12224188Y3554482D01*
X12211928Y3430000D01*
X5183363Y3430000D01*
X5012344Y3842876D01*
X4702088Y4307207D01*
X4307207Y4702088D01*
X3842876Y5012344D01*
X3326939Y5226052D01*
X2779223Y5335000D01*
X2220777Y5335000D01*
X1673061Y5226052D01*
X1157124Y5012344D01*
X692793Y4702088D01*
X660000Y4669295D01*
X660000Y6264587D01*
X2194192Y6264587D01*
X2289956Y6000186D01*
X2579571Y5859296D01*
X2891108Y5777616D01*
X3212595Y5758282D01*
X3531675Y5802039D01*
X3836088Y5907205D01*
X4010044Y6000186D01*
X4105808Y6264587D01*
X3150000Y7220395D01*
X2194192Y6264587D01*
X660000Y6264587D01*
X660000Y7337405D01*
X1508282Y7337405D01*
X1552039Y7018325D01*
X1657205Y6713912D01*
X1750186Y6539956D01*
X2014587Y6444192D01*
X2970395Y7400000D01*
X3329605Y7400000D01*
X4285413Y6444192D01*
X4549814Y6539956D01*
X4690704Y6829571D01*
X4772384Y7141108D01*
X4791718Y7462595D01*
X4747961Y7781675D01*
X4642795Y8086088D01*
X4549814Y8260044D01*
X4285413Y8355808D01*
X3329605Y7400000D01*
X2970395Y7400000D01*
X2014587Y8355808D01*
X1750186Y8260044D01*
X1609296Y7970429D01*
X1527616Y7658892D01*
X1508282Y7337405D01*
X660000Y7337405D01*
X660000Y8535413D01*
X2194192Y8535413D01*
X3150000Y7579605D01*
X4105808Y8535413D01*
X4010044Y8799814D01*
X3720429Y8940704D01*
X3408892Y9022384D01*
X3087405Y9041718D01*
X2768325Y8997961D01*
X2463912Y8892795D01*
X2289956Y8799814D01*
X2194192Y8535413D01*
X660000Y8535413D01*
X660000Y49815960D01*
X2418091Y49815960D01*
X2512930Y49551119D01*
X2657615Y49309869D01*
X2846586Y49101481D01*
X3072580Y48933963D01*
X3326913Y48813754D01*
X3460961Y48773096D01*
X3683000Y48895085D01*
X3683000Y50038000D01*
X3937000Y50038000D01*
X3937000Y48895085D01*
X4159039Y48773096D01*
X4293087Y48813754D01*
X4547420Y48933963D01*
X4773414Y49101481D01*
X4962385Y49309869D01*
X5107070Y49551119D01*
X5201909Y49815960D01*
X6228091Y49815960D01*
X6322930Y49551119D01*
X6467615Y49309869D01*
X6656586Y49101481D01*
X6882580Y48933963D01*
X7136913Y48813754D01*
X7270961Y48773096D01*
X7493000Y48895085D01*
X7493000Y50038000D01*
X7747000Y50038000D01*
X7747000Y48895085D01*
X7969039Y48773096D01*
X8103087Y48813754D01*
X8357420Y48933963D01*
X8583414Y49101481D01*
X8772385Y49309869D01*
X8917070Y49551119D01*
X9011909Y49815960D01*
X8890624Y50038000D01*
X7747000Y50038000D01*
X7493000Y50038000D01*
X6349376Y50038000D01*
X6228091Y49815960D01*
X5201909Y49815960D01*
X5080624Y50038000D01*
X3937000Y50038000D01*
X3683000Y50038000D01*
X2539376Y50038000D01*
X2418091Y49815960D01*
X660000Y49815960D01*
X660000Y50514040D01*
X2418091Y50514040D01*
X2539376Y50292000D01*
X3683000Y50292000D01*
X3683000Y51434915D01*
X3937000Y51434915D01*
X3937000Y50292000D01*
X5080624Y50292000D01*
X5201909Y50514040D01*
X6228091Y50514040D01*
X6349376Y50292000D01*
X7493000Y50292000D01*
X7493000Y51434915D01*
X7747000Y51434915D01*
X7747000Y50292000D01*
X8890624Y50292000D01*
X9011909Y50514040D01*
X8917070Y50778881D01*
X8772385Y51020131D01*
X8583414Y51228519D01*
X8357420Y51396037D01*
X8103087Y51516246D01*
X7969039Y51556904D01*
X7747000Y51434915D01*
X7493000Y51434915D01*
X7270961Y51556904D01*
X7136913Y51516246D01*
X6882580Y51396037D01*
X6656586Y51228519D01*
X6467615Y51020131D01*
X6322930Y50778881D01*
X6228091Y50514040D01*
X5201909Y50514040D01*
X5107070Y50778881D01*
X4962385Y51020131D01*
X4773414Y51228519D01*
X4547420Y51396037D01*
X4293087Y51516246D01*
X4159039Y51556904D01*
X3937000Y51434915D01*
X3683000Y51434915D01*
X3460961Y51556904D01*
X3326913Y51516246D01*
X3072580Y51396037D01*
X2846586Y51228519D01*
X2657615Y51020131D01*
X2512930Y50778881D01*
X2418091Y50514040D01*
X660000Y50514040D01*
X660000Y53830705D01*
X692793Y53797912D01*
X1157124Y53487656D01*
X1673061Y53273948D01*
X2220777Y53165000D01*
X2779223Y53165000D01*
X3326939Y53273948D01*
X3842876Y53487656D01*
X4307207Y53797912D01*
X4702088Y54192793D01*
X5012344Y54657124D01*
X5079924Y54820279D01*
X33165000Y54820279D01*
X33165000Y54399721D01*
X33247047Y53987244D01*
X33407988Y53598698D01*
X33641637Y53249017D01*
X33939017Y52951637D01*
X34288698Y52717988D01*
X34677244Y52557047D01*
X35089721Y52475000D01*
X35510279Y52475000D01*
X35922756Y52557047D01*
X36311302Y52717988D01*
X36660983Y52951637D01*
X36958363Y53249017D01*
X37192012Y53598698D01*
X37352953Y53987244D01*
X37435000Y54399721D01*
X37435000Y54820279D01*
X37352953Y55232756D01*
X37192012Y55621302D01*
X36958363Y55970983D01*
X36660983Y56268363D01*
X36311302Y56502012D01*
X35922756Y56662953D01*
X35510279Y56745000D01*
X35089721Y56745000D01*
X34677244Y56662953D01*
X34288698Y56502012D01*
X33939017Y56268363D01*
X33641637Y55970983D01*
X33407988Y55621302D01*
X33247047Y55232756D01*
X33165000Y54820279D01*
X5079924Y54820279D01*
X5226052Y55173061D01*
X5335000Y55720777D01*
X5335000Y56279223D01*
X5226052Y56826939D01*
X5012344Y57342876D01*
X4702088Y57807207D01*
X4669295Y57840000D01*
X94330705Y57840000D01*
X94297912Y57807207D01*
G36*
X98340001Y4669294D02*
G01*
X98307207Y4702088D01*
X97842876Y5012344D01*
X97326939Y5226052D01*
X96779223Y5335000D01*
X96220777Y5335000D01*
X95673061Y5226052D01*
X95157124Y5012344D01*
X94692793Y4702088D01*
X94297912Y4307207D01*
X93987656Y3842876D01*
X93773948Y3326939D01*
X93665000Y2779223D01*
X93665000Y2220777D01*
X93773948Y1673061D01*
X93987656Y1157124D01*
X94297912Y692793D01*
X94330705Y660000D01*
X79938331Y660000D01*
X85526731Y6248400D01*
X86452749Y6248400D01*
X86481684Y5954623D01*
X86567375Y5672136D01*
X86706531Y5411794D01*
X86893803Y5183603D01*
X87121994Y4996331D01*
X87382336Y4857175D01*
X87664823Y4771484D01*
X87884981Y4749800D01*
X88555019Y4749800D01*
X88775177Y4771484D01*
X89057664Y4857175D01*
X89318006Y4996331D01*
X89546197Y5183603D01*
X89733469Y5411794D01*
X89872625Y5672136D01*
X89958316Y5954623D01*
X89987251Y6248400D01*
X89958316Y6542177D01*
X89872625Y6824664D01*
X89733469Y7085006D01*
X89546197Y7313197D01*
X89318006Y7500469D01*
X89235711Y7544457D01*
X89419574Y7663717D01*
X89630873Y7869332D01*
X89797998Y8112219D01*
X89914527Y8383043D01*
X89936358Y8480174D01*
X89815217Y8712200D01*
X88347000Y8712200D01*
X88347000Y8692200D01*
X88093000Y8692200D01*
X88093000Y8712200D01*
X86624783Y8712200D01*
X86503642Y8480174D01*
X86525473Y8383043D01*
X86642002Y8112219D01*
X86809127Y7869332D01*
X87020426Y7663717D01*
X87204289Y7544457D01*
X87121994Y7500469D01*
X86893803Y7313197D01*
X86706531Y7085006D01*
X86567375Y6824664D01*
X86481684Y6542177D01*
X86452749Y6248400D01*
X85526731Y6248400D01*
X85685501Y6407169D01*
X85728809Y6442711D01*
X85870644Y6615537D01*
X85976036Y6812713D01*
X86040937Y7026661D01*
X86057360Y7193408D01*
X86062851Y7249160D01*
X86057360Y7304912D01*
X86057360Y9641609D01*
X86659952Y10244200D01*
X86979345Y10244200D01*
X87121994Y10127131D01*
X87161353Y10106093D01*
X87020426Y10014683D01*
X86809127Y9809068D01*
X86642002Y9566181D01*
X86525473Y9295357D01*
X86503642Y9198226D01*
X86624783Y8966200D01*
X88093000Y8966200D01*
X88093000Y8986200D01*
X88347000Y8986200D01*
X88347000Y8966200D01*
X89815217Y8966200D01*
X89936358Y9198226D01*
X89914527Y9295357D01*
X89797998Y9566181D01*
X89630873Y9809068D01*
X89419574Y10014683D01*
X89278647Y10106093D01*
X89318006Y10127131D01*
X89546197Y10314403D01*
X89733469Y10542594D01*
X89872625Y10802936D01*
X89956962Y11080960D01*
X93858091Y11080960D01*
X93952930Y10816119D01*
X94097615Y10574869D01*
X94286586Y10366481D01*
X94512580Y10198963D01*
X94766913Y10078754D01*
X94900961Y10038096D01*
X95123000Y10160085D01*
X95123000Y11303000D01*
X95377000Y11303000D01*
X95377000Y10160085D01*
X95599039Y10038096D01*
X95733087Y10078754D01*
X95987420Y10198963D01*
X96213414Y10366481D01*
X96402385Y10574869D01*
X96547070Y10816119D01*
X96641909Y11080960D01*
X96520624Y11303000D01*
X95377000Y11303000D01*
X95123000Y11303000D01*
X93979376Y11303000D01*
X93858091Y11080960D01*
X89956962Y11080960D01*
X89958316Y11085423D01*
X89987251Y11379200D01*
X89958316Y11672977D01*
X89926143Y11779040D01*
X93858091Y11779040D01*
X93979376Y11557000D01*
X95123000Y11557000D01*
X95123000Y12699915D01*
X95377000Y12699915D01*
X95377000Y11557000D01*
X96520624Y11557000D01*
X96641909Y11779040D01*
X96547070Y12043881D01*
X96402385Y12285131D01*
X96213414Y12493519D01*
X95987420Y12661037D01*
X95733087Y12781246D01*
X95599039Y12821904D01*
X95377000Y12699915D01*
X95123000Y12699915D01*
X94900961Y12821904D01*
X94766913Y12781246D01*
X94512580Y12661037D01*
X94286586Y12493519D01*
X94097615Y12285131D01*
X93952930Y12043881D01*
X93858091Y11779040D01*
X89926143Y11779040D01*
X89872625Y11955464D01*
X89733469Y12215806D01*
X89546197Y12443997D01*
X89318006Y12631269D01*
X89284460Y12649200D01*
X89318006Y12667131D01*
X89546197Y12854403D01*
X89733469Y13082594D01*
X89872625Y13342936D01*
X89958316Y13625423D01*
X89987251Y13919200D01*
X89958316Y14212977D01*
X89872625Y14495464D01*
X89733469Y14755806D01*
X89546197Y14983997D01*
X89318006Y15171269D01*
X89284460Y15189200D01*
X89318006Y15207131D01*
X89546197Y15394403D01*
X89733469Y15622594D01*
X89872625Y15882936D01*
X89958316Y16165423D01*
X89987251Y16459200D01*
X89958316Y16752977D01*
X89872625Y17035464D01*
X89837814Y17100590D01*
X93999485Y17100590D01*
X94035590Y17097034D01*
X94071695Y17100590D01*
X94179675Y17111225D01*
X94318223Y17153253D01*
X94445910Y17221503D01*
X94557828Y17313352D01*
X94580848Y17341402D01*
X94896624Y17657178D01*
X95108665Y17615000D01*
X95391335Y17615000D01*
X95668574Y17670147D01*
X95929727Y17778320D01*
X96164759Y17935363D01*
X96364637Y18135241D01*
X96521680Y18370273D01*
X96629853Y18631426D01*
X96685000Y18908665D01*
X96685000Y19191335D01*
X96642822Y19403376D01*
X98284193Y21044746D01*
X98312238Y21067762D01*
X98340001Y21101591D01*
X98340001Y4669294D01*
G37*
X98340001Y4669294D02*
X98307207Y4702088D01*
X97842876Y5012344D01*
X97326939Y5226052D01*
X96779223Y5335000D01*
X96220777Y5335000D01*
X95673061Y5226052D01*
X95157124Y5012344D01*
X94692793Y4702088D01*
X94297912Y4307207D01*
X93987656Y3842876D01*
X93773948Y3326939D01*
X93665000Y2779223D01*
X93665000Y2220777D01*
X93773948Y1673061D01*
X93987656Y1157124D01*
X94297912Y692793D01*
X94330705Y660000D01*
X79938331Y660000D01*
X85526731Y6248400D01*
X86452749Y6248400D01*
X86481684Y5954623D01*
X86567375Y5672136D01*
X86706531Y5411794D01*
X86893803Y5183603D01*
X87121994Y4996331D01*
X87382336Y4857175D01*
X87664823Y4771484D01*
X87884981Y4749800D01*
X88555019Y4749800D01*
X88775177Y4771484D01*
X89057664Y4857175D01*
X89318006Y4996331D01*
X89546197Y5183603D01*
X89733469Y5411794D01*
X89872625Y5672136D01*
X89958316Y5954623D01*
X89987251Y6248400D01*
X89958316Y6542177D01*
X89872625Y6824664D01*
X89733469Y7085006D01*
X89546197Y7313197D01*
X89318006Y7500469D01*
X89235711Y7544457D01*
X89419574Y7663717D01*
X89630873Y7869332D01*
X89797998Y8112219D01*
X89914527Y8383043D01*
X89936358Y8480174D01*
X89815217Y8712200D01*
X88347000Y8712200D01*
X88347000Y8692200D01*
X88093000Y8692200D01*
X88093000Y8712200D01*
X86624783Y8712200D01*
X86503642Y8480174D01*
X86525473Y8383043D01*
X86642002Y8112219D01*
X86809127Y7869332D01*
X87020426Y7663717D01*
X87204289Y7544457D01*
X87121994Y7500469D01*
X86893803Y7313197D01*
X86706531Y7085006D01*
X86567375Y6824664D01*
X86481684Y6542177D01*
X86452749Y6248400D01*
X85526731Y6248400D01*
X85685501Y6407169D01*
X85728809Y6442711D01*
X85870644Y6615537D01*
X85976036Y6812713D01*
X86040937Y7026661D01*
X86057360Y7193408D01*
X86062851Y7249160D01*
X86057360Y7304912D01*
X86057360Y9641609D01*
X86659952Y10244200D01*
X86979345Y10244200D01*
X87121994Y10127131D01*
X87161353Y10106093D01*
X87020426Y10014683D01*
X86809127Y9809068D01*
X86642002Y9566181D01*
X86525473Y9295357D01*
X86503642Y9198226D01*
X86624783Y8966200D01*
X88093000Y8966200D01*
X88093000Y8986200D01*
X88347000Y8986200D01*
X88347000Y8966200D01*
X89815217Y8966200D01*
X89936358Y9198226D01*
X89914527Y9295357D01*
X89797998Y9566181D01*
X89630873Y9809068D01*
X89419574Y10014683D01*
X89278647Y10106093D01*
X89318006Y10127131D01*
X89546197Y10314403D01*
X89733469Y10542594D01*
X89872625Y10802936D01*
X89956962Y11080960D01*
X93858091Y11080960D01*
X93952930Y10816119D01*
X94097615Y10574869D01*
X94286586Y10366481D01*
X94512580Y10198963D01*
X94766913Y10078754D01*
X94900961Y10038096D01*
X95123000Y10160085D01*
X95123000Y11303000D01*
X95377000Y11303000D01*
X95377000Y10160085D01*
X95599039Y10038096D01*
X95733087Y10078754D01*
X95987420Y10198963D01*
X96213414Y10366481D01*
X96402385Y10574869D01*
X96547070Y10816119D01*
X96641909Y11080960D01*
X96520624Y11303000D01*
X95377000Y11303000D01*
X95123000Y11303000D01*
X93979376Y11303000D01*
X93858091Y11080960D01*
X89956962Y11080960D01*
X89958316Y11085423D01*
X89987251Y11379200D01*
X89958316Y11672977D01*
X89926143Y11779040D01*
X93858091Y11779040D01*
X93979376Y11557000D01*
X95123000Y11557000D01*
X95123000Y12699915D01*
X95377000Y12699915D01*
X95377000Y11557000D01*
X96520624Y11557000D01*
X96641909Y11779040D01*
X96547070Y12043881D01*
X96402385Y12285131D01*
X96213414Y12493519D01*
X95987420Y12661037D01*
X95733087Y12781246D01*
X95599039Y12821904D01*
X95377000Y12699915D01*
X95123000Y12699915D01*
X94900961Y12821904D01*
X94766913Y12781246D01*
X94512580Y12661037D01*
X94286586Y12493519D01*
X94097615Y12285131D01*
X93952930Y12043881D01*
X93858091Y11779040D01*
X89926143Y11779040D01*
X89872625Y11955464D01*
X89733469Y12215806D01*
X89546197Y12443997D01*
X89318006Y12631269D01*
X89284460Y12649200D01*
X89318006Y12667131D01*
X89546197Y12854403D01*
X89733469Y13082594D01*
X89872625Y13342936D01*
X89958316Y13625423D01*
X89987251Y13919200D01*
X89958316Y14212977D01*
X89872625Y14495464D01*
X89733469Y14755806D01*
X89546197Y14983997D01*
X89318006Y15171269D01*
X89284460Y15189200D01*
X89318006Y15207131D01*
X89546197Y15394403D01*
X89733469Y15622594D01*
X89872625Y15882936D01*
X89958316Y16165423D01*
X89987251Y16459200D01*
X89958316Y16752977D01*
X89872625Y17035464D01*
X89837814Y17100590D01*
X93999485Y17100590D01*
X94035590Y17097034D01*
X94071695Y17100590D01*
X94179675Y17111225D01*
X94318223Y17153253D01*
X94445910Y17221503D01*
X94557828Y17313352D01*
X94580848Y17341402D01*
X94896624Y17657178D01*
X95108665Y17615000D01*
X95391335Y17615000D01*
X95668574Y17670147D01*
X95929727Y17778320D01*
X96164759Y17935363D01*
X96364637Y18135241D01*
X96521680Y18370273D01*
X96629853Y18631426D01*
X96685000Y18908665D01*
X96685000Y19191335D01*
X96642822Y19403376D01*
X98284193Y21044746D01*
X98312238Y21067762D01*
X98340001Y21101591D01*
X98340001Y4669294D01*
G36*
X70030522Y19668617D02*
G01*
X70053538Y19640572D01*
X70165456Y19548723D01*
X70293143Y19480473D01*
X70431691Y19438445D01*
X70575776Y19424254D01*
X70611881Y19427810D01*
X71282585Y19427810D01*
X71241684Y19292977D01*
X71212749Y18999200D01*
X71241684Y18705423D01*
X71327375Y18422936D01*
X71466531Y18162594D01*
X71653803Y17934403D01*
X71881994Y17747131D01*
X71915540Y17729200D01*
X71881994Y17711269D01*
X71653803Y17523997D01*
X71466531Y17295806D01*
X71327375Y17035464D01*
X71241684Y16752977D01*
X71212749Y16459200D01*
X71241684Y16165423D01*
X71327375Y15882936D01*
X71466531Y15622594D01*
X71653803Y15394403D01*
X71881994Y15207131D01*
X71915540Y15189200D01*
X71881994Y15171269D01*
X71653803Y14983997D01*
X71466531Y14755806D01*
X71327375Y14495464D01*
X71241684Y14212977D01*
X71212749Y13919200D01*
X71241684Y13625423D01*
X71327375Y13342936D01*
X71466531Y13082594D01*
X71653803Y12854403D01*
X71881994Y12667131D01*
X71915540Y12649200D01*
X71881994Y12631269D01*
X71653803Y12443997D01*
X71466531Y12215806D01*
X71327375Y11955464D01*
X71241684Y11672977D01*
X71212749Y11379200D01*
X71241684Y11085423D01*
X71327375Y10802936D01*
X71466531Y10542594D01*
X71653803Y10314403D01*
X71881994Y10127131D01*
X71915540Y10109200D01*
X71881994Y10091269D01*
X71653803Y9903997D01*
X71466531Y9675806D01*
X71327375Y9415464D01*
X71241684Y9132977D01*
X71212749Y8839200D01*
X71241684Y8545423D01*
X71327375Y8262936D01*
X71466531Y8002594D01*
X71653803Y7774403D01*
X71661865Y7767786D01*
X71610820Y7752302D01*
X71500506Y7693337D01*
X71403815Y7613985D01*
X71324463Y7517294D01*
X71265498Y7406980D01*
X71229188Y7287282D01*
X71216928Y7162800D01*
X71216928Y5435600D01*
X71229188Y5311118D01*
X71265498Y5191420D01*
X71324463Y5081106D01*
X71403815Y4984415D01*
X71500506Y4905063D01*
X71610820Y4846098D01*
X71730518Y4809788D01*
X71855000Y4797528D01*
X74105000Y4797528D01*
X74229482Y4809788D01*
X74349180Y4846098D01*
X74459494Y4905063D01*
X74556185Y4984415D01*
X74635537Y5081106D01*
X74694502Y5191420D01*
X74730812Y5311118D01*
X74743072Y5435600D01*
X74743072Y7162800D01*
X74730812Y7287282D01*
X74694502Y7406980D01*
X74635537Y7517294D01*
X74556185Y7613985D01*
X74459494Y7693337D01*
X74349180Y7752302D01*
X74298135Y7767786D01*
X74306197Y7774403D01*
X74493469Y8002594D01*
X74632625Y8262936D01*
X74718316Y8545423D01*
X74747251Y8839200D01*
X74718316Y9132977D01*
X74632625Y9415464D01*
X74493469Y9675806D01*
X74306197Y9903997D01*
X74078006Y10091269D01*
X74044460Y10109200D01*
X74078006Y10127131D01*
X74306197Y10314403D01*
X74493469Y10542594D01*
X74632625Y10802936D01*
X74718316Y11085423D01*
X74747251Y11379200D01*
X74718316Y11672977D01*
X74632625Y11955464D01*
X74493469Y12215806D01*
X74306197Y12443997D01*
X74078006Y12631269D01*
X74044460Y12649200D01*
X74078006Y12667131D01*
X74306197Y12854403D01*
X74493469Y13082594D01*
X74632625Y13342936D01*
X74718316Y13625423D01*
X74747251Y13919200D01*
X74718316Y14212977D01*
X74632625Y14495464D01*
X74493469Y14755806D01*
X74306197Y14983997D01*
X74078006Y15171269D01*
X74044460Y15189200D01*
X74078006Y15207131D01*
X74306197Y15394403D01*
X74493469Y15622594D01*
X74574932Y15775000D01*
X76167741Y15775000D01*
X76051716Y15633623D01*
X75946324Y15436446D01*
X75881423Y15222498D01*
X75865000Y15055751D01*
X75865001Y9055761D01*
X75859509Y9000000D01*
X75881423Y8777502D01*
X75946324Y8563554D01*
X75961366Y8535413D01*
X76051717Y8366377D01*
X76193552Y8193551D01*
X76236860Y8158009D01*
X78658009Y5736859D01*
X78693551Y5693551D01*
X78819130Y5590491D01*
X78866377Y5551716D01*
X79063553Y5446324D01*
X79277501Y5381423D01*
X79500000Y5359509D01*
X79555751Y5365000D01*
X81055752Y5365000D01*
X81222499Y5381423D01*
X81436447Y5446324D01*
X81603894Y5535826D01*
X78333369Y2265300D01*
X67969243Y2265300D01*
X68192012Y2598698D01*
X68352953Y2987244D01*
X68435000Y3399721D01*
X68435000Y3820279D01*
X68352953Y4232756D01*
X68192012Y4621302D01*
X67958363Y4970983D01*
X67660983Y5268363D01*
X67311302Y5502012D01*
X66922756Y5662953D01*
X66510279Y5745000D01*
X66089721Y5745000D01*
X65677244Y5662953D01*
X65288698Y5502012D01*
X64939017Y5268363D01*
X64641637Y4970983D01*
X64407988Y4621302D01*
X64247047Y4232756D01*
X64165000Y3820279D01*
X64165000Y3399721D01*
X64247047Y2987244D01*
X64407988Y2598698D01*
X64630757Y2265300D01*
X36969243Y2265300D01*
X37192012Y2598698D01*
X37352953Y2987244D01*
X37435000Y3399721D01*
X37435000Y3820279D01*
X37352953Y4232756D01*
X37192012Y4621302D01*
X36958363Y4970983D01*
X36660983Y5268363D01*
X36311302Y5502012D01*
X35922756Y5662953D01*
X35510279Y5745000D01*
X35089721Y5745000D01*
X34677244Y5662953D01*
X34288698Y5502012D01*
X33939017Y5268363D01*
X33641637Y4970983D01*
X33407988Y4621302D01*
X33247047Y4232756D01*
X33165000Y3820279D01*
X33165000Y3399721D01*
X33247047Y2987244D01*
X33407988Y2598698D01*
X33630757Y2265300D01*
X28839832Y2265300D01*
X25441996Y5663135D01*
X25406449Y5706449D01*
X25233623Y5848284D01*
X25036447Y5953676D01*
X24822499Y6018577D01*
X24655752Y6035000D01*
X24655751Y6035000D01*
X24600000Y6040491D01*
X24544249Y6035000D01*
X19755751Y6035000D01*
X19699999Y6040491D01*
X19644248Y6035000D01*
X19477501Y6018577D01*
X19263553Y5953676D01*
X19066377Y5848284D01*
X18893551Y5706449D01*
X18885000Y5696030D01*
X18885000Y6264587D01*
X24994192Y6264587D01*
X25089956Y6000186D01*
X25379571Y5859296D01*
X25691108Y5777616D01*
X26012595Y5758282D01*
X26331675Y5802039D01*
X26636088Y5907205D01*
X26810044Y6000186D01*
X26905808Y6264587D01*
X25950000Y7220395D01*
X24994192Y6264587D01*
X18885000Y6264587D01*
X18885000Y7337405D01*
X24308282Y7337405D01*
X24352039Y7018325D01*
X24457205Y6713912D01*
X24550186Y6539956D01*
X24814587Y6444192D01*
X25770395Y7400000D01*
X26129605Y7400000D01*
X27085413Y6444192D01*
X27349814Y6539956D01*
X27490704Y6829571D01*
X27572384Y7141108D01*
X27591718Y7462595D01*
X27547961Y7781675D01*
X27442795Y8086088D01*
X27349814Y8260044D01*
X27085413Y8355808D01*
X26129605Y7400000D01*
X25770395Y7400000D01*
X24814587Y8355808D01*
X24550186Y8260044D01*
X24409296Y7970429D01*
X24327616Y7658892D01*
X24308282Y7337405D01*
X18885000Y7337405D01*
X18885000Y8535413D01*
X24994192Y8535413D01*
X25950000Y7579605D01*
X26905808Y8535413D01*
X26810044Y8799814D01*
X26520429Y8940704D01*
X26208892Y9022384D01*
X25887405Y9041718D01*
X25568325Y8997961D01*
X25263912Y8892795D01*
X25089956Y8799814D01*
X24994192Y8535413D01*
X18885000Y8535413D01*
X18885000Y11061033D01*
X24315000Y11061033D01*
X24315000Y10738967D01*
X24377832Y10423088D01*
X24501082Y10125537D01*
X24680013Y9857748D01*
X24907748Y9630013D01*
X25175537Y9451082D01*
X25473088Y9327832D01*
X25788967Y9265000D01*
X26111033Y9265000D01*
X26426912Y9327832D01*
X26724463Y9451082D01*
X26992252Y9630013D01*
X27219987Y9857748D01*
X27398918Y10125537D01*
X27522168Y10423088D01*
X27585000Y10738967D01*
X27585000Y10929869D01*
X31243141Y14588009D01*
X31286449Y14623551D01*
X31428284Y14796377D01*
X31533676Y14993553D01*
X31598577Y15207501D01*
X31615000Y15374248D01*
X31615000Y15374257D01*
X31620490Y15429999D01*
X31615000Y15485741D01*
X31615000Y23831178D01*
X31713491Y23896987D01*
X31983013Y24166509D01*
X32194775Y24483434D01*
X32340639Y24835581D01*
X32415000Y25209419D01*
X32415000Y25590581D01*
X32340639Y25964419D01*
X32194775Y26316566D01*
X31983013Y26633491D01*
X31713491Y26903013D01*
X31396566Y27114775D01*
X31044419Y27260639D01*
X30670581Y27335000D01*
X30289419Y27335000D01*
X29915581Y27260639D01*
X29563434Y27114775D01*
X29246509Y26903013D01*
X28976987Y26633491D01*
X28765225Y26316566D01*
X28619361Y25964419D01*
X28545000Y25590581D01*
X28545000Y25209419D01*
X28619361Y24835581D01*
X28765225Y24483434D01*
X28976987Y24166509D01*
X29246509Y23896987D01*
X29345000Y23831177D01*
X29345001Y15900133D01*
X25979869Y12535000D01*
X25788967Y12535000D01*
X25473088Y12472168D01*
X25175537Y12348918D01*
X24907748Y12169987D01*
X24680013Y11942252D01*
X24501082Y11674463D01*
X24377832Y11376912D01*
X24315000Y11061033D01*
X18885000Y11061033D01*
X18885000Y11637271D01*
X18966564Y11736657D01*
X19071956Y11933833D01*
X19124603Y12107386D01*
X19136857Y12147780D01*
X19139044Y12169987D01*
X19153280Y12314528D01*
X19153280Y12314535D01*
X19158770Y12370279D01*
X19153280Y12426023D01*
X19153280Y19879869D01*
X21083146Y21809733D01*
X21126449Y21845271D01*
X21166644Y21894248D01*
X21268284Y22018097D01*
X21373676Y22215273D01*
X21438577Y22429221D01*
X21460491Y22651720D01*
X21455000Y22707472D01*
X21455000Y23777379D01*
X21564180Y23810498D01*
X21674494Y23869463D01*
X21771185Y23948815D01*
X21850537Y24045506D01*
X21909502Y24155820D01*
X21945812Y24275518D01*
X21958072Y24400000D01*
X21958072Y25561033D01*
X23765000Y25561033D01*
X23765000Y25238967D01*
X23827832Y24923088D01*
X23951082Y24625537D01*
X24130013Y24357748D01*
X24265000Y24222761D01*
X24265001Y22005761D01*
X24259509Y21950000D01*
X24281423Y21727502D01*
X24321701Y21594723D01*
X24315000Y21561033D01*
X24315000Y21238967D01*
X24377832Y20923088D01*
X24501082Y20625537D01*
X24680013Y20357748D01*
X24815000Y20222761D01*
X24815001Y19077240D01*
X24680013Y18942252D01*
X24501082Y18674463D01*
X24377832Y18376912D01*
X24315000Y18061033D01*
X24315000Y17738967D01*
X24377832Y17423088D01*
X24501082Y17125537D01*
X24680013Y16857748D01*
X24907748Y16630013D01*
X25175537Y16451082D01*
X25473088Y16327832D01*
X25788967Y16265000D01*
X26111033Y16265000D01*
X26426912Y16327832D01*
X26724463Y16451082D01*
X26992252Y16630013D01*
X27219987Y16857748D01*
X27398918Y17125537D01*
X27522168Y17423088D01*
X27585000Y17738967D01*
X27585000Y18061033D01*
X27522168Y18376912D01*
X27398918Y18674463D01*
X27219987Y18942252D01*
X27085000Y19077239D01*
X27085000Y20222761D01*
X27219987Y20357748D01*
X27398918Y20625537D01*
X27522168Y20923088D01*
X27585000Y21238967D01*
X27585000Y21561033D01*
X27522168Y21876912D01*
X27398918Y22174463D01*
X27219987Y22442252D01*
X26992252Y22669987D01*
X26724463Y22848918D01*
X26535000Y22927396D01*
X26535000Y24222761D01*
X26669987Y24357748D01*
X26848918Y24625537D01*
X26972168Y24923088D01*
X27035000Y25238967D01*
X27035000Y25429869D01*
X29291988Y27686856D01*
X29291992Y27686861D01*
X30147060Y28541928D01*
X31130000Y28541928D01*
X31381290Y28566678D01*
X31622924Y28639977D01*
X31845614Y28759007D01*
X32040804Y28919196D01*
X32200993Y29114386D01*
X32320023Y29337076D01*
X32393322Y29578710D01*
X32418072Y29830000D01*
X32418072Y31130000D01*
X32393322Y31381290D01*
X32320023Y31622924D01*
X32200993Y31845614D01*
X32040804Y32040804D01*
X31845614Y32200993D01*
X31622924Y32320023D01*
X31381290Y32393322D01*
X31130000Y32418072D01*
X29830000Y32418072D01*
X29578710Y32393322D01*
X29337076Y32320023D01*
X29114386Y32200993D01*
X28919196Y32040804D01*
X28759007Y31845614D01*
X28639977Y31622924D01*
X28566678Y31381290D01*
X28541928Y31130000D01*
X28541928Y30147060D01*
X27686861Y29291992D01*
X27686856Y29291988D01*
X25429869Y27035000D01*
X25238967Y27035000D01*
X24923088Y26972168D01*
X24625537Y26848918D01*
X24357748Y26669987D01*
X24130013Y26442252D01*
X23951082Y26174463D01*
X23827832Y25876912D01*
X23765000Y25561033D01*
X21958072Y25561033D01*
X21958072Y26400000D01*
X21945812Y26524482D01*
X21909502Y26644180D01*
X21850537Y26754494D01*
X21771185Y26851185D01*
X21674494Y26930537D01*
X21564180Y26989502D01*
X21444482Y27025812D01*
X21320000Y27038072D01*
X19320000Y27038072D01*
X19195518Y27025812D01*
X19135000Y27007454D01*
X19135000Y27365000D01*
X23944249Y27365000D01*
X24000000Y27359509D01*
X24055751Y27365000D01*
X24055752Y27365000D01*
X24222499Y27381423D01*
X24436447Y27446324D01*
X24633623Y27551716D01*
X24806449Y27693551D01*
X24841996Y27736865D01*
X27263141Y30158009D01*
X27306449Y30193551D01*
X27448284Y30366377D01*
X27553676Y30563553D01*
X27618577Y30777501D01*
X27635000Y30944248D01*
X27640491Y31000000D01*
X27635000Y31055751D01*
X27635000Y34029869D01*
X28671466Y35066335D01*
X29045000Y35066335D01*
X29045000Y34783665D01*
X29100147Y34506426D01*
X29208320Y34245273D01*
X29365363Y34010241D01*
X29565241Y33810363D01*
X29800273Y33653320D01*
X30061426Y33545147D01*
X30338665Y33490000D01*
X30621335Y33490000D01*
X30898574Y33545147D01*
X31159727Y33653320D01*
X31394759Y33810363D01*
X31594637Y34010241D01*
X31714748Y34190000D01*
X32770554Y34190000D01*
X34265000Y32695553D01*
X34265001Y12728712D01*
X34196063Y12659774D01*
X34082795Y12490256D01*
X34004774Y12301898D01*
X33965000Y12101939D01*
X33965000Y11898061D01*
X34004774Y11698102D01*
X34082795Y11509744D01*
X34196063Y11340226D01*
X34340226Y11196063D01*
X34509744Y11082795D01*
X34698102Y11004774D01*
X34898061Y10965000D01*
X35101939Y10965000D01*
X35301898Y11004774D01*
X35490256Y11082795D01*
X35659774Y11196063D01*
X35803937Y11340226D01*
X35917205Y11509744D01*
X35995226Y11698102D01*
X36035000Y11898061D01*
X36035000Y11935476D01*
X36101026Y11935476D01*
X36300985Y11975250D01*
X36489343Y12053271D01*
X36658861Y12166539D01*
X36803024Y12310702D01*
X36916292Y12480220D01*
X36994313Y12668578D01*
X37034087Y12868537D01*
X37034087Y12898638D01*
X37224194Y13088745D01*
X37252239Y13111761D01*
X37344088Y13223679D01*
X37412338Y13351366D01*
X37454366Y13489914D01*
X37465001Y13597894D01*
X37465001Y13597903D01*
X37468556Y13633998D01*
X37465001Y13670093D01*
X37465001Y13815000D01*
X37601939Y13815000D01*
X37801898Y13854774D01*
X37990256Y13932795D01*
X38159774Y14046063D01*
X38303937Y14190226D01*
X38417205Y14359744D01*
X38495226Y14548102D01*
X38535000Y14748061D01*
X38535000Y14951939D01*
X38495226Y15151898D01*
X38417205Y15340256D01*
X38303937Y15509774D01*
X38224883Y15588828D01*
X38224365Y15594085D01*
X38182337Y15732633D01*
X38114087Y15860320D01*
X38022238Y15972238D01*
X37994187Y15995259D01*
X37985000Y16004446D01*
X37985000Y23813895D01*
X37988556Y23850000D01*
X37974365Y23994085D01*
X37932337Y24132634D01*
X37864087Y24260320D01*
X37795253Y24344194D01*
X37772238Y24372238D01*
X37744193Y24395254D01*
X37135000Y25004446D01*
X37135000Y33715000D01*
X50245554Y33715000D01*
X50354741Y33605813D01*
X50377762Y33577762D01*
X50489680Y33485913D01*
X50617366Y33417663D01*
X50690946Y33395343D01*
X50790226Y33296063D01*
X50959744Y33182795D01*
X51148102Y33104774D01*
X51348061Y33065000D01*
X51551939Y33065000D01*
X51559301Y33066464D01*
X51582795Y33009744D01*
X51696063Y32840226D01*
X51840226Y32696063D01*
X52009744Y32582795D01*
X52198102Y32504774D01*
X52398061Y32465000D01*
X52601939Y32465000D01*
X52801898Y32504774D01*
X52912206Y32550465D01*
X52944913Y32510612D01*
X52972959Y32487595D01*
X53465000Y31995553D01*
X53465000Y31898061D01*
X53504774Y31698102D01*
X53582795Y31509744D01*
X53696063Y31340226D01*
X53840226Y31196063D01*
X54009744Y31082795D01*
X54198102Y31004774D01*
X54398061Y30965000D01*
X54601939Y30965000D01*
X54801898Y31004774D01*
X54990256Y31082795D01*
X55159774Y31196063D01*
X55303937Y31340226D01*
X55417205Y31509744D01*
X55495226Y31698102D01*
X55535000Y31898061D01*
X55535000Y32101939D01*
X55495226Y32301898D01*
X55417205Y32490256D01*
X55303937Y32659774D01*
X55213711Y32750000D01*
X55303937Y32840226D01*
X55417205Y33009744D01*
X55495226Y33198102D01*
X55535000Y33398061D01*
X55535000Y33601939D01*
X55495226Y33801898D01*
X55417205Y33990256D01*
X55303937Y34159774D01*
X55159774Y34303937D01*
X54990256Y34417205D01*
X54801898Y34495226D01*
X54601939Y34535000D01*
X54504447Y34535000D01*
X52545259Y36494188D01*
X52522238Y36522238D01*
X52410320Y36614087D01*
X52282633Y36682337D01*
X52144085Y36724365D01*
X52036105Y36735000D01*
X52000000Y36738556D01*
X51963895Y36735000D01*
X31591105Y36735000D01*
X31555000Y36738556D01*
X31410915Y36724365D01*
X31272366Y36682337D01*
X31181740Y36633896D01*
X31144680Y36614087D01*
X31032762Y36522238D01*
X31009746Y36494193D01*
X30833375Y36317822D01*
X30621335Y36360000D01*
X30338665Y36360000D01*
X30061426Y36304853D01*
X29800273Y36196680D01*
X29565241Y36039637D01*
X29365363Y35839759D01*
X29208320Y35604727D01*
X29100147Y35343574D01*
X29045000Y35066335D01*
X28671466Y35066335D01*
X28841988Y35236856D01*
X28948283Y35366376D01*
X29053675Y35563552D01*
X29118576Y35777500D01*
X29140490Y35999999D01*
X29118576Y36222498D01*
X29053675Y36436446D01*
X28948283Y36633622D01*
X28806448Y36806448D01*
X28633622Y36948283D01*
X28436446Y37053675D01*
X28222498Y37118576D01*
X27999999Y37140490D01*
X27777500Y37118576D01*
X27563552Y37053675D01*
X27394023Y36963060D01*
X28796803Y38365840D01*
X51333300Y38365840D01*
X70030522Y19668617D01*
G37*
X70030522Y19668617D02*
X70053538Y19640572D01*
X70165456Y19548723D01*
X70293143Y19480473D01*
X70431691Y19438445D01*
X70575776Y19424254D01*
X70611881Y19427810D01*
X71282585Y19427810D01*
X71241684Y19292977D01*
X71212749Y18999200D01*
X71241684Y18705423D01*
X71327375Y18422936D01*
X71466531Y18162594D01*
X71653803Y17934403D01*
X71881994Y17747131D01*
X71915540Y17729200D01*
X71881994Y17711269D01*
X71653803Y17523997D01*
X71466531Y17295806D01*
X71327375Y17035464D01*
X71241684Y16752977D01*
X71212749Y16459200D01*
X71241684Y16165423D01*
X71327375Y15882936D01*
X71466531Y15622594D01*
X71653803Y15394403D01*
X71881994Y15207131D01*
X71915540Y15189200D01*
X71881994Y15171269D01*
X71653803Y14983997D01*
X71466531Y14755806D01*
X71327375Y14495464D01*
X71241684Y14212977D01*
X71212749Y13919200D01*
X71241684Y13625423D01*
X71327375Y13342936D01*
X71466531Y13082594D01*
X71653803Y12854403D01*
X71881994Y12667131D01*
X71915540Y12649200D01*
X71881994Y12631269D01*
X71653803Y12443997D01*
X71466531Y12215806D01*
X71327375Y11955464D01*
X71241684Y11672977D01*
X71212749Y11379200D01*
X71241684Y11085423D01*
X71327375Y10802936D01*
X71466531Y10542594D01*
X71653803Y10314403D01*
X71881994Y10127131D01*
X71915540Y10109200D01*
X71881994Y10091269D01*
X71653803Y9903997D01*
X71466531Y9675806D01*
X71327375Y9415464D01*
X71241684Y9132977D01*
X71212749Y8839200D01*
X71241684Y8545423D01*
X71327375Y8262936D01*
X71466531Y8002594D01*
X71653803Y7774403D01*
X71661865Y7767786D01*
X71610820Y7752302D01*
X71500506Y7693337D01*
X71403815Y7613985D01*
X71324463Y7517294D01*
X71265498Y7406980D01*
X71229188Y7287282D01*
X71216928Y7162800D01*
X71216928Y5435600D01*
X71229188Y5311118D01*
X71265498Y5191420D01*
X71324463Y5081106D01*
X71403815Y4984415D01*
X71500506Y4905063D01*
X71610820Y4846098D01*
X71730518Y4809788D01*
X71855000Y4797528D01*
X74105000Y4797528D01*
X74229482Y4809788D01*
X74349180Y4846098D01*
X74459494Y4905063D01*
X74556185Y4984415D01*
X74635537Y5081106D01*
X74694502Y5191420D01*
X74730812Y5311118D01*
X74743072Y5435600D01*
X74743072Y7162800D01*
X74730812Y7287282D01*
X74694502Y7406980D01*
X74635537Y7517294D01*
X74556185Y7613985D01*
X74459494Y7693337D01*
X74349180Y7752302D01*
X74298135Y7767786D01*
X74306197Y7774403D01*
X74493469Y8002594D01*
X74632625Y8262936D01*
X74718316Y8545423D01*
X74747251Y8839200D01*
X74718316Y9132977D01*
X74632625Y9415464D01*
X74493469Y9675806D01*
X74306197Y9903997D01*
X74078006Y10091269D01*
X74044460Y10109200D01*
X74078006Y10127131D01*
X74306197Y10314403D01*
X74493469Y10542594D01*
X74632625Y10802936D01*
X74718316Y11085423D01*
X74747251Y11379200D01*
X74718316Y11672977D01*
X74632625Y11955464D01*
X74493469Y12215806D01*
X74306197Y12443997D01*
X74078006Y12631269D01*
X74044460Y12649200D01*
X74078006Y12667131D01*
X74306197Y12854403D01*
X74493469Y13082594D01*
X74632625Y13342936D01*
X74718316Y13625423D01*
X74747251Y13919200D01*
X74718316Y14212977D01*
X74632625Y14495464D01*
X74493469Y14755806D01*
X74306197Y14983997D01*
X74078006Y15171269D01*
X74044460Y15189200D01*
X74078006Y15207131D01*
X74306197Y15394403D01*
X74493469Y15622594D01*
X74574932Y15775000D01*
X76167741Y15775000D01*
X76051716Y15633623D01*
X75946324Y15436446D01*
X75881423Y15222498D01*
X75865000Y15055751D01*
X75865001Y9055761D01*
X75859509Y9000000D01*
X75881423Y8777502D01*
X75946324Y8563554D01*
X75961366Y8535413D01*
X76051717Y8366377D01*
X76193552Y8193551D01*
X76236860Y8158009D01*
X78658009Y5736859D01*
X78693551Y5693551D01*
X78819130Y5590491D01*
X78866377Y5551716D01*
X79063553Y5446324D01*
X79277501Y5381423D01*
X79500000Y5359509D01*
X79555751Y5365000D01*
X81055752Y5365000D01*
X81222499Y5381423D01*
X81436447Y5446324D01*
X81603894Y5535826D01*
X78333369Y2265300D01*
X67969243Y2265300D01*
X68192012Y2598698D01*
X68352953Y2987244D01*
X68435000Y3399721D01*
X68435000Y3820279D01*
X68352953Y4232756D01*
X68192012Y4621302D01*
X67958363Y4970983D01*
X67660983Y5268363D01*
X67311302Y5502012D01*
X66922756Y5662953D01*
X66510279Y5745000D01*
X66089721Y5745000D01*
X65677244Y5662953D01*
X65288698Y5502012D01*
X64939017Y5268363D01*
X64641637Y4970983D01*
X64407988Y4621302D01*
X64247047Y4232756D01*
X64165000Y3820279D01*
X64165000Y3399721D01*
X64247047Y2987244D01*
X64407988Y2598698D01*
X64630757Y2265300D01*
X36969243Y2265300D01*
X37192012Y2598698D01*
X37352953Y2987244D01*
X37435000Y3399721D01*
X37435000Y3820279D01*
X37352953Y4232756D01*
X37192012Y4621302D01*
X36958363Y4970983D01*
X36660983Y5268363D01*
X36311302Y5502012D01*
X35922756Y5662953D01*
X35510279Y5745000D01*
X35089721Y5745000D01*
X34677244Y5662953D01*
X34288698Y5502012D01*
X33939017Y5268363D01*
X33641637Y4970983D01*
X33407988Y4621302D01*
X33247047Y4232756D01*
X33165000Y3820279D01*
X33165000Y3399721D01*
X33247047Y2987244D01*
X33407988Y2598698D01*
X33630757Y2265300D01*
X28839832Y2265300D01*
X25441996Y5663135D01*
X25406449Y5706449D01*
X25233623Y5848284D01*
X25036447Y5953676D01*
X24822499Y6018577D01*
X24655752Y6035000D01*
X24655751Y6035000D01*
X24600000Y6040491D01*
X24544249Y6035000D01*
X19755751Y6035000D01*
X19699999Y6040491D01*
X19644248Y6035000D01*
X19477501Y6018577D01*
X19263553Y5953676D01*
X19066377Y5848284D01*
X18893551Y5706449D01*
X18885000Y5696030D01*
X18885000Y6264587D01*
X24994192Y6264587D01*
X25089956Y6000186D01*
X25379571Y5859296D01*
X25691108Y5777616D01*
X26012595Y5758282D01*
X26331675Y5802039D01*
X26636088Y5907205D01*
X26810044Y6000186D01*
X26905808Y6264587D01*
X25950000Y7220395D01*
X24994192Y6264587D01*
X18885000Y6264587D01*
X18885000Y7337405D01*
X24308282Y7337405D01*
X24352039Y7018325D01*
X24457205Y6713912D01*
X24550186Y6539956D01*
X24814587Y6444192D01*
X25770395Y7400000D01*
X26129605Y7400000D01*
X27085413Y6444192D01*
X27349814Y6539956D01*
X27490704Y6829571D01*
X27572384Y7141108D01*
X27591718Y7462595D01*
X27547961Y7781675D01*
X27442795Y8086088D01*
X27349814Y8260044D01*
X27085413Y8355808D01*
X26129605Y7400000D01*
X25770395Y7400000D01*
X24814587Y8355808D01*
X24550186Y8260044D01*
X24409296Y7970429D01*
X24327616Y7658892D01*
X24308282Y7337405D01*
X18885000Y7337405D01*
X18885000Y8535413D01*
X24994192Y8535413D01*
X25950000Y7579605D01*
X26905808Y8535413D01*
X26810044Y8799814D01*
X26520429Y8940704D01*
X26208892Y9022384D01*
X25887405Y9041718D01*
X25568325Y8997961D01*
X25263912Y8892795D01*
X25089956Y8799814D01*
X24994192Y8535413D01*
X18885000Y8535413D01*
X18885000Y11061033D01*
X24315000Y11061033D01*
X24315000Y10738967D01*
X24377832Y10423088D01*
X24501082Y10125537D01*
X24680013Y9857748D01*
X24907748Y9630013D01*
X25175537Y9451082D01*
X25473088Y9327832D01*
X25788967Y9265000D01*
X26111033Y9265000D01*
X26426912Y9327832D01*
X26724463Y9451082D01*
X26992252Y9630013D01*
X27219987Y9857748D01*
X27398918Y10125537D01*
X27522168Y10423088D01*
X27585000Y10738967D01*
X27585000Y10929869D01*
X31243141Y14588009D01*
X31286449Y14623551D01*
X31428284Y14796377D01*
X31533676Y14993553D01*
X31598577Y15207501D01*
X31615000Y15374248D01*
X31615000Y15374257D01*
X31620490Y15429999D01*
X31615000Y15485741D01*
X31615000Y23831178D01*
X31713491Y23896987D01*
X31983013Y24166509D01*
X32194775Y24483434D01*
X32340639Y24835581D01*
X32415000Y25209419D01*
X32415000Y25590581D01*
X32340639Y25964419D01*
X32194775Y26316566D01*
X31983013Y26633491D01*
X31713491Y26903013D01*
X31396566Y27114775D01*
X31044419Y27260639D01*
X30670581Y27335000D01*
X30289419Y27335000D01*
X29915581Y27260639D01*
X29563434Y27114775D01*
X29246509Y26903013D01*
X28976987Y26633491D01*
X28765225Y26316566D01*
X28619361Y25964419D01*
X28545000Y25590581D01*
X28545000Y25209419D01*
X28619361Y24835581D01*
X28765225Y24483434D01*
X28976987Y24166509D01*
X29246509Y23896987D01*
X29345000Y23831177D01*
X29345001Y15900133D01*
X25979869Y12535000D01*
X25788967Y12535000D01*
X25473088Y12472168D01*
X25175537Y12348918D01*
X24907748Y12169987D01*
X24680013Y11942252D01*
X24501082Y11674463D01*
X24377832Y11376912D01*
X24315000Y11061033D01*
X18885000Y11061033D01*
X18885000Y11637271D01*
X18966564Y11736657D01*
X19071956Y11933833D01*
X19124603Y12107386D01*
X19136857Y12147780D01*
X19139044Y12169987D01*
X19153280Y12314528D01*
X19153280Y12314535D01*
X19158770Y12370279D01*
X19153280Y12426023D01*
X19153280Y19879869D01*
X21083146Y21809733D01*
X21126449Y21845271D01*
X21166644Y21894248D01*
X21268284Y22018097D01*
X21373676Y22215273D01*
X21438577Y22429221D01*
X21460491Y22651720D01*
X21455000Y22707472D01*
X21455000Y23777379D01*
X21564180Y23810498D01*
X21674494Y23869463D01*
X21771185Y23948815D01*
X21850537Y24045506D01*
X21909502Y24155820D01*
X21945812Y24275518D01*
X21958072Y24400000D01*
X21958072Y25561033D01*
X23765000Y25561033D01*
X23765000Y25238967D01*
X23827832Y24923088D01*
X23951082Y24625537D01*
X24130013Y24357748D01*
X24265000Y24222761D01*
X24265001Y22005761D01*
X24259509Y21950000D01*
X24281423Y21727502D01*
X24321701Y21594723D01*
X24315000Y21561033D01*
X24315000Y21238967D01*
X24377832Y20923088D01*
X24501082Y20625537D01*
X24680013Y20357748D01*
X24815000Y20222761D01*
X24815001Y19077240D01*
X24680013Y18942252D01*
X24501082Y18674463D01*
X24377832Y18376912D01*
X24315000Y18061033D01*
X24315000Y17738967D01*
X24377832Y17423088D01*
X24501082Y17125537D01*
X24680013Y16857748D01*
X24907748Y16630013D01*
X25175537Y16451082D01*
X25473088Y16327832D01*
X25788967Y16265000D01*
X26111033Y16265000D01*
X26426912Y16327832D01*
X26724463Y16451082D01*
X26992252Y16630013D01*
X27219987Y16857748D01*
X27398918Y17125537D01*
X27522168Y17423088D01*
X27585000Y17738967D01*
X27585000Y18061033D01*
X27522168Y18376912D01*
X27398918Y18674463D01*
X27219987Y18942252D01*
X27085000Y19077239D01*
X27085000Y20222761D01*
X27219987Y20357748D01*
X27398918Y20625537D01*
X27522168Y20923088D01*
X27585000Y21238967D01*
X27585000Y21561033D01*
X27522168Y21876912D01*
X27398918Y22174463D01*
X27219987Y22442252D01*
X26992252Y22669987D01*
X26724463Y22848918D01*
X26535000Y22927396D01*
X26535000Y24222761D01*
X26669987Y24357748D01*
X26848918Y24625537D01*
X26972168Y24923088D01*
X27035000Y25238967D01*
X27035000Y25429869D01*
X29291988Y27686856D01*
X29291992Y27686861D01*
X30147060Y28541928D01*
X31130000Y28541928D01*
X31381290Y28566678D01*
X31622924Y28639977D01*
X31845614Y28759007D01*
X32040804Y28919196D01*
X32200993Y29114386D01*
X32320023Y29337076D01*
X32393322Y29578710D01*
X32418072Y29830000D01*
X32418072Y31130000D01*
X32393322Y31381290D01*
X32320023Y31622924D01*
X32200993Y31845614D01*
X32040804Y32040804D01*
X31845614Y32200993D01*
X31622924Y32320023D01*
X31381290Y32393322D01*
X31130000Y32418072D01*
X29830000Y32418072D01*
X29578710Y32393322D01*
X29337076Y32320023D01*
X29114386Y32200993D01*
X28919196Y32040804D01*
X28759007Y31845614D01*
X28639977Y31622924D01*
X28566678Y31381290D01*
X28541928Y31130000D01*
X28541928Y30147060D01*
X27686861Y29291992D01*
X27686856Y29291988D01*
X25429869Y27035000D01*
X25238967Y27035000D01*
X24923088Y26972168D01*
X24625537Y26848918D01*
X24357748Y26669987D01*
X24130013Y26442252D01*
X23951082Y26174463D01*
X23827832Y25876912D01*
X23765000Y25561033D01*
X21958072Y25561033D01*
X21958072Y26400000D01*
X21945812Y26524482D01*
X21909502Y26644180D01*
X21850537Y26754494D01*
X21771185Y26851185D01*
X21674494Y26930537D01*
X21564180Y26989502D01*
X21444482Y27025812D01*
X21320000Y27038072D01*
X19320000Y27038072D01*
X19195518Y27025812D01*
X19135000Y27007454D01*
X19135000Y27365000D01*
X23944249Y27365000D01*
X24000000Y27359509D01*
X24055751Y27365000D01*
X24055752Y27365000D01*
X24222499Y27381423D01*
X24436447Y27446324D01*
X24633623Y27551716D01*
X24806449Y27693551D01*
X24841996Y27736865D01*
X27263141Y30158009D01*
X27306449Y30193551D01*
X27448284Y30366377D01*
X27553676Y30563553D01*
X27618577Y30777501D01*
X27635000Y30944248D01*
X27640491Y31000000D01*
X27635000Y31055751D01*
X27635000Y34029869D01*
X28671466Y35066335D01*
X29045000Y35066335D01*
X29045000Y34783665D01*
X29100147Y34506426D01*
X29208320Y34245273D01*
X29365363Y34010241D01*
X29565241Y33810363D01*
X29800273Y33653320D01*
X30061426Y33545147D01*
X30338665Y33490000D01*
X30621335Y33490000D01*
X30898574Y33545147D01*
X31159727Y33653320D01*
X31394759Y33810363D01*
X31594637Y34010241D01*
X31714748Y34190000D01*
X32770554Y34190000D01*
X34265000Y32695553D01*
X34265001Y12728712D01*
X34196063Y12659774D01*
X34082795Y12490256D01*
X34004774Y12301898D01*
X33965000Y12101939D01*
X33965000Y11898061D01*
X34004774Y11698102D01*
X34082795Y11509744D01*
X34196063Y11340226D01*
X34340226Y11196063D01*
X34509744Y11082795D01*
X34698102Y11004774D01*
X34898061Y10965000D01*
X35101939Y10965000D01*
X35301898Y11004774D01*
X35490256Y11082795D01*
X35659774Y11196063D01*
X35803937Y11340226D01*
X35917205Y11509744D01*
X35995226Y11698102D01*
X36035000Y11898061D01*
X36035000Y11935476D01*
X36101026Y11935476D01*
X36300985Y11975250D01*
X36489343Y12053271D01*
X36658861Y12166539D01*
X36803024Y12310702D01*
X36916292Y12480220D01*
X36994313Y12668578D01*
X37034087Y12868537D01*
X37034087Y12898638D01*
X37224194Y13088745D01*
X37252239Y13111761D01*
X37344088Y13223679D01*
X37412338Y13351366D01*
X37454366Y13489914D01*
X37465001Y13597894D01*
X37465001Y13597903D01*
X37468556Y13633998D01*
X37465001Y13670093D01*
X37465001Y13815000D01*
X37601939Y13815000D01*
X37801898Y13854774D01*
X37990256Y13932795D01*
X38159774Y14046063D01*
X38303937Y14190226D01*
X38417205Y14359744D01*
X38495226Y14548102D01*
X38535000Y14748061D01*
X38535000Y14951939D01*
X38495226Y15151898D01*
X38417205Y15340256D01*
X38303937Y15509774D01*
X38224883Y15588828D01*
X38224365Y15594085D01*
X38182337Y15732633D01*
X38114087Y15860320D01*
X38022238Y15972238D01*
X37994187Y15995259D01*
X37985000Y16004446D01*
X37985000Y23813895D01*
X37988556Y23850000D01*
X37974365Y23994085D01*
X37932337Y24132634D01*
X37864087Y24260320D01*
X37795253Y24344194D01*
X37772238Y24372238D01*
X37744193Y24395254D01*
X37135000Y25004446D01*
X37135000Y33715000D01*
X50245554Y33715000D01*
X50354741Y33605813D01*
X50377762Y33577762D01*
X50489680Y33485913D01*
X50617366Y33417663D01*
X50690946Y33395343D01*
X50790226Y33296063D01*
X50959744Y33182795D01*
X51148102Y33104774D01*
X51348061Y33065000D01*
X51551939Y33065000D01*
X51559301Y33066464D01*
X51582795Y33009744D01*
X51696063Y32840226D01*
X51840226Y32696063D01*
X52009744Y32582795D01*
X52198102Y32504774D01*
X52398061Y32465000D01*
X52601939Y32465000D01*
X52801898Y32504774D01*
X52912206Y32550465D01*
X52944913Y32510612D01*
X52972959Y32487595D01*
X53465000Y31995553D01*
X53465000Y31898061D01*
X53504774Y31698102D01*
X53582795Y31509744D01*
X53696063Y31340226D01*
X53840226Y31196063D01*
X54009744Y31082795D01*
X54198102Y31004774D01*
X54398061Y30965000D01*
X54601939Y30965000D01*
X54801898Y31004774D01*
X54990256Y31082795D01*
X55159774Y31196063D01*
X55303937Y31340226D01*
X55417205Y31509744D01*
X55495226Y31698102D01*
X55535000Y31898061D01*
X55535000Y32101939D01*
X55495226Y32301898D01*
X55417205Y32490256D01*
X55303937Y32659774D01*
X55213711Y32750000D01*
X55303937Y32840226D01*
X55417205Y33009744D01*
X55495226Y33198102D01*
X55535000Y33398061D01*
X55535000Y33601939D01*
X55495226Y33801898D01*
X55417205Y33990256D01*
X55303937Y34159774D01*
X55159774Y34303937D01*
X54990256Y34417205D01*
X54801898Y34495226D01*
X54601939Y34535000D01*
X54504447Y34535000D01*
X52545259Y36494188D01*
X52522238Y36522238D01*
X52410320Y36614087D01*
X52282633Y36682337D01*
X52144085Y36724365D01*
X52036105Y36735000D01*
X52000000Y36738556D01*
X51963895Y36735000D01*
X31591105Y36735000D01*
X31555000Y36738556D01*
X31410915Y36724365D01*
X31272366Y36682337D01*
X31181740Y36633896D01*
X31144680Y36614087D01*
X31032762Y36522238D01*
X31009746Y36494193D01*
X30833375Y36317822D01*
X30621335Y36360000D01*
X30338665Y36360000D01*
X30061426Y36304853D01*
X29800273Y36196680D01*
X29565241Y36039637D01*
X29365363Y35839759D01*
X29208320Y35604727D01*
X29100147Y35343574D01*
X29045000Y35066335D01*
X28671466Y35066335D01*
X28841988Y35236856D01*
X28948283Y35366376D01*
X29053675Y35563552D01*
X29118576Y35777500D01*
X29140490Y35999999D01*
X29118576Y36222498D01*
X29053675Y36436446D01*
X28948283Y36633622D01*
X28806448Y36806448D01*
X28633622Y36948283D01*
X28436446Y37053675D01*
X28222498Y37118576D01*
X27999999Y37140490D01*
X27777500Y37118576D01*
X27563552Y37053675D01*
X27394023Y36963060D01*
X28796803Y38365840D01*
X51333300Y38365840D01*
X70030522Y19668617D01*
G36*
X86567375Y17035464D02*
G01*
X86481684Y16752977D01*
X86452749Y16459200D01*
X86481684Y16165423D01*
X86567375Y15882936D01*
X86706531Y15622594D01*
X86893803Y15394403D01*
X87121994Y15207131D01*
X87155540Y15189200D01*
X87121994Y15171269D01*
X86893803Y14983997D01*
X86706531Y14755806D01*
X86567375Y14495464D01*
X86481684Y14212977D01*
X86452749Y13919200D01*
X86481684Y13625423D01*
X86567375Y13342936D01*
X86706531Y13082594D01*
X86893803Y12854403D01*
X87121994Y12667131D01*
X87155540Y12649200D01*
X87121994Y12631269D01*
X86979345Y12514200D01*
X86245571Y12514200D01*
X86189819Y12519691D01*
X85967320Y12497777D01*
X85917525Y12482671D01*
X85753373Y12432876D01*
X85556197Y12327484D01*
X85383371Y12185649D01*
X85347828Y12142340D01*
X84159225Y10953736D01*
X84115911Y10918189D01*
X83974076Y10745363D01*
X83904961Y10616056D01*
X83868684Y10548186D01*
X83803783Y10334238D01*
X83781869Y10111740D01*
X83787360Y10055988D01*
X83787361Y7719293D01*
X81964174Y5896106D01*
X82053676Y6063553D01*
X82118577Y6277501D01*
X82140491Y6500000D01*
X82118577Y6722499D01*
X82053676Y6936447D01*
X81948284Y7133623D01*
X81806449Y7306449D01*
X81633623Y7448284D01*
X81436447Y7553676D01*
X81222499Y7618577D01*
X81055752Y7635000D01*
X79970132Y7635000D01*
X78945400Y8659731D01*
X79192401Y8610600D01*
X79487599Y8610600D01*
X79777125Y8668190D01*
X80049853Y8781158D01*
X80295302Y8945161D01*
X80504039Y9153898D01*
X80610000Y9312481D01*
X80715961Y9153898D01*
X80924698Y8945161D01*
X81170147Y8781158D01*
X81442875Y8668190D01*
X81732401Y8610600D01*
X82027599Y8610600D01*
X82317125Y8668190D01*
X82589853Y8781158D01*
X82835302Y8945161D01*
X83044039Y9153898D01*
X83208042Y9399347D01*
X83321010Y9672075D01*
X83378600Y9961601D01*
X83378600Y10256799D01*
X83321010Y10546325D01*
X83208042Y10819053D01*
X83044039Y11064502D01*
X82835302Y11273239D01*
X82589853Y11437242D01*
X82317125Y11550210D01*
X82027599Y11607800D01*
X81732401Y11607800D01*
X81442875Y11550210D01*
X81170147Y11437242D01*
X80924698Y11273239D01*
X80715961Y11064502D01*
X80610000Y10905919D01*
X80504039Y11064502D01*
X80295302Y11273239D01*
X80049853Y11437242D01*
X79777125Y11550210D01*
X79487599Y11607800D01*
X79192401Y11607800D01*
X78902875Y11550210D01*
X78630147Y11437242D01*
X78384698Y11273239D01*
X78175961Y11064502D01*
X78135000Y11003199D01*
X78135000Y12780000D01*
X78261928Y12780000D01*
X78274188Y12655518D01*
X78310498Y12535820D01*
X78369463Y12425506D01*
X78448815Y12328815D01*
X78545506Y12249463D01*
X78655820Y12190498D01*
X78775518Y12154188D01*
X78900000Y12141928D01*
X80714250Y12145000D01*
X80873000Y12303750D01*
X80873000Y13653000D01*
X81127000Y13653000D01*
X81127000Y12303750D01*
X81285750Y12145000D01*
X83100000Y12141928D01*
X83224482Y12154188D01*
X83344180Y12190498D01*
X83454494Y12249463D01*
X83551185Y12328815D01*
X83630537Y12425506D01*
X83689502Y12535820D01*
X83725812Y12655518D01*
X83738072Y12780000D01*
X83735000Y13494250D01*
X83576250Y13653000D01*
X81127000Y13653000D01*
X80873000Y13653000D01*
X78423750Y13653000D01*
X78265000Y13494250D01*
X78261928Y12780000D01*
X78135000Y12780000D01*
X78135000Y14780000D01*
X78261928Y14780000D01*
X78265000Y14065750D01*
X78423750Y13907000D01*
X80873000Y13907000D01*
X80873000Y15256250D01*
X81127000Y15256250D01*
X81127000Y13907000D01*
X83576250Y13907000D01*
X83735000Y14065750D01*
X83738072Y14780000D01*
X83725812Y14904482D01*
X83689502Y15024180D01*
X83630537Y15134494D01*
X83551185Y15231185D01*
X83454494Y15310537D01*
X83344180Y15369502D01*
X83224482Y15405812D01*
X83100000Y15418072D01*
X81285750Y15415000D01*
X81127000Y15256250D01*
X80873000Y15256250D01*
X80714250Y15415000D01*
X78900000Y15418072D01*
X78775518Y15405812D01*
X78655820Y15369502D01*
X78545506Y15310537D01*
X78448815Y15231185D01*
X78369463Y15134494D01*
X78310498Y15024180D01*
X78274188Y14904482D01*
X78261928Y14780000D01*
X78135000Y14780000D01*
X78135000Y15055752D01*
X78118577Y15222499D01*
X78053676Y15436447D01*
X77948284Y15633623D01*
X77832259Y15775000D01*
X83672715Y15775000D01*
X83708820Y15771444D01*
X83744925Y15775000D01*
X83852905Y15785635D01*
X83991453Y15827663D01*
X84119140Y15895913D01*
X84231058Y15987762D01*
X84254078Y16015812D01*
X85338857Y17100590D01*
X86602186Y17100590D01*
X86567375Y17035464D01*
G37*
X86567375Y17035464D02*
X86481684Y16752977D01*
X86452749Y16459200D01*
X86481684Y16165423D01*
X86567375Y15882936D01*
X86706531Y15622594D01*
X86893803Y15394403D01*
X87121994Y15207131D01*
X87155540Y15189200D01*
X87121994Y15171269D01*
X86893803Y14983997D01*
X86706531Y14755806D01*
X86567375Y14495464D01*
X86481684Y14212977D01*
X86452749Y13919200D01*
X86481684Y13625423D01*
X86567375Y13342936D01*
X86706531Y13082594D01*
X86893803Y12854403D01*
X87121994Y12667131D01*
X87155540Y12649200D01*
X87121994Y12631269D01*
X86979345Y12514200D01*
X86245571Y12514200D01*
X86189819Y12519691D01*
X85967320Y12497777D01*
X85917525Y12482671D01*
X85753373Y12432876D01*
X85556197Y12327484D01*
X85383371Y12185649D01*
X85347828Y12142340D01*
X84159225Y10953736D01*
X84115911Y10918189D01*
X83974076Y10745363D01*
X83904961Y10616056D01*
X83868684Y10548186D01*
X83803783Y10334238D01*
X83781869Y10111740D01*
X83787360Y10055988D01*
X83787361Y7719293D01*
X81964174Y5896106D01*
X82053676Y6063553D01*
X82118577Y6277501D01*
X82140491Y6500000D01*
X82118577Y6722499D01*
X82053676Y6936447D01*
X81948284Y7133623D01*
X81806449Y7306449D01*
X81633623Y7448284D01*
X81436447Y7553676D01*
X81222499Y7618577D01*
X81055752Y7635000D01*
X79970132Y7635000D01*
X78945400Y8659731D01*
X79192401Y8610600D01*
X79487599Y8610600D01*
X79777125Y8668190D01*
X80049853Y8781158D01*
X80295302Y8945161D01*
X80504039Y9153898D01*
X80610000Y9312481D01*
X80715961Y9153898D01*
X80924698Y8945161D01*
X81170147Y8781158D01*
X81442875Y8668190D01*
X81732401Y8610600D01*
X82027599Y8610600D01*
X82317125Y8668190D01*
X82589853Y8781158D01*
X82835302Y8945161D01*
X83044039Y9153898D01*
X83208042Y9399347D01*
X83321010Y9672075D01*
X83378600Y9961601D01*
X83378600Y10256799D01*
X83321010Y10546325D01*
X83208042Y10819053D01*
X83044039Y11064502D01*
X82835302Y11273239D01*
X82589853Y11437242D01*
X82317125Y11550210D01*
X82027599Y11607800D01*
X81732401Y11607800D01*
X81442875Y11550210D01*
X81170147Y11437242D01*
X80924698Y11273239D01*
X80715961Y11064502D01*
X80610000Y10905919D01*
X80504039Y11064502D01*
X80295302Y11273239D01*
X80049853Y11437242D01*
X79777125Y11550210D01*
X79487599Y11607800D01*
X79192401Y11607800D01*
X78902875Y11550210D01*
X78630147Y11437242D01*
X78384698Y11273239D01*
X78175961Y11064502D01*
X78135000Y11003199D01*
X78135000Y12780000D01*
X78261928Y12780000D01*
X78274188Y12655518D01*
X78310498Y12535820D01*
X78369463Y12425506D01*
X78448815Y12328815D01*
X78545506Y12249463D01*
X78655820Y12190498D01*
X78775518Y12154188D01*
X78900000Y12141928D01*
X80714250Y12145000D01*
X80873000Y12303750D01*
X80873000Y13653000D01*
X81127000Y13653000D01*
X81127000Y12303750D01*
X81285750Y12145000D01*
X83100000Y12141928D01*
X83224482Y12154188D01*
X83344180Y12190498D01*
X83454494Y12249463D01*
X83551185Y12328815D01*
X83630537Y12425506D01*
X83689502Y12535820D01*
X83725812Y12655518D01*
X83738072Y12780000D01*
X83735000Y13494250D01*
X83576250Y13653000D01*
X81127000Y13653000D01*
X80873000Y13653000D01*
X78423750Y13653000D01*
X78265000Y13494250D01*
X78261928Y12780000D01*
X78135000Y12780000D01*
X78135000Y14780000D01*
X78261928Y14780000D01*
X78265000Y14065750D01*
X78423750Y13907000D01*
X80873000Y13907000D01*
X80873000Y15256250D01*
X81127000Y15256250D01*
X81127000Y13907000D01*
X83576250Y13907000D01*
X83735000Y14065750D01*
X83738072Y14780000D01*
X83725812Y14904482D01*
X83689502Y15024180D01*
X83630537Y15134494D01*
X83551185Y15231185D01*
X83454494Y15310537D01*
X83344180Y15369502D01*
X83224482Y15405812D01*
X83100000Y15418072D01*
X81285750Y15415000D01*
X81127000Y15256250D01*
X80873000Y15256250D01*
X80714250Y15415000D01*
X78900000Y15418072D01*
X78775518Y15405812D01*
X78655820Y15369502D01*
X78545506Y15310537D01*
X78448815Y15231185D01*
X78369463Y15134494D01*
X78310498Y15024180D01*
X78274188Y14904482D01*
X78261928Y14780000D01*
X78135000Y14780000D01*
X78135000Y15055752D01*
X78118577Y15222499D01*
X78053676Y15436447D01*
X77948284Y15633623D01*
X77832259Y15775000D01*
X83672715Y15775000D01*
X83708820Y15771444D01*
X83744925Y15775000D01*
X83852905Y15785635D01*
X83991453Y15827663D01*
X84119140Y15895913D01*
X84231058Y15987762D01*
X84254078Y16015812D01*
X85338857Y17100590D01*
X86602186Y17100590D01*
X86567375Y17035464D01*
G36*
X81504774Y42301898D02*
G01*
X81465000Y42101939D01*
X81465000Y41898061D01*
X81504774Y41698102D01*
X81582795Y41509744D01*
X81696063Y41340226D01*
X81765001Y41271288D01*
X81765000Y23584447D01*
X81598625Y23418072D01*
X78900000Y23418072D01*
X78775518Y23405812D01*
X78655820Y23369502D01*
X78545506Y23310537D01*
X78448815Y23231185D01*
X78369463Y23134494D01*
X78310498Y23024180D01*
X78274188Y22904482D01*
X78261928Y22780000D01*
X78261928Y20780000D01*
X78274188Y20655518D01*
X78310498Y20535820D01*
X78369463Y20425506D01*
X78448815Y20328815D01*
X78545506Y20249463D01*
X78655820Y20190498D01*
X78775518Y20154188D01*
X78900000Y20141928D01*
X82602482Y20141928D01*
X82194754Y19734200D01*
X75221086Y19734200D01*
X75982591Y20495704D01*
X76051717Y20366377D01*
X76193552Y20193551D01*
X76366378Y20051716D01*
X76563554Y19946324D01*
X76777502Y19881423D01*
X77000000Y19859509D01*
X77222499Y19881423D01*
X77436447Y19946324D01*
X77633623Y20051716D01*
X77806449Y20193551D01*
X77948284Y20366377D01*
X78053676Y20563553D01*
X78118577Y20777501D01*
X78135000Y20944248D01*
X78135000Y30749869D01*
X79880132Y32495000D01*
X80071033Y32495000D01*
X80386912Y32557832D01*
X80684463Y32681082D01*
X80952252Y32860013D01*
X81179987Y33087748D01*
X81358918Y33355537D01*
X81482168Y33653088D01*
X81545000Y33968967D01*
X81545000Y34291033D01*
X81482168Y34606912D01*
X81358918Y34904463D01*
X81179987Y35172252D01*
X81045000Y35307239D01*
X81045000Y39452761D01*
X81179987Y39587748D01*
X81358918Y39855537D01*
X81482168Y40153088D01*
X81545000Y40468967D01*
X81545000Y40791033D01*
X81482168Y41106912D01*
X81358918Y41404463D01*
X81179987Y41672252D01*
X81045000Y41807239D01*
X81045000Y42435000D01*
X81559907Y42435000D01*
X81504774Y42301898D01*
G37*
X81504774Y42301898D02*
X81465000Y42101939D01*
X81465000Y41898061D01*
X81504774Y41698102D01*
X81582795Y41509744D01*
X81696063Y41340226D01*
X81765001Y41271288D01*
X81765000Y23584447D01*
X81598625Y23418072D01*
X78900000Y23418072D01*
X78775518Y23405812D01*
X78655820Y23369502D01*
X78545506Y23310537D01*
X78448815Y23231185D01*
X78369463Y23134494D01*
X78310498Y23024180D01*
X78274188Y22904482D01*
X78261928Y22780000D01*
X78261928Y20780000D01*
X78274188Y20655518D01*
X78310498Y20535820D01*
X78369463Y20425506D01*
X78448815Y20328815D01*
X78545506Y20249463D01*
X78655820Y20190498D01*
X78775518Y20154188D01*
X78900000Y20141928D01*
X82602482Y20141928D01*
X82194754Y19734200D01*
X75221086Y19734200D01*
X75982591Y20495704D01*
X76051717Y20366377D01*
X76193552Y20193551D01*
X76366378Y20051716D01*
X76563554Y19946324D01*
X76777502Y19881423D01*
X77000000Y19859509D01*
X77222499Y19881423D01*
X77436447Y19946324D01*
X77633623Y20051716D01*
X77806449Y20193551D01*
X77948284Y20366377D01*
X78053676Y20563553D01*
X78118577Y20777501D01*
X78135000Y20944248D01*
X78135000Y30749869D01*
X79880132Y32495000D01*
X80071033Y32495000D01*
X80386912Y32557832D01*
X80684463Y32681082D01*
X80952252Y32860013D01*
X81179987Y33087748D01*
X81358918Y33355537D01*
X81482168Y33653088D01*
X81545000Y33968967D01*
X81545000Y34291033D01*
X81482168Y34606912D01*
X81358918Y34904463D01*
X81179987Y35172252D01*
X81045000Y35307239D01*
X81045000Y39452761D01*
X81179987Y39587748D01*
X81358918Y39855537D01*
X81482168Y40153088D01*
X81545000Y40468967D01*
X81545000Y40791033D01*
X81482168Y41106912D01*
X81358918Y41404463D01*
X81179987Y41672252D01*
X81045000Y41807239D01*
X81045000Y42435000D01*
X81559907Y42435000D01*
X81504774Y42301898D01*
G36*
X5477840Y41473473D02*
G01*
X5477841Y31913115D01*
X5474284Y31877000D01*
X5488475Y31732915D01*
X5521841Y31622924D01*
X5530504Y31594367D01*
X5598754Y31466680D01*
X5690603Y31354762D01*
X5718648Y31331746D01*
X7587826Y29462567D01*
X7610842Y29434522D01*
X7722760Y29342673D01*
X7850447Y29274423D01*
X7988995Y29232395D01*
X8096975Y29221760D01*
X8096984Y29221760D01*
X8133079Y29218205D01*
X8169174Y29221760D01*
X13450655Y29221760D01*
X13486760Y29218204D01*
X13522865Y29221760D01*
X13630845Y29232395D01*
X13769393Y29274423D01*
X13897080Y29342673D01*
X14008998Y29434522D01*
X14032018Y29462572D01*
X14895000Y30325554D01*
X14895001Y27065264D01*
X14855537Y27048918D01*
X14587748Y26869987D01*
X14360013Y26642252D01*
X14181082Y26374463D01*
X14057832Y26076912D01*
X13995000Y25761033D01*
X13995000Y25438967D01*
X14057832Y25123088D01*
X14181082Y24825537D01*
X14360013Y24557748D01*
X14587748Y24330013D01*
X14855537Y24151082D01*
X15153088Y24027832D01*
X15468967Y23965000D01*
X15791033Y23965000D01*
X16106912Y24027832D01*
X16404463Y24151082D01*
X16672252Y24330013D01*
X16865001Y24522762D01*
X16865001Y23970133D01*
X16529868Y23635000D01*
X12470132Y23635000D01*
X12265000Y23840131D01*
X12265000Y24422761D01*
X12399987Y24557748D01*
X12578918Y24825537D01*
X12702168Y25123088D01*
X12765000Y25438967D01*
X12765000Y25761033D01*
X12702168Y26076912D01*
X12578918Y26374463D01*
X12399987Y26642252D01*
X12172252Y26869987D01*
X11904463Y27048918D01*
X11606912Y27172168D01*
X11291033Y27235000D01*
X10968967Y27235000D01*
X10653088Y27172168D01*
X10355537Y27048918D01*
X10087748Y26869987D01*
X9860013Y26642252D01*
X9681082Y26374463D01*
X9664736Y26335000D01*
X7442507Y26335000D01*
X4465000Y29312506D01*
X4465000Y31634736D01*
X4504463Y31651082D01*
X4772252Y31830013D01*
X4999987Y32057748D01*
X5178918Y32325537D01*
X5302168Y32623088D01*
X5365000Y32938967D01*
X5365000Y33261033D01*
X5302168Y33576912D01*
X5178918Y33874463D01*
X4999987Y34142252D01*
X4772252Y34369987D01*
X4504463Y34548918D01*
X4465000Y34565264D01*
X4465000Y38134736D01*
X4504463Y38151082D01*
X4772252Y38330013D01*
X4999987Y38557748D01*
X5178918Y38825537D01*
X5302168Y39123088D01*
X5365000Y39438967D01*
X5365000Y39761033D01*
X5302168Y40076912D01*
X5178918Y40374463D01*
X4999987Y40642252D01*
X4772252Y40869987D01*
X4504463Y41048918D01*
X4225391Y41164514D01*
X4228574Y41165147D01*
X4489727Y41273320D01*
X4724759Y41430363D01*
X4924637Y41630241D01*
X5044748Y41810000D01*
X5141314Y41810000D01*
X5477840Y41473473D01*
G37*
X5477840Y41473473D02*
X5477841Y31913115D01*
X5474284Y31877000D01*
X5488475Y31732915D01*
X5521841Y31622924D01*
X5530504Y31594367D01*
X5598754Y31466680D01*
X5690603Y31354762D01*
X5718648Y31331746D01*
X7587826Y29462567D01*
X7610842Y29434522D01*
X7722760Y29342673D01*
X7850447Y29274423D01*
X7988995Y29232395D01*
X8096975Y29221760D01*
X8096984Y29221760D01*
X8133079Y29218205D01*
X8169174Y29221760D01*
X13450655Y29221760D01*
X13486760Y29218204D01*
X13522865Y29221760D01*
X13630845Y29232395D01*
X13769393Y29274423D01*
X13897080Y29342673D01*
X14008998Y29434522D01*
X14032018Y29462572D01*
X14895000Y30325554D01*
X14895001Y27065264D01*
X14855537Y27048918D01*
X14587748Y26869987D01*
X14360013Y26642252D01*
X14181082Y26374463D01*
X14057832Y26076912D01*
X13995000Y25761033D01*
X13995000Y25438967D01*
X14057832Y25123088D01*
X14181082Y24825537D01*
X14360013Y24557748D01*
X14587748Y24330013D01*
X14855537Y24151082D01*
X15153088Y24027832D01*
X15468967Y23965000D01*
X15791033Y23965000D01*
X16106912Y24027832D01*
X16404463Y24151082D01*
X16672252Y24330013D01*
X16865001Y24522762D01*
X16865001Y23970133D01*
X16529868Y23635000D01*
X12470132Y23635000D01*
X12265000Y23840131D01*
X12265000Y24422761D01*
X12399987Y24557748D01*
X12578918Y24825537D01*
X12702168Y25123088D01*
X12765000Y25438967D01*
X12765000Y25761033D01*
X12702168Y26076912D01*
X12578918Y26374463D01*
X12399987Y26642252D01*
X12172252Y26869987D01*
X11904463Y27048918D01*
X11606912Y27172168D01*
X11291033Y27235000D01*
X10968967Y27235000D01*
X10653088Y27172168D01*
X10355537Y27048918D01*
X10087748Y26869987D01*
X9860013Y26642252D01*
X9681082Y26374463D01*
X9664736Y26335000D01*
X7442507Y26335000D01*
X4465000Y29312506D01*
X4465000Y31634736D01*
X4504463Y31651082D01*
X4772252Y31830013D01*
X4999987Y32057748D01*
X5178918Y32325537D01*
X5302168Y32623088D01*
X5365000Y32938967D01*
X5365000Y33261033D01*
X5302168Y33576912D01*
X5178918Y33874463D01*
X4999987Y34142252D01*
X4772252Y34369987D01*
X4504463Y34548918D01*
X4465000Y34565264D01*
X4465000Y38134736D01*
X4504463Y38151082D01*
X4772252Y38330013D01*
X4999987Y38557748D01*
X5178918Y38825537D01*
X5302168Y39123088D01*
X5365000Y39438967D01*
X5365000Y39761033D01*
X5302168Y40076912D01*
X5178918Y40374463D01*
X4999987Y40642252D01*
X4772252Y40869987D01*
X4504463Y41048918D01*
X4225391Y41164514D01*
X4228574Y41165147D01*
X4489727Y41273320D01*
X4724759Y41430363D01*
X4924637Y41630241D01*
X5044748Y41810000D01*
X5141314Y41810000D01*
X5477840Y41473473D01*
G36*
X23546375Y34655822D02*
G01*
X23506912Y34672168D01*
X23191033Y34735000D01*
X22868967Y34735000D01*
X22553088Y34672168D01*
X22255537Y34548918D01*
X21987748Y34369987D01*
X21760013Y34142252D01*
X21581082Y33874463D01*
X21457832Y33576912D01*
X21395000Y33261033D01*
X21395000Y32938967D01*
X21457832Y32623088D01*
X21581082Y32325537D01*
X21760013Y32057748D01*
X21987748Y31830013D01*
X22255537Y31651082D01*
X22553088Y31527832D01*
X22868967Y31465000D01*
X23191033Y31465000D01*
X23506912Y31527832D01*
X23804463Y31651082D01*
X24072252Y31830013D01*
X24299987Y32057748D01*
X24478918Y32325537D01*
X24602168Y32623088D01*
X24665000Y32938967D01*
X24665000Y33261033D01*
X24602168Y33576912D01*
X24585822Y33616375D01*
X25365000Y34395553D01*
X25365001Y31470133D01*
X23529869Y29635000D01*
X18555752Y29635000D01*
X18500000Y29640491D01*
X18444248Y29635000D01*
X18277501Y29618577D01*
X18063553Y29553676D01*
X17866377Y29448284D01*
X17693551Y29306449D01*
X17658004Y29263135D01*
X17236865Y28841996D01*
X17193551Y28806449D01*
X17051716Y28633623D01*
X16974833Y28489783D01*
X16946324Y28436446D01*
X16881423Y28222498D01*
X16859509Y28000000D01*
X16865000Y27944248D01*
X16865000Y26677239D01*
X16672252Y26869987D01*
X16404463Y27048918D01*
X16365000Y27065264D01*
X16365000Y30634736D01*
X16404463Y30651082D01*
X16672252Y30830013D01*
X16899987Y31057748D01*
X17078918Y31325537D01*
X17202168Y31623088D01*
X17265000Y31938967D01*
X17265000Y32052761D01*
X17487748Y31830013D01*
X17755537Y31651082D01*
X18053088Y31527832D01*
X18368967Y31465000D01*
X18691033Y31465000D01*
X19006912Y31527832D01*
X19304463Y31651082D01*
X19572252Y31830013D01*
X19799987Y32057748D01*
X19978918Y32325537D01*
X20102168Y32623088D01*
X20165000Y32938967D01*
X20165000Y33261033D01*
X20102168Y33576912D01*
X19978918Y33874463D01*
X19799987Y34142252D01*
X19572252Y34369987D01*
X19304463Y34548918D01*
X19006912Y34672168D01*
X18691033Y34735000D01*
X18368967Y34735000D01*
X18053088Y34672168D01*
X17755537Y34548918D01*
X17487748Y34369987D01*
X17260013Y34142252D01*
X17081082Y33874463D01*
X16957832Y33576912D01*
X16895000Y33261033D01*
X16895000Y33147239D01*
X16672252Y33369987D01*
X16404463Y33548918D01*
X16365000Y33565264D01*
X16365000Y34750244D01*
X17454527Y35839770D01*
X24730323Y35839770D01*
X23546375Y34655822D01*
G37*
X23546375Y34655822D02*
X23506912Y34672168D01*
X23191033Y34735000D01*
X22868967Y34735000D01*
X22553088Y34672168D01*
X22255537Y34548918D01*
X21987748Y34369987D01*
X21760013Y34142252D01*
X21581082Y33874463D01*
X21457832Y33576912D01*
X21395000Y33261033D01*
X21395000Y32938967D01*
X21457832Y32623088D01*
X21581082Y32325537D01*
X21760013Y32057748D01*
X21987748Y31830013D01*
X22255537Y31651082D01*
X22553088Y31527832D01*
X22868967Y31465000D01*
X23191033Y31465000D01*
X23506912Y31527832D01*
X23804463Y31651082D01*
X24072252Y31830013D01*
X24299987Y32057748D01*
X24478918Y32325537D01*
X24602168Y32623088D01*
X24665000Y32938967D01*
X24665000Y33261033D01*
X24602168Y33576912D01*
X24585822Y33616375D01*
X25365000Y34395553D01*
X25365001Y31470133D01*
X23529869Y29635000D01*
X18555752Y29635000D01*
X18500000Y29640491D01*
X18444248Y29635000D01*
X18277501Y29618577D01*
X18063553Y29553676D01*
X17866377Y29448284D01*
X17693551Y29306449D01*
X17658004Y29263135D01*
X17236865Y28841996D01*
X17193551Y28806449D01*
X17051716Y28633623D01*
X16974833Y28489783D01*
X16946324Y28436446D01*
X16881423Y28222498D01*
X16859509Y28000000D01*
X16865000Y27944248D01*
X16865000Y26677239D01*
X16672252Y26869987D01*
X16404463Y27048918D01*
X16365000Y27065264D01*
X16365000Y30634736D01*
X16404463Y30651082D01*
X16672252Y30830013D01*
X16899987Y31057748D01*
X17078918Y31325537D01*
X17202168Y31623088D01*
X17265000Y31938967D01*
X17265000Y32052761D01*
X17487748Y31830013D01*
X17755537Y31651082D01*
X18053088Y31527832D01*
X18368967Y31465000D01*
X18691033Y31465000D01*
X19006912Y31527832D01*
X19304463Y31651082D01*
X19572252Y31830013D01*
X19799987Y32057748D01*
X19978918Y32325537D01*
X20102168Y32623088D01*
X20165000Y32938967D01*
X20165000Y33261033D01*
X20102168Y33576912D01*
X19978918Y33874463D01*
X19799987Y34142252D01*
X19572252Y34369987D01*
X19304463Y34548918D01*
X19006912Y34672168D01*
X18691033Y34735000D01*
X18368967Y34735000D01*
X18053088Y34672168D01*
X17755537Y34548918D01*
X17487748Y34369987D01*
X17260013Y34142252D01*
X17081082Y33874463D01*
X16957832Y33576912D01*
X16895000Y33261033D01*
X16895000Y33147239D01*
X16672252Y33369987D01*
X16404463Y33548918D01*
X16365000Y33565264D01*
X16365000Y34750244D01*
X17454527Y35839770D01*
X24730323Y35839770D01*
X23546375Y34655822D01*
G36*
X67732152Y29162703D02*
G01*
X67732151Y28568955D01*
X67728595Y28532849D01*
X67739296Y28424200D01*
X67742786Y28388765D01*
X67784814Y28250217D01*
X67853064Y28122530D01*
X67944913Y28010612D01*
X67965000Y27994127D01*
X67965000Y27898061D01*
X68004774Y27698102D01*
X68081993Y27511680D01*
X65963448Y27511680D01*
X53210127Y40265000D01*
X56629856Y40265000D01*
X67732152Y29162703D01*
G37*
X67732152Y29162703D02*
X67732151Y28568955D01*
X67728595Y28532849D01*
X67739296Y28424200D01*
X67742786Y28388765D01*
X67784814Y28250217D01*
X67853064Y28122530D01*
X67944913Y28010612D01*
X67965000Y27994127D01*
X67965000Y27898061D01*
X68004774Y27698102D01*
X68081993Y27511680D01*
X65963448Y27511680D01*
X53210127Y40265000D01*
X56629856Y40265000D01*
X67732152Y29162703D01*
G36*
X60236856Y43658012D02*
G01*
X60366377Y43551716D01*
X60563553Y43446324D01*
X60777501Y43381423D01*
X61000000Y43359509D01*
X61222499Y43381423D01*
X61436446Y43446324D01*
X61633622Y43551716D01*
X61806449Y43693551D01*
X61948284Y43866378D01*
X62053676Y44063554D01*
X62118577Y44277501D01*
X62140491Y44500000D01*
X62118577Y44722499D01*
X62088324Y44822230D01*
X67845000Y39065553D01*
X67845001Y32270315D01*
X67841444Y32234200D01*
X67855635Y32090115D01*
X67888483Y31981833D01*
X67897664Y31951567D01*
X67965914Y31823880D01*
X68057763Y31711962D01*
X68085808Y31688946D01*
X71044163Y28730590D01*
X70808857Y28730590D01*
X57600259Y41939187D01*
X57577238Y41967238D01*
X57465320Y42059087D01*
X57337633Y42127337D01*
X57199085Y42169365D01*
X57091105Y42180000D01*
X57055000Y42183556D01*
X57018895Y42180000D01*
X41285131Y42180000D01*
X44763146Y45658013D01*
X44806449Y45693551D01*
X44851185Y45748061D01*
X44948284Y45866377D01*
X45053676Y46063553D01*
X45118577Y46277501D01*
X45140491Y46500000D01*
X45135000Y46555752D01*
X45135000Y48365000D01*
X55529869Y48365000D01*
X60236856Y43658012D01*
G37*
X60236856Y43658012D02*
X60366377Y43551716D01*
X60563553Y43446324D01*
X60777501Y43381423D01*
X61000000Y43359509D01*
X61222499Y43381423D01*
X61436446Y43446324D01*
X61633622Y43551716D01*
X61806449Y43693551D01*
X61948284Y43866378D01*
X62053676Y44063554D01*
X62118577Y44277501D01*
X62140491Y44500000D01*
X62118577Y44722499D01*
X62088324Y44822230D01*
X67845000Y39065553D01*
X67845001Y32270315D01*
X67841444Y32234200D01*
X67855635Y32090115D01*
X67888483Y31981833D01*
X67897664Y31951567D01*
X67965914Y31823880D01*
X68057763Y31711962D01*
X68085808Y31688946D01*
X71044163Y28730590D01*
X70808857Y28730590D01*
X57600259Y41939187D01*
X57577238Y41967238D01*
X57465320Y42059087D01*
X57337633Y42127337D01*
X57199085Y42169365D01*
X57091105Y42180000D01*
X57055000Y42183556D01*
X57018895Y42180000D01*
X41285131Y42180000D01*
X44763146Y45658013D01*
X44806449Y45693551D01*
X44851185Y45748061D01*
X44948284Y45866377D01*
X45053676Y46063553D01*
X45118577Y46277501D01*
X45140491Y46500000D01*
X45135000Y46555752D01*
X45135000Y48365000D01*
X55529869Y48365000D01*
X60236856Y43658012D01*
G36*
X15135808Y35599944D02*
G01*
X15107763Y35576928D01*
X15015914Y35465010D01*
X14957940Y35356548D01*
X14947664Y35337323D01*
X14905635Y35198775D01*
X14891444Y35054690D01*
X14895001Y35018575D01*
X14895000Y33565264D01*
X14855537Y33548918D01*
X14587748Y33369987D01*
X14360013Y33142252D01*
X14181082Y32874463D01*
X14057832Y32576912D01*
X13995000Y32261033D01*
X13995000Y31938967D01*
X14057832Y31623088D01*
X14074178Y31583625D01*
X13182314Y30691760D01*
X11965342Y30691760D01*
X12172252Y30830013D01*
X12399987Y31057748D01*
X12578918Y31325537D01*
X12702168Y31623088D01*
X12765000Y31938967D01*
X12765000Y32261033D01*
X12702168Y32576912D01*
X12578918Y32874463D01*
X12399987Y33142252D01*
X12172252Y33369987D01*
X11904463Y33548918D01*
X11606912Y33672168D01*
X11291033Y33735000D01*
X10968967Y33735000D01*
X10653088Y33672168D01*
X10355537Y33548918D01*
X10087748Y33369987D01*
X9865000Y33147239D01*
X9865000Y33261033D01*
X9802168Y33576912D01*
X9785186Y33617910D01*
X9806195Y33643509D01*
X12402467Y36239780D01*
X15775644Y36239780D01*
X15135808Y35599944D01*
G37*
X15135808Y35599944D02*
X15107763Y35576928D01*
X15015914Y35465010D01*
X14957940Y35356548D01*
X14947664Y35337323D01*
X14905635Y35198775D01*
X14891444Y35054690D01*
X14895001Y35018575D01*
X14895000Y33565264D01*
X14855537Y33548918D01*
X14587748Y33369987D01*
X14360013Y33142252D01*
X14181082Y32874463D01*
X14057832Y32576912D01*
X13995000Y32261033D01*
X13995000Y31938967D01*
X14057832Y31623088D01*
X14074178Y31583625D01*
X13182314Y30691760D01*
X11965342Y30691760D01*
X12172252Y30830013D01*
X12399987Y31057748D01*
X12578918Y31325537D01*
X12702168Y31623088D01*
X12765000Y31938967D01*
X12765000Y32261033D01*
X12702168Y32576912D01*
X12578918Y32874463D01*
X12399987Y33142252D01*
X12172252Y33369987D01*
X11904463Y33548918D01*
X11606912Y33672168D01*
X11291033Y33735000D01*
X10968967Y33735000D01*
X10653088Y33672168D01*
X10355537Y33548918D01*
X10087748Y33369987D01*
X9865000Y33147239D01*
X9865000Y33261033D01*
X9802168Y33576912D01*
X9785186Y33617910D01*
X9806195Y33643509D01*
X12402467Y36239780D01*
X15775644Y36239780D01*
X15135808Y35599944D01*
G36*
X84482001Y50968714D02*
G01*
X84482000Y49149545D01*
X84478444Y49113440D01*
X84492635Y48969355D01*
X84503097Y48934867D01*
X84534663Y48830808D01*
X84602913Y48703121D01*
X84694762Y48591203D01*
X84722808Y48568186D01*
X86463779Y46827214D01*
X86481684Y46645423D01*
X86567375Y46362936D01*
X86706531Y46102594D01*
X86893803Y45874403D01*
X87121994Y45687131D01*
X87155540Y45669200D01*
X87121994Y45651269D01*
X86893803Y45463997D01*
X86706531Y45235806D01*
X86567375Y44975464D01*
X86481684Y44692977D01*
X86452749Y44399200D01*
X86481684Y44105423D01*
X86542481Y43905000D01*
X81045000Y43905000D01*
X81045000Y48547322D01*
X81053676Y48563554D01*
X81118577Y48777501D01*
X81140491Y49000000D01*
X81118577Y49222499D01*
X81053676Y49436447D01*
X80948284Y49633622D01*
X80841988Y49763143D01*
X80841986Y49763145D01*
X80806448Y49806448D01*
X80763145Y49841986D01*
X80263143Y50341988D01*
X80133622Y50448283D01*
X79936446Y50553676D01*
X79722498Y50618577D01*
X79500000Y50640491D01*
X79277502Y50618577D01*
X79063554Y50553676D01*
X78866378Y50448283D01*
X78693552Y50306448D01*
X78551717Y50133622D01*
X78446324Y49936446D01*
X78381423Y49722498D01*
X78359509Y49500000D01*
X78381423Y49277502D01*
X78446324Y49063554D01*
X78551717Y48866378D01*
X78658012Y48736857D01*
X78775000Y48619869D01*
X78775001Y42645761D01*
X78775000Y42645751D01*
X78775000Y41807239D01*
X78640013Y41672252D01*
X78461082Y41404463D01*
X78337832Y41106912D01*
X78275000Y40791033D01*
X78275000Y40468967D01*
X78337832Y40153088D01*
X78461082Y39855537D01*
X78640013Y39587748D01*
X78775000Y39452761D01*
X78775001Y35307240D01*
X78640013Y35172252D01*
X78461082Y34904463D01*
X78337832Y34606912D01*
X78275000Y34291033D01*
X78275000Y34100132D01*
X76236865Y32061996D01*
X76193551Y32026449D01*
X76051716Y31853623D01*
X75964088Y31689680D01*
X75946324Y31656446D01*
X75933280Y31613447D01*
X75353338Y32193388D01*
X75330318Y32221438D01*
X75218400Y32313287D01*
X75090713Y32381537D01*
X74952165Y32423565D01*
X74844185Y32434200D01*
X74808080Y32437756D01*
X74771975Y32434200D01*
X74547779Y32434200D01*
X74493469Y32535806D01*
X74306197Y32763997D01*
X74078006Y32951269D01*
X74044460Y32969200D01*
X74078006Y32987131D01*
X74306197Y33174403D01*
X74493469Y33402594D01*
X74632625Y33662936D01*
X74718316Y33945423D01*
X74747251Y34239200D01*
X74718316Y34532977D01*
X74632625Y34815464D01*
X74493469Y35075806D01*
X74306197Y35303997D01*
X74078006Y35491269D01*
X74044460Y35509200D01*
X74078006Y35527131D01*
X74306197Y35714403D01*
X74493469Y35942594D01*
X74632625Y36202936D01*
X74718316Y36485423D01*
X74747251Y36779200D01*
X74718316Y37072977D01*
X74632625Y37355464D01*
X74493469Y37615806D01*
X74306197Y37843997D01*
X74078006Y38031269D01*
X74044460Y38049200D01*
X74078006Y38067131D01*
X74306197Y38254403D01*
X74493469Y38482594D01*
X74632625Y38742936D01*
X74718316Y39025423D01*
X74747251Y39319200D01*
X74718316Y39612977D01*
X74632625Y39895464D01*
X74493469Y40155806D01*
X74306197Y40383997D01*
X74078006Y40571269D01*
X74044460Y40589200D01*
X74078006Y40607131D01*
X74306197Y40794403D01*
X74493469Y41022594D01*
X74632625Y41282936D01*
X74718316Y41565423D01*
X74747251Y41859200D01*
X74718316Y42152977D01*
X74632625Y42435464D01*
X74493469Y42695806D01*
X74306197Y42923997D01*
X74078006Y43111269D01*
X74044460Y43129200D01*
X74078006Y43147131D01*
X74306197Y43334403D01*
X74493469Y43562594D01*
X74632625Y43822936D01*
X74718316Y44105423D01*
X74747251Y44399200D01*
X74718316Y44692977D01*
X74632625Y44975464D01*
X74493469Y45235806D01*
X74306197Y45463997D01*
X74078006Y45651269D01*
X74044460Y45669200D01*
X74078006Y45687131D01*
X74306197Y45874403D01*
X74493469Y46102594D01*
X74632625Y46362936D01*
X74718316Y46645423D01*
X74747251Y46939200D01*
X74718316Y47232977D01*
X74632625Y47515464D01*
X74493469Y47775806D01*
X74436756Y47844910D01*
X76437913Y49846066D01*
X76437917Y49846071D01*
X78239637Y51647790D01*
X83802926Y51647790D01*
X84482001Y50968714D01*
G37*
X84482001Y50968714D02*
X84482000Y49149545D01*
X84478444Y49113440D01*
X84492635Y48969355D01*
X84503097Y48934867D01*
X84534663Y48830808D01*
X84602913Y48703121D01*
X84694762Y48591203D01*
X84722808Y48568186D01*
X86463779Y46827214D01*
X86481684Y46645423D01*
X86567375Y46362936D01*
X86706531Y46102594D01*
X86893803Y45874403D01*
X87121994Y45687131D01*
X87155540Y45669200D01*
X87121994Y45651269D01*
X86893803Y45463997D01*
X86706531Y45235806D01*
X86567375Y44975464D01*
X86481684Y44692977D01*
X86452749Y44399200D01*
X86481684Y44105423D01*
X86542481Y43905000D01*
X81045000Y43905000D01*
X81045000Y48547322D01*
X81053676Y48563554D01*
X81118577Y48777501D01*
X81140491Y49000000D01*
X81118577Y49222499D01*
X81053676Y49436447D01*
X80948284Y49633622D01*
X80841988Y49763143D01*
X80841986Y49763145D01*
X80806448Y49806448D01*
X80763145Y49841986D01*
X80263143Y50341988D01*
X80133622Y50448283D01*
X79936446Y50553676D01*
X79722498Y50618577D01*
X79500000Y50640491D01*
X79277502Y50618577D01*
X79063554Y50553676D01*
X78866378Y50448283D01*
X78693552Y50306448D01*
X78551717Y50133622D01*
X78446324Y49936446D01*
X78381423Y49722498D01*
X78359509Y49500000D01*
X78381423Y49277502D01*
X78446324Y49063554D01*
X78551717Y48866378D01*
X78658012Y48736857D01*
X78775000Y48619869D01*
X78775001Y42645761D01*
X78775000Y42645751D01*
X78775000Y41807239D01*
X78640013Y41672252D01*
X78461082Y41404463D01*
X78337832Y41106912D01*
X78275000Y40791033D01*
X78275000Y40468967D01*
X78337832Y40153088D01*
X78461082Y39855537D01*
X78640013Y39587748D01*
X78775000Y39452761D01*
X78775001Y35307240D01*
X78640013Y35172252D01*
X78461082Y34904463D01*
X78337832Y34606912D01*
X78275000Y34291033D01*
X78275000Y34100132D01*
X76236865Y32061996D01*
X76193551Y32026449D01*
X76051716Y31853623D01*
X75964088Y31689680D01*
X75946324Y31656446D01*
X75933280Y31613447D01*
X75353338Y32193388D01*
X75330318Y32221438D01*
X75218400Y32313287D01*
X75090713Y32381537D01*
X74952165Y32423565D01*
X74844185Y32434200D01*
X74808080Y32437756D01*
X74771975Y32434200D01*
X74547779Y32434200D01*
X74493469Y32535806D01*
X74306197Y32763997D01*
X74078006Y32951269D01*
X74044460Y32969200D01*
X74078006Y32987131D01*
X74306197Y33174403D01*
X74493469Y33402594D01*
X74632625Y33662936D01*
X74718316Y33945423D01*
X74747251Y34239200D01*
X74718316Y34532977D01*
X74632625Y34815464D01*
X74493469Y35075806D01*
X74306197Y35303997D01*
X74078006Y35491269D01*
X74044460Y35509200D01*
X74078006Y35527131D01*
X74306197Y35714403D01*
X74493469Y35942594D01*
X74632625Y36202936D01*
X74718316Y36485423D01*
X74747251Y36779200D01*
X74718316Y37072977D01*
X74632625Y37355464D01*
X74493469Y37615806D01*
X74306197Y37843997D01*
X74078006Y38031269D01*
X74044460Y38049200D01*
X74078006Y38067131D01*
X74306197Y38254403D01*
X74493469Y38482594D01*
X74632625Y38742936D01*
X74718316Y39025423D01*
X74747251Y39319200D01*
X74718316Y39612977D01*
X74632625Y39895464D01*
X74493469Y40155806D01*
X74306197Y40383997D01*
X74078006Y40571269D01*
X74044460Y40589200D01*
X74078006Y40607131D01*
X74306197Y40794403D01*
X74493469Y41022594D01*
X74632625Y41282936D01*
X74718316Y41565423D01*
X74747251Y41859200D01*
X74718316Y42152977D01*
X74632625Y42435464D01*
X74493469Y42695806D01*
X74306197Y42923997D01*
X74078006Y43111269D01*
X74044460Y43129200D01*
X74078006Y43147131D01*
X74306197Y43334403D01*
X74493469Y43562594D01*
X74632625Y43822936D01*
X74718316Y44105423D01*
X74747251Y44399200D01*
X74718316Y44692977D01*
X74632625Y44975464D01*
X74493469Y45235806D01*
X74306197Y45463997D01*
X74078006Y45651269D01*
X74044460Y45669200D01*
X74078006Y45687131D01*
X74306197Y45874403D01*
X74493469Y46102594D01*
X74632625Y46362936D01*
X74718316Y46645423D01*
X74747251Y46939200D01*
X74718316Y47232977D01*
X74632625Y47515464D01*
X74493469Y47775806D01*
X74436756Y47844910D01*
X76437913Y49846066D01*
X76437917Y49846071D01*
X78239637Y51647790D01*
X83802926Y51647790D01*
X84482001Y50968714D01*
G36*
X27909746Y42050807D02*
G01*
X27932762Y42022762D01*
X27983129Y41981427D01*
X28044680Y41930913D01*
X28172366Y41862663D01*
X28310915Y41820635D01*
X28455000Y41806444D01*
X28491105Y41810000D01*
X29245252Y41810000D01*
X29365363Y41630241D01*
X29565241Y41430363D01*
X29800273Y41273320D01*
X30061426Y41165147D01*
X30338665Y41110000D01*
X30621335Y41110000D01*
X30898574Y41165147D01*
X31159727Y41273320D01*
X31364284Y41410000D01*
X32965000Y41410000D01*
X32965000Y41343061D01*
X33004774Y41143102D01*
X33049191Y41035870D01*
X28031385Y41035870D01*
X27995290Y41039425D01*
X27959195Y41035870D01*
X27959186Y41035870D01*
X27851206Y41025235D01*
X27712658Y40983207D01*
X27584971Y40914957D01*
X27473053Y40823108D01*
X27450037Y40795063D01*
X24764766Y38109790D01*
X23704776Y38109790D01*
X23804463Y38151082D01*
X24072252Y38330013D01*
X24299987Y38557748D01*
X24478918Y38825537D01*
X24602168Y39123088D01*
X24665000Y39438967D01*
X24665000Y39761033D01*
X24602168Y40076912D01*
X24478918Y40374463D01*
X24299987Y40642252D01*
X24072252Y40869987D01*
X23804463Y41048918D01*
X23595000Y41135681D01*
X23595000Y41310252D01*
X23774759Y41430363D01*
X23974637Y41630241D01*
X24131680Y41865273D01*
X24239853Y42126426D01*
X24295000Y42403665D01*
X24295000Y42686335D01*
X24239853Y42963574D01*
X24131680Y43224727D01*
X23974637Y43459759D01*
X23774759Y43659637D01*
X23617072Y43765000D01*
X26195554Y43765000D01*
X27909746Y42050807D01*
G37*
X27909746Y42050807D02*
X27932762Y42022762D01*
X27983129Y41981427D01*
X28044680Y41930913D01*
X28172366Y41862663D01*
X28310915Y41820635D01*
X28455000Y41806444D01*
X28491105Y41810000D01*
X29245252Y41810000D01*
X29365363Y41630241D01*
X29565241Y41430363D01*
X29800273Y41273320D01*
X30061426Y41165147D01*
X30338665Y41110000D01*
X30621335Y41110000D01*
X30898574Y41165147D01*
X31159727Y41273320D01*
X31364284Y41410000D01*
X32965000Y41410000D01*
X32965000Y41343061D01*
X33004774Y41143102D01*
X33049191Y41035870D01*
X28031385Y41035870D01*
X27995290Y41039425D01*
X27959195Y41035870D01*
X27959186Y41035870D01*
X27851206Y41025235D01*
X27712658Y40983207D01*
X27584971Y40914957D01*
X27473053Y40823108D01*
X27450037Y40795063D01*
X24764766Y38109790D01*
X23704776Y38109790D01*
X23804463Y38151082D01*
X24072252Y38330013D01*
X24299987Y38557748D01*
X24478918Y38825537D01*
X24602168Y39123088D01*
X24665000Y39438967D01*
X24665000Y39761033D01*
X24602168Y40076912D01*
X24478918Y40374463D01*
X24299987Y40642252D01*
X24072252Y40869987D01*
X23804463Y41048918D01*
X23595000Y41135681D01*
X23595000Y41310252D01*
X23774759Y41430363D01*
X23974637Y41630241D01*
X24131680Y41865273D01*
X24239853Y42126426D01*
X24295000Y42403665D01*
X24295000Y42686335D01*
X24239853Y42963574D01*
X24131680Y43224727D01*
X23974637Y43459759D01*
X23774759Y43659637D01*
X23617072Y43765000D01*
X26195554Y43765000D01*
X27909746Y42050807D01*
G36*
X71263642Y52378226D02*
G01*
X71384783Y52146200D01*
X72853000Y52146200D01*
X72853000Y52166200D01*
X73107000Y52166200D01*
X73107000Y52146200D01*
X73127000Y52146200D01*
X73127000Y51892200D01*
X73107000Y51892200D01*
X73107000Y51872200D01*
X72853000Y51872200D01*
X72853000Y51892200D01*
X71384783Y51892200D01*
X71263642Y51660174D01*
X71285473Y51563043D01*
X71365174Y51377810D01*
X70410383Y51377810D01*
X70387785Y51384665D01*
X70279805Y51395300D01*
X70243700Y51398856D01*
X70207595Y51395300D01*
X69254627Y51395300D01*
X70307137Y52447810D01*
X71279282Y52447810D01*
X71263642Y52378226D01*
G37*
X71263642Y52378226D02*
X71384783Y52146200D01*
X72853000Y52146200D01*
X72853000Y52166200D01*
X73107000Y52166200D01*
X73107000Y52146200D01*
X73127000Y52146200D01*
X73127000Y51892200D01*
X73107000Y51892200D01*
X73107000Y51872200D01*
X72853000Y51872200D01*
X72853000Y51892200D01*
X71384783Y51892200D01*
X71263642Y51660174D01*
X71285473Y51563043D01*
X71365174Y51377810D01*
X70410383Y51377810D01*
X70387785Y51384665D01*
X70279805Y51395300D01*
X70243700Y51398856D01*
X70207595Y51395300D01*
X69254627Y51395300D01*
X70307137Y52447810D01*
X71279282Y52447810D01*
X71263642Y52378226D01*
G36*
X71263642Y54918226D02*
G01*
X71384783Y54686200D01*
X72853000Y54686200D01*
X72853000Y54706200D01*
X73107000Y54706200D01*
X73107000Y54686200D01*
X74575217Y54686200D01*
X74696358Y54918226D01*
X74680718Y54987810D01*
X86522585Y54987810D01*
X86481684Y54852977D01*
X86452749Y54559200D01*
X86481684Y54265423D01*
X86567375Y53982936D01*
X86602186Y53917810D01*
X74594826Y53917810D01*
X74674527Y54103043D01*
X74696358Y54200174D01*
X74575217Y54432200D01*
X73107000Y54432200D01*
X73107000Y54412200D01*
X72853000Y54412200D01*
X72853000Y54432200D01*
X71384783Y54432200D01*
X71263642Y54200174D01*
X71285473Y54103043D01*
X71365174Y53917810D01*
X70905848Y53917810D01*
X70932337Y53967367D01*
X70974365Y54105915D01*
X70985000Y54213895D01*
X70985000Y54213896D01*
X70988556Y54249999D01*
X70985000Y54286104D01*
X70985000Y54987810D01*
X71279282Y54987810D01*
X71263642Y54918226D01*
G37*
X71263642Y54918226D02*
X71384783Y54686200D01*
X72853000Y54686200D01*
X72853000Y54706200D01*
X73107000Y54706200D01*
X73107000Y54686200D01*
X74575217Y54686200D01*
X74696358Y54918226D01*
X74680718Y54987810D01*
X86522585Y54987810D01*
X86481684Y54852977D01*
X86452749Y54559200D01*
X86481684Y54265423D01*
X86567375Y53982936D01*
X86602186Y53917810D01*
X74594826Y53917810D01*
X74674527Y54103043D01*
X74696358Y54200174D01*
X74575217Y54432200D01*
X73107000Y54432200D01*
X73107000Y54412200D01*
X72853000Y54412200D01*
X72853000Y54432200D01*
X71384783Y54432200D01*
X71263642Y54200174D01*
X71285473Y54103043D01*
X71365174Y53917810D01*
X70905848Y53917810D01*
X70932337Y53967367D01*
X70974365Y54105915D01*
X70985000Y54213895D01*
X70985000Y54213896D01*
X70988556Y54249999D01*
X70985000Y54286104D01*
X70985000Y54987810D01*
X71279282Y54987810D01*
X71263642Y54918226D01*
%TD*%
M02*
